<ttFont>
<head>
    <!-- Most of this table will be recalculated by the compiler -->
    <tableVersion value="1.0"/>
    <fontRevision value="1.0"/>
    <checkSumAdjustment value="0x9b479722"/>
    <magicNumber value="0x5f0f3cf5"/>
    <flags value="00000000 00011011"/>
    <unitsPerEm value="1000"/>
    <created value="Mon Jan  7 17:06:00 2013"/>
    <modified value="Thu Nov  6 12:31:52 2014"/>
    <xMin value="-115"/>
    <yMin value="-250"/>
    <xMax value="1148"/>
    <yMax value="1005"/>
    <macStyle value="00000000 00000010"/>
    <lowestRecPPEM value="9"/>
    <fontDirectionHint value="2"/>
    <indexToLocFormat value="0"/>
    <glyphDataFormat value="0"/>
  </head>
    <TTGlyph name=".notdef" xMin="72" yMin="0" xMax="536" yMax="650">
      <contour>
        <pt x="72" y="650" on="1"/>
        <pt x="536" y="650" on="1"/>
        <pt x="536" y="0" on="1"/>
        <pt x="72" y="0" on="1"/>
      </contour>
      <contour>
        <pt x="462" y="604" on="1"/>
        <pt x="146" y="604" on="1"/>
        <pt x="305" y="367" on="1"/>
      </contour>
      <contour>
        <pt x="490" y="88" on="1"/>
        <pt x="490" y="562" on="1"/>
        <pt x="332" y="325" on="1"/>
      </contour>
      <contour>
        <pt x="462" y="47" on="1"/>
        <pt x="305" y="283" on="1"/>
        <pt x="146" y="47" on="1"/>
      </contour>
      <contour>
        <pt x="119" y="88" on="1"/>
        <pt x="276" y="325" on="1"/>
        <pt x="119" y="562" on="1"/>
      </contour>
    </TTGlyph>
    <TTGlyph name="A" xMin="2" yMin="0" xMax="591" yMax="663">
      <contour>
        <pt x="549" y="0" on="1"/>
        <pt x="542" y="0" on="0"/>
        <pt x="538" y="3" on="0"/>
        <pt x="536" y="8" on="1"/>
        <pt x="487" y="175" on="1"/>
        <pt x="146" y="175" on="1"/>
        <pt x="59" y="8" on="1"/>
        <pt x="56" y="3" on="0"/>
        <pt x="51" y="0" on="0"/>
        <pt x="44" y="0" on="1"/>
        <pt x="2" y="0" on="1"/>
        <pt x="347" y="663" on="1"/>
        <pt x="385" y="663" on="1"/>
        <pt x="391" y="663" on="0"/>
        <pt x="394" y="660" on="0"/>
        <pt x="396" y="655" on="1"/>
        <pt x="591" y="0" on="1"/>
      </contour>
      <contour>
        <pt x="475" y="218" on="1"/>
        <pt x="425" y="391" on="1"/>
        <pt x="408" y="452" on="0"/>
        <pt x="378" y="558" on="0"/>
        <pt x="364" y="610" on="1"/>
        <pt x="354" y="589" on="0"/>
        <pt x="328" y="536" on="0"/>
        <pt x="300" y="477" on="0"/>
        <pt x="270" y="417" on="0"/>
        <pt x="256" y="390" on="1"/>
        <pt x="168" y="218" on="1"/>
      </contour>
    </TTGlyph>
    <TTGlyph name="AE" xMin="-11" yMin="0" xMax="867" yMax="663">
      <contour>
        <pt x="407" y="0" on="1"/>
        <pt x="428" y="176" on="1"/>
        <pt x="171" y="176" on="1"/>
        <pt x="54" y="10" on="1"/>
        <pt x="49" y="2" on="0"/>
        <pt x="42" y="0" on="0"/>
        <pt x="32" y="0" on="1"/>
        <pt x="-11" y="0" on="1"/>
        <pt x="467" y="663" on="1"/>
        <pt x="867" y="663" on="1"/>
        <pt x="861" y="620" on="1"/>
        <pt x="534" y="620" on="1"/>
        <pt x="504" y="368" on="1"/>
        <pt x="803" y="368" on="1"/>
        <pt x="797" y="325" on="1"/>
        <pt x="498" y="325" on="1"/>
        <pt x="464" y="43" on="1"/>
        <pt x="805" y="43" on="1"/>
        <pt x="800" y="0" on="1"/>
      </contour>
      <contour>
        <pt x="202" y="218" on="1"/>
        <pt x="433" y="218" on="1"/>
        <pt x="481" y="610" on="1"/>
      </contour>
    </TTGlyph>
    <TTGlyph name="AEacute" xMin="-11" yMin="0" xMax="867" yMax="887">
      <component glyphName="AE" x="0" y="0" flags="0x204"/>
      <component glyphName="acute.cap" x="381" y="0" flags="0x4"/>
    </TTGlyph>
    <TTGlyph name="Aacute" xMin="2" yMin="0" xMax="591" yMax="887">
      <component glyphName="A" x="0" y="0" flags="0x204"/>
      <component glyphName="acute.cap" x="139" y="0" flags="0x4"/>
    </TTGlyph>
    <TTGlyph name="Abreve" xMin="2" yMin="0" xMax="591" yMax="849">
      <component glyphName="A" x="0" y="0" flags="0x204"/>
      <component glyphName="breve.cap" x="140" y="0" flags="0x4"/>
    </TTGlyph>
    <TTGlyph name="Acaron" xMin="2" yMin="0" xMax="591" yMax="877">
      <component glyphName="A" x="0" y="0" flags="0x204"/>
      <component glyphName="caron.cap" x="129" y="0" flags="0x4"/>
    </TTGlyph>
    <TTGlyph name="Acircumflex" xMin="2" yMin="0" xMax="591" yMax="866">
      <component glyphName="A" x="0" y="0" flags="0x204"/>
      <component glyphName="circumflex.cap" x="136" y="0" flags="0x4"/>
    </TTGlyph>
    <TTGlyph name="Adieresis" xMin="2" yMin="0" xMax="591" yMax="823">
      <component glyphName="A" x="0" y="0" flags="0x204"/>
      <component glyphName="dieresis.cap" x="134" y="0" flags="0x4"/>
    </TTGlyph>
    <TTGlyph name="Agrave" xMin="2" yMin="0" xMax="591" yMax="888">
      <component glyphName="A" x="0" y="0" flags="0x204"/>
      <component glyphName="grave.cap" x="130" y="0" flags="0x4"/>
    </TTGlyph>
    <TTGlyph name="Amacron" xMin="2" yMin="0" xMax="591" yMax="787">
      <component glyphName="A" x="0" y="0" flags="0x204"/>
      <component glyphName="macron.cap" x="139" y="0" flags="0x4"/>
    </TTGlyph>
    <TTGlyph name="Aogonek" xMin="2" yMin="-180" xMax="591" yMax="663">
      <contour>
        <pt x="418" y="-108" on="1"/>
        <pt x="418" y="-88" on="0"/>
        <pt x="439" y="-50" on="0"/>
        <pt x="473" y="-18" on="0"/>
        <pt x="514" y="6" on="0"/>
        <pt x="534" y="13" on="1"/>
        <pt x="487" y="175" on="1"/>
        <pt x="146" y="175" on="1"/>
        <pt x="59" y="8" on="1"/>
        <pt x="56" y="3" on="0"/>
        <pt x="51" y="0" on="0"/>
        <pt x="44" y="0" on="1"/>
        <pt x="2" y="0" on="1"/>
        <pt x="347" y="663" on="1"/>
        <pt x="385" y="663" on="1"/>
        <pt x="391" y="663" on="0"/>
        <pt x="394" y="660" on="0"/>
        <pt x="396" y="655" on="1"/>
        <pt x="591" y="0" on="1"/>
        <pt x="586" y="0" on="1"/>
        <pt x="567" y="0" on="0"/>
        <pt x="519" y="-21" on="0"/>
        <pt x="497" y="-42" on="1"/>
        <pt x="466" y="-73" on="0"/>
        <pt x="466" y="-103" on="1"/>
        <pt x="466" y="-142" on="0"/>
        <pt x="516" y="-142" on="1"/>
        <pt x="524" y="-142" on="0"/>
        <pt x="538" y="-141" on="0"/>
        <pt x="544" y="-140" on="1"/>
        <pt x="575" y="-135" on="1"/>
        <pt x="580" y="-160" on="1"/>
        <pt x="566" y="-169" on="0"/>
        <pt x="523" y="-180" on="0"/>
        <pt x="503" y="-180" on="1"/>
        <pt x="463" y="-180" on="0"/>
        <pt x="418" y="-137" on="0"/>
      </contour>
      <contour>
        <pt x="475" y="218" on="1"/>
        <pt x="425" y="391" on="1"/>
        <pt x="408" y="452" on="0"/>
        <pt x="378" y="558" on="0"/>
        <pt x="364" y="610" on="1"/>
        <pt x="354" y="589" on="0"/>
        <pt x="328" y="536" on="0"/>
        <pt x="300" y="477" on="0"/>
        <pt x="270" y="417" on="0"/>
        <pt x="256" y="390" on="1"/>
        <pt x="168" y="218" on="1"/>
      </contour>
    </TTGlyph>
    <TTGlyph name="Aring" xMin="2" yMin="0" xMax="591" yMax="829">
      <contour>
        <pt x="549" y="0" on="1"/>
        <pt x="542" y="0" on="0"/>
        <pt x="538" y="3" on="0"/>
        <pt x="536" y="8" on="1"/>
        <pt x="487" y="175" on="1"/>
        <pt x="146" y="175" on="1"/>
        <pt x="59" y="8" on="1"/>
        <pt x="56" y="3" on="0"/>
        <pt x="51" y="0" on="0"/>
        <pt x="44" y="0" on="1"/>
        <pt x="2" y="0" on="1"/>
        <pt x="338" y="646" on="1"/>
        <pt x="314" y="657" on="0"/>
        <pt x="283" y="702" on="0"/>
        <pt x="283" y="729" on="1"/>
        <pt x="283" y="749" on="0"/>
        <pt x="298" y="786" on="0"/>
        <pt x="325" y="813" on="0"/>
        <pt x="361" y="829" on="0"/>
        <pt x="382" y="829" on="1"/>
        <pt x="424" y="829" on="0"/>
        <pt x="473" y="775" on="0"/>
        <pt x="473" y="739" on="1"/>
        <pt x="473" y="706" on="0"/>
        <pt x="430" y="653" on="0"/>
        <pt x="399" y="643" on="1"/>
        <pt x="591" y="0" on="1"/>
      </contour>
      <contour>
        <pt x="475" y="218" on="1"/>
        <pt x="425" y="391" on="1"/>
        <pt x="408" y="452" on="0"/>
        <pt x="378" y="558" on="0"/>
        <pt x="364" y="610" on="1"/>
        <pt x="354" y="589" on="0"/>
        <pt x="328" y="536" on="0"/>
        <pt x="300" y="477" on="0"/>
        <pt x="270" y="417" on="0"/>
        <pt x="256" y="390" on="1"/>
        <pt x="168" y="218" on="1"/>
      </contour>
      <contour>
        <pt x="435" y="737" on="1"/>
        <pt x="435" y="757" on="0"/>
        <pt x="407" y="792" on="0"/>
        <pt x="381" y="792" on="1"/>
        <pt x="357" y="792" on="0"/>
        <pt x="322" y="760" on="0"/>
        <pt x="322" y="731" on="1"/>
        <pt x="322" y="711" on="0"/>
        <pt x="349" y="675" on="0"/>
        <pt x="375" y="675" on="1"/>
        <pt x="399" y="675" on="0"/>
        <pt x="435" y="708" on="0"/>
      </contour>
    </TTGlyph>
    <TTGlyph name="Aringacute" xMin="2" yMin="0" xMax="591" yMax="1005">
      <component glyphName="Aring" x="0" y="0" flags="0x204"/>
      <component glyphName="acute.cap" x="156" y="118" flags="0x4"/>
    </TTGlyph>
    <TTGlyph name="Atilde" xMin="2" yMin="0" xMax="591" yMax="828">
      <component glyphName="A" x="0" y="0" flags="0x204"/>
      <component glyphName="tilde.cap" x="135" y="0" flags="0x4"/>
    </TTGlyph>
    <TTGlyph name="B" xMin="53" yMin="0" xMax="527" yMax="663">
      <contour>
        <pt x="133" y="663" on="1"/>
        <pt x="337" y="663" on="1"/>
        <pt x="439" y="663" on="0"/>
        <pt x="481" y="624" on="1"/>
        <pt x="516" y="592" on="0"/>
        <pt x="516" y="531" on="1"/>
        <pt x="516" y="486" on="0"/>
        <pt x="464" y="389" on="0"/>
        <pt x="425" y="351" on="1"/>
        <pt x="425" y="350" on="1"/>
        <pt x="472" y="333" on="0"/>
        <pt x="527" y="264" on="0"/>
        <pt x="527" y="211" on="1"/>
        <pt x="527" y="166" on="0"/>
        <pt x="495" y="90" on="0"/>
        <pt x="466" y="61" on="1"/>
        <pt x="402" y="0" on="0"/>
        <pt x="278" y="0" on="1"/>
        <pt x="53" y="0" on="1"/>
      </contour>
      <contour>
        <pt x="110" y="44" on="1"/>
        <pt x="273" y="44" on="1"/>
        <pt x="328" y="44" on="0"/>
        <pt x="404" y="66" on="0"/>
        <pt x="429" y="90" on="1"/>
        <pt x="452" y="111" on="0"/>
        <pt x="475" y="176" on="0"/>
        <pt x="475" y="212" on="1"/>
        <pt x="475" y="266" on="0"/>
        <pt x="443" y="293" on="1"/>
        <pt x="424" y="309" on="0"/>
        <pt x="367" y="323" on="0"/>
        <pt x="322" y="323" on="1"/>
        <pt x="144" y="323" on="1"/>
      </contour>
      <contour>
        <pt x="150" y="365" on="1"/>
        <pt x="359" y="365" on="1"/>
        <pt x="376" y="365" on="0"/>
        <pt x="396" y="373" on="0"/>
        <pt x="406" y="384" on="1"/>
        <pt x="435" y="418" on="0"/>
        <pt x="466" y="496" on="0"/>
        <pt x="466" y="528" on="1"/>
        <pt x="466" y="575" on="0"/>
        <pt x="443" y="595" on="1"/>
        <pt x="427" y="609" on="0"/>
        <pt x="375" y="619" on="0"/>
        <pt x="336" y="619" on="1"/>
        <pt x="180" y="619" on="1"/>
      </contour>
    </TTGlyph>
    <TTGlyph name="C" xMin="53" yMin="-10" xMax="620" yMax="673">
      <contour>
        <pt x="592" y="85" on="1"/>
        <pt x="532" y="43" on="0"/>
        <pt x="392" y="-10" on="0"/>
        <pt x="327" y="-10" on="1"/>
        <pt x="264" y="-10" on="0"/>
        <pt x="163" y="34" on="0"/>
        <pt x="92" y="112" on="0"/>
        <pt x="53" y="220" on="0"/>
        <pt x="53" y="285" on="1"/>
        <pt x="53" y="366" on="0"/>
        <pt x="105" y="507" on="0"/>
        <pt x="196" y="612" on="0"/>
        <pt x="317" y="673" on="0"/>
        <pt x="386" y="673" on="1"/>
        <pt x="428" y="673" on="0"/>
        <pt x="501" y="647" on="0"/>
        <pt x="560" y="600" on="0"/>
        <pt x="605" y="537" on="0"/>
        <pt x="620" y="500" on="1"/>
        <pt x="585" y="485" on="1"/>
        <pt x="542" y="539" on="1"/>
        <pt x="507" y="584" on="0"/>
        <pt x="431" y="624" on="0"/>
        <pt x="379" y="624" on="1"/>
        <pt x="322" y="624" on="0"/>
        <pt x="222" y="573" on="0"/>
        <pt x="148" y="483" on="0"/>
        <pt x="106" y="360" on="0"/>
        <pt x="106" y="288" on="1"/>
        <pt x="106" y="232" on="0"/>
        <pt x="135" y="140" on="0"/>
        <pt x="192" y="75" on="0"/>
        <pt x="276" y="39" on="0"/>
        <pt x="330" y="39" on="1"/>
        <pt x="372" y="39" on="0"/>
        <pt x="461" y="65" on="0"/>
        <pt x="509" y="85" on="1"/>
        <pt x="574" y="113" on="1"/>
      </contour>
    </TTGlyph>
    <TTGlyph name="Cacute" xMin="53" yMin="-10" xMax="620" yMax="887">
      <component glyphName="C" x="0" y="0" flags="0x204"/>
      <component glyphName="acute.cap" x="161" y="0" flags="0x4"/>
    </TTGlyph>
    <TTGlyph name="Ccaron" xMin="53" yMin="-10" xMax="620" yMax="877">
      <component glyphName="C" x="0" y="0" flags="0x204"/>
      <component glyphName="caron.cap" x="147" y="0" flags="0x4"/>
    </TTGlyph>
    <TTGlyph name="Ccedilla" xMin="53" yMin="-209" xMax="620" yMax="673">
      <contour>
        <pt x="592" y="85" on="1"/>
        <pt x="532" y="43" on="0"/>
        <pt x="393" y="-9" on="0"/>
        <pt x="328" y="-10" on="1"/>
        <pt x="322" y="-21" on="0"/>
        <pt x="322" y="-31" on="1"/>
        <pt x="322" y="-42" on="0"/>
        <pt x="353" y="-56" on="0"/>
        <pt x="389" y="-74" on="0"/>
        <pt x="420" y="-102" on="0"/>
        <pt x="420" y="-125" on="1"/>
        <pt x="420" y="-145" on="0"/>
        <pt x="395" y="-174" on="0"/>
        <pt x="351" y="-195" on="0"/>
        <pt x="291" y="-207" on="0"/>
        <pt x="256" y="-209" on="1"/>
        <pt x="250" y="-181" on="1"/>
        <pt x="321" y="-164" on="1"/>
        <pt x="347" y="-158" on="0"/>
        <pt x="374" y="-143" on="0"/>
        <pt x="374" y="-131" on="1"/>
        <pt x="374" y="-119" on="0"/>
        <pt x="344" y="-101" on="0"/>
        <pt x="307" y="-84" on="0"/>
        <pt x="277" y="-63" on="0"/>
        <pt x="277" y="-48" on="1"/>
        <pt x="277" y="-31" on="0"/>
        <pt x="295" y="-8" on="1"/>
        <pt x="239" y="-3" on="0"/>
        <pt x="150" y="45" on="0"/>
        <pt x="87" y="121" on="0"/>
        <pt x="53" y="224" on="0"/>
        <pt x="53" y="285" on="1"/>
        <pt x="53" y="366" on="0"/>
        <pt x="105" y="507" on="0"/>
        <pt x="196" y="612" on="0"/>
        <pt x="317" y="673" on="0"/>
        <pt x="386" y="673" on="1"/>
        <pt x="428" y="673" on="0"/>
        <pt x="501" y="647" on="0"/>
        <pt x="560" y="600" on="0"/>
        <pt x="605" y="537" on="0"/>
        <pt x="620" y="500" on="1"/>
        <pt x="585" y="485" on="1"/>
        <pt x="542" y="539" on="1"/>
        <pt x="507" y="584" on="0"/>
        <pt x="431" y="624" on="0"/>
        <pt x="379" y="624" on="1"/>
        <pt x="322" y="624" on="0"/>
        <pt x="222" y="573" on="0"/>
        <pt x="148" y="483" on="0"/>
        <pt x="106" y="360" on="0"/>
        <pt x="106" y="288" on="1"/>
        <pt x="106" y="232" on="0"/>
        <pt x="135" y="140" on="0"/>
        <pt x="192" y="75" on="0"/>
        <pt x="276" y="39" on="0"/>
        <pt x="330" y="39" on="1"/>
        <pt x="372" y="39" on="0"/>
        <pt x="461" y="65" on="0"/>
        <pt x="509" y="85" on="1"/>
        <pt x="574" y="113" on="1"/>
      </contour>
    </TTGlyph>
    <TTGlyph name="Ccircumflex" xMin="53" yMin="-10" xMax="620" yMax="866">
      <component glyphName="C" x="0" y="0" flags="0x204"/>
      <component glyphName="circumflex.cap" x="156" y="0" flags="0x4"/>
    </TTGlyph>
    <TTGlyph name="Cdotaccent" xMin="53" yMin="-10" xMax="620" yMax="816">
      <component glyphName="C" x="0" y="0" flags="0x204"/>
      <component glyphName="dotaccent.cap" x="162" y="0" flags="0x4"/>
    </TTGlyph>
    <TTGlyph name="D" xMin="53" yMin="0" xMax="639" yMax="663">
      <contour>
        <pt x="133" y="663" on="1"/>
        <pt x="318" y="663" on="1"/>
        <pt x="399" y="663" on="0"/>
        <pt x="526" y="632" on="0"/>
        <pt x="568" y="591" on="1"/>
        <pt x="602" y="559" on="0"/>
        <pt x="639" y="459" on="0"/>
        <pt x="639" y="390" on="1"/>
        <pt x="639" y="299" on="0"/>
        <pt x="578" y="151" on="0"/>
        <pt x="524" y="99" on="1"/>
        <pt x="473" y="51" on="0"/>
        <pt x="336" y="0" on="0"/>
        <pt x="242" y="0" on="1"/>
        <pt x="53" y="0" on="1"/>
      </contour>
      <contour>
        <pt x="110" y="44" on="1"/>
        <pt x="229" y="44" on="1"/>
        <pt x="324" y="44" on="0"/>
        <pt x="450" y="89" on="0"/>
        <pt x="494" y="134" on="1"/>
        <pt x="539" y="180" on="0"/>
        <pt x="589" y="313" on="0"/>
        <pt x="589" y="393" on="1"/>
        <pt x="589" y="453" on="0"/>
        <pt x="559" y="536" on="0"/>
        <pt x="530" y="562" on="1"/>
        <pt x="495" y="594" on="0"/>
        <pt x="384" y="619" on="0"/>
        <pt x="307" y="619" on="1"/>
        <pt x="180" y="619" on="1"/>
      </contour>
    </TTGlyph>
    <TTGlyph name="Dcaron" xMin="53" yMin="0" xMax="639" yMax="877">
      <component glyphName="D" x="0" y="0" flags="0x4"/>
      <component glyphName="caron.cap" x="143" y="0" flags="0x4"/>
    </TTGlyph>
    <TTGlyph name="Dcroat" xMin="14" yMin="0" xMax="649" yMax="663">
      <contour>
        <pt x="101" y="320" on="1"/>
        <pt x="14" y="320" on="1"/>
        <pt x="18" y="361" on="1"/>
        <pt x="106" y="361" on="1"/>
        <pt x="143" y="663" on="1"/>
        <pt x="328" y="663" on="1"/>
        <pt x="409" y="663" on="0"/>
        <pt x="536" y="632" on="0"/>
        <pt x="578" y="591" on="1"/>
        <pt x="612" y="559" on="0"/>
        <pt x="649" y="459" on="0"/>
        <pt x="649" y="390" on="1"/>
        <pt x="649" y="299" on="0"/>
        <pt x="588" y="151" on="0"/>
        <pt x="534" y="99" on="1"/>
        <pt x="483" y="51" on="0"/>
        <pt x="346" y="0" on="0"/>
        <pt x="252" y="0" on="1"/>
        <pt x="63" y="0" on="1"/>
      </contour>
      <contour>
        <pt x="153" y="320" on="1"/>
        <pt x="120" y="43" on="1"/>
        <pt x="239" y="43" on="1"/>
        <pt x="334" y="43" on="0"/>
        <pt x="460" y="89" on="0"/>
        <pt x="504" y="134" on="1"/>
        <pt x="549" y="180" on="0"/>
        <pt x="599" y="313" on="0"/>
        <pt x="599" y="393" on="1"/>
        <pt x="599" y="453" on="0"/>
        <pt x="569" y="536" on="0"/>
        <pt x="540" y="562" on="1"/>
        <pt x="505" y="594" on="0"/>
        <pt x="394" y="619" on="0"/>
        <pt x="317" y="619" on="1"/>
        <pt x="190" y="619" on="1"/>
        <pt x="158" y="361" on="1"/>
        <pt x="327" y="361" on="1"/>
        <pt x="322" y="320" on="1"/>
      </contour>
    </TTGlyph>
    <TTGlyph name="Delta" xMin="2" yMin="0" xMax="561" yMax="663">
      <contour>
        <pt x="553" y="71" on="1"/>
        <pt x="558" y="55" on="0"/>
        <pt x="561" y="37" on="0"/>
        <pt x="559" y="26" on="1"/>
        <pt x="556" y="0" on="1"/>
        <pt x="2" y="0" on="1"/>
        <pt x="4" y="18" on="1"/>
        <pt x="6" y="35" on="0"/>
        <pt x="11" y="53" on="0"/>
        <pt x="21" y="71" on="1"/>
        <pt x="328" y="663" on="1"/>
        <pt x="370" y="663" on="1"/>
        <pt x="378" y="663" on="0"/>
        <pt x="381" y="659" on="0"/>
        <pt x="383" y="654" on="1"/>
      </contour>
      <contour>
        <pt x="403" y="409" on="1"/>
        <pt x="387" y="463" on="0"/>
        <pt x="360" y="565" on="0"/>
        <pt x="348" y="611" on="1"/>
        <pt x="328" y="570" on="0"/>
        <pt x="277" y="466" on="0"/>
        <pt x="249" y="411" on="1"/>
        <pt x="111" y="139" on="1"/>
        <pt x="99" y="116" on="0"/>
        <pt x="73" y="65" on="0"/>
        <pt x="60" y="43" on="1"/>
        <pt x="86" y="44" on="0"/>
        <pt x="141" y="44" on="0"/>
        <pt x="173" y="44" on="1"/>
        <pt x="376" y="44" on="1"/>
        <pt x="415" y="44" on="0"/>
        <pt x="483" y="44" on="0"/>
        <pt x="514" y="43" on="1"/>
        <pt x="503" y="73" on="0"/>
        <pt x="479" y="149" on="0"/>
        <pt x="468" y="185" on="1"/>
      </contour>
    </TTGlyph>
    <TTGlyph name="E" xMin="53" yMin="0" xMax="513" yMax="663">
      <contour>
        <pt x="513" y="663" on="1"/>
        <pt x="508" y="620" on="1"/>
        <pt x="180" y="620" on="1"/>
        <pt x="150" y="368" on="1"/>
        <pt x="449" y="368" on="1"/>
        <pt x="443" y="325" on="1"/>
        <pt x="144" y="325" on="1"/>
        <pt x="110" y="43" on="1"/>
        <pt x="451" y="43" on="1"/>
        <pt x="446" y="0" on="1"/>
        <pt x="53" y="0" on="1"/>
        <pt x="133" y="663" on="1"/>
      </contour>
    </TTGlyph>
    <TTGlyph name="Eacute" xMin="53" yMin="0" xMax="513" yMax="887">
      <component glyphName="E" x="0" y="0" flags="0x204"/>
      <component glyphName="acute.cap" x="102" y="0" flags="0x4"/>
    </TTGlyph>
    <TTGlyph name="Ebreve" xMin="53" yMin="0" xMax="513" yMax="849">
      <component glyphName="E" x="0" y="0" flags="0x204"/>
      <component glyphName="breve.cap" x="101" y="0" flags="0x4"/>
    </TTGlyph>
    <TTGlyph name="Ecaron" xMin="53" yMin="0" xMax="513" yMax="877">
      <component glyphName="E" x="0" y="0" flags="0x204"/>
      <component glyphName="caron.cap" x="93" y="0" flags="0x4"/>
    </TTGlyph>
    <TTGlyph name="Ecircumflex" xMin="53" yMin="0" xMax="513" yMax="866">
      <component glyphName="E" x="0" y="0" flags="0x204"/>
      <component glyphName="circumflex.cap" x="91" y="0" flags="0x4"/>
    </TTGlyph>
    <TTGlyph name="Edieresis" xMin="53" yMin="0" xMax="513" yMax="823">
      <component glyphName="E" x="0" y="0" flags="0x204"/>
      <component glyphName="dieresis.cap" x="95" y="0" flags="0x4"/>
    </TTGlyph>
    <TTGlyph name="Edotaccent" xMin="53" yMin="0" xMax="513" yMax="816">
      <component glyphName="E" x="0" y="0" flags="0x204"/>
      <component glyphName="dotaccent.cap" x="102" y="0" flags="0x4"/>
    </TTGlyph>
    <TTGlyph name="Egrave" xMin="53" yMin="0" xMax="513" yMax="888">
      <component glyphName="E" x="0" y="0" flags="0x204"/>
      <component glyphName="grave.cap" x="107" y="0" flags="0x4"/>
    </TTGlyph>
    <TTGlyph name="Emacron" xMin="53" yMin="0" xMax="513" yMax="787">
      <component glyphName="E" x="0" y="0" flags="0x204"/>
      <component glyphName="macron.cap" x="94" y="0" flags="0x4"/>
    </TTGlyph>
    <TTGlyph name="Eng" xMin="53" yMin="-198" xMax="672" yMax="663">
      <contour>
        <pt x="401" y="-156" on="1"/>
        <pt x="437" y="-156" on="0"/>
        <pt x="487" y="-138" on="0"/>
        <pt x="520" y="-98" on="0"/>
        <pt x="539" y="-34" on="0"/>
        <pt x="543" y="11" on="1"/>
        <pt x="257" y="447" on="1"/>
        <pt x="171" y="579" on="1"/>
        <pt x="103" y="0" on="1"/>
        <pt x="53" y="0" on="1"/>
        <pt x="133" y="663" on="1"/>
        <pt x="160" y="663" on="1"/>
        <pt x="170" y="663" on="0"/>
        <pt x="175" y="655" on="1"/>
        <pt x="464" y="216" on="1"/>
        <pt x="477" y="197" on="0"/>
        <pt x="504" y="156" on="0"/>
        <pt x="528" y="119" on="0"/>
        <pt x="548" y="88" on="0"/>
        <pt x="554" y="79" on="1"/>
        <pt x="622" y="663" on="1"/>
        <pt x="672" y="663" on="1"/>
        <pt x="589" y="-24" on="1"/>
        <pt x="584" y="-62" on="0"/>
        <pt x="561" y="-125" on="0"/>
        <pt x="519" y="-172" on="0"/>
        <pt x="455" y="-198" on="0"/>
        <pt x="410" y="-198" on="1"/>
        <pt x="390" y="-198" on="0"/>
        <pt x="337" y="-188" on="0"/>
        <pt x="320" y="-180" on="1"/>
        <pt x="329" y="-151" on="1"/>
        <pt x="346" y="-153" on="0"/>
        <pt x="386" y="-156" on="0"/>
      </contour>
    </TTGlyph>
    <TTGlyph name="Eogonek" xMin="53" yMin="-180" xMax="513" yMax="663">
      <contour>
        <pt x="513" y="663" on="1"/>
        <pt x="507" y="620" on="1"/>
        <pt x="180" y="620" on="1"/>
        <pt x="150" y="368" on="1"/>
        <pt x="449" y="368" on="1"/>
        <pt x="443" y="325" on="1"/>
        <pt x="144" y="325" on="1"/>
        <pt x="110" y="43" on="1"/>
        <pt x="451" y="43" on="1"/>
        <pt x="446" y="0" on="1"/>
        <pt x="434" y="0" on="1"/>
        <pt x="415" y="0" on="0"/>
        <pt x="367" y="-21" on="0"/>
        <pt x="345" y="-42" on="1"/>
        <pt x="314" y="-73" on="0"/>
        <pt x="314" y="-103" on="1"/>
        <pt x="314" y="-142" on="0"/>
        <pt x="364" y="-142" on="1"/>
        <pt x="372" y="-142" on="0"/>
        <pt x="386" y="-141" on="0"/>
        <pt x="392" y="-140" on="1"/>
        <pt x="423" y="-135" on="1"/>
        <pt x="428" y="-160" on="1"/>
        <pt x="414" y="-169" on="0"/>
        <pt x="371" y="-180" on="0"/>
        <pt x="351" y="-180" on="1"/>
        <pt x="311" y="-180" on="0"/>
        <pt x="266" y="-137" on="0"/>
        <pt x="266" y="-108" on="1"/>
        <pt x="266" y="-92" on="0"/>
        <pt x="281" y="-59" on="0"/>
        <pt x="307" y="-31" on="0"/>
        <pt x="339" y="-8" on="0"/>
        <pt x="356" y="0" on="1"/>
        <pt x="53" y="0" on="1"/>
        <pt x="133" y="663" on="1"/>
      </contour>
    </TTGlyph>
    <TTGlyph name="Eth" xMin="14" yMin="0" xMax="649" yMax="663">
      <contour>
        <pt x="101" y="320" on="1"/>
        <pt x="14" y="320" on="1"/>
        <pt x="18" y="361" on="1"/>
        <pt x="106" y="361" on="1"/>
        <pt x="143" y="663" on="1"/>
        <pt x="328" y="663" on="1"/>
        <pt x="409" y="663" on="0"/>
        <pt x="536" y="632" on="0"/>
        <pt x="578" y="591" on="1"/>
        <pt x="612" y="559" on="0"/>
        <pt x="649" y="459" on="0"/>
        <pt x="649" y="390" on="1"/>
        <pt x="649" y="299" on="0"/>
        <pt x="588" y="151" on="0"/>
        <pt x="534" y="99" on="1"/>
        <pt x="483" y="51" on="0"/>
        <pt x="346" y="0" on="0"/>
        <pt x="252" y="0" on="1"/>
        <pt x="63" y="0" on="1"/>
      </contour>
      <contour>
        <pt x="153" y="320" on="1"/>
        <pt x="120" y="43" on="1"/>
        <pt x="239" y="43" on="1"/>
        <pt x="334" y="43" on="0"/>
        <pt x="460" y="89" on="0"/>
        <pt x="504" y="134" on="1"/>
        <pt x="549" y="180" on="0"/>
        <pt x="599" y="313" on="0"/>
        <pt x="599" y="393" on="1"/>
        <pt x="599" y="453" on="0"/>
        <pt x="569" y="536" on="0"/>
        <pt x="540" y="562" on="1"/>
        <pt x="505" y="594" on="0"/>
        <pt x="394" y="619" on="0"/>
        <pt x="317" y="619" on="1"/>
        <pt x="190" y="619" on="1"/>
        <pt x="158" y="361" on="1"/>
        <pt x="327" y="361" on="1"/>
        <pt x="322" y="320" on="1"/>
      </contour>
    </TTGlyph>
    <TTGlyph name="Euro" xMin="38" yMin="-10" xMax="575" yMax="673">
      <contour>
        <pt x="526" y="56" on="1"/>
        <pt x="479" y="25" on="0"/>
        <pt x="377" y="-10" on="0"/>
        <pt x="330" y="-10" on="1"/>
        <pt x="282" y="-10" on="0"/>
        <pt x="204" y="27" on="0"/>
        <pt x="149" y="95" on="0"/>
        <pt x="119" y="190" on="0"/>
        <pt x="118" y="248" on="1"/>
        <pt x="38" y="248" on="1"/>
        <pt x="41" y="277" on="1"/>
        <pt x="118" y="284" on="1"/>
        <pt x="119" y="302" on="0"/>
        <pt x="124" y="345" on="0"/>
        <pt x="127" y="366" on="1"/>
        <pt x="50" y="366" on="1"/>
        <pt x="53" y="394" on="1"/>
        <pt x="134" y="402" on="1"/>
        <pt x="147" y="457" on="0"/>
        <pt x="197" y="555" on="0"/>
        <pt x="266" y="629" on="0"/>
        <pt x="350" y="673" on="0"/>
        <pt x="398" y="673" on="1"/>
        <pt x="458" y="673" on="0"/>
        <pt x="549" y="603" on="0"/>
        <pt x="575" y="549" on="1"/>
        <pt x="547" y="533" on="1"/>
        <pt x="506" y="573" on="1"/>
        <pt x="476" y="602" on="0"/>
        <pt x="427" y="629" on="0"/>
        <pt x="395" y="629" on="1"/>
        <pt x="355" y="629" on="0"/>
        <pt x="288" y="593" on="0"/>
        <pt x="235" y="531" on="0"/>
        <pt x="196" y="449" on="0"/>
        <pt x="185" y="404" on="1"/>
        <pt x="395" y="404" on="1"/>
        <pt x="390" y="366" on="1"/>
        <pt x="177" y="366" on="1"/>
        <pt x="174" y="347" on="0"/>
        <pt x="169" y="306" on="0"/>
        <pt x="168" y="287" on="1"/>
        <pt x="381" y="287" on="1"/>
        <pt x="376" y="248" on="1"/>
        <pt x="167" y="248" on="1"/>
        <pt x="169" y="148" on="0"/>
        <pt x="257" y="33" on="0"/>
        <pt x="338" y="33" on="1"/>
        <pt x="364" y="33" on="0"/>
        <pt x="426" y="49" on="0"/>
        <pt x="465" y="64" on="1"/>
        <pt x="512" y="82" on="1"/>
      </contour>
    </TTGlyph>
    <TTGlyph name="Euro.lprop" xMin="35" yMin="-10" xMax="572" yMax="673">
      <contour>
        <pt x="523" y="56" on="1"/>
        <pt x="476" y="25" on="0"/>
        <pt x="374" y="-10" on="0"/>
        <pt x="327" y="-10" on="1"/>
        <pt x="279" y="-10" on="0"/>
        <pt x="201" y="27" on="0"/>
        <pt x="146" y="95" on="0"/>
        <pt x="116" y="190" on="0"/>
        <pt x="115" y="248" on="1"/>
        <pt x="35" y="248" on="1"/>
        <pt x="38" y="277" on="1"/>
        <pt x="115" y="284" on="1"/>
        <pt x="116" y="302" on="0"/>
        <pt x="121" y="345" on="0"/>
        <pt x="124" y="366" on="1"/>
        <pt x="47" y="366" on="1"/>
        <pt x="50" y="394" on="1"/>
        <pt x="131" y="402" on="1"/>
        <pt x="144" y="457" on="0"/>
        <pt x="194" y="555" on="0"/>
        <pt x="263" y="629" on="0"/>
        <pt x="347" y="673" on="0"/>
        <pt x="395" y="673" on="1"/>
        <pt x="455" y="673" on="0"/>
        <pt x="546" y="603" on="0"/>
        <pt x="572" y="549" on="1"/>
        <pt x="544" y="533" on="1"/>
        <pt x="503" y="573" on="1"/>
        <pt x="473" y="602" on="0"/>
        <pt x="424" y="629" on="0"/>
        <pt x="392" y="629" on="1"/>
        <pt x="352" y="629" on="0"/>
        <pt x="285" y="593" on="0"/>
        <pt x="232" y="531" on="0"/>
        <pt x="193" y="449" on="0"/>
        <pt x="182" y="404" on="1"/>
        <pt x="392" y="404" on="1"/>
        <pt x="387" y="366" on="1"/>
        <pt x="174" y="366" on="1"/>
        <pt x="171" y="347" on="0"/>
        <pt x="166" y="306" on="0"/>
        <pt x="165" y="287" on="1"/>
        <pt x="378" y="287" on="1"/>
        <pt x="373" y="248" on="1"/>
        <pt x="164" y="248" on="1"/>
        <pt x="166" y="148" on="0"/>
        <pt x="254" y="33" on="0"/>
        <pt x="335" y="33" on="1"/>
        <pt x="361" y="33" on="0"/>
        <pt x="423" y="49" on="0"/>
        <pt x="462" y="64" on="1"/>
        <pt x="509" y="82" on="1"/>
      </contour>
    </TTGlyph>
    <TTGlyph name="Euro.oprop" xMin="30" yMin="-8" xMax="516" yMax="496">
      <contour>
        <pt x="499" y="65" on="1"/>
        <pt x="454" y="33" on="0"/>
        <pt x="348" y="-8" on="0"/>
        <pt x="295" y="-8" on="1"/>
        <pt x="251" y="-8" on="0"/>
        <pt x="181" y="21" on="0"/>
        <pt x="131" y="72" on="0"/>
        <pt x="101" y="141" on="0"/>
        <pt x="97" y="182" on="1"/>
        <pt x="30" y="182" on="1"/>
        <pt x="34" y="206" on="1"/>
        <pt x="96" y="214" on="1"/>
        <pt x="96" y="227" on="0"/>
        <pt x="98" y="251" on="0"/>
        <pt x="100" y="264" on="1"/>
        <pt x="40" y="264" on="1"/>
        <pt x="44" y="288" on="1"/>
        <pt x="107" y="297" on="1"/>
        <pt x="118" y="338" on="0"/>
        <pt x="161" y="411" on="0"/>
        <pt x="220" y="465" on="0"/>
        <pt x="294" y="496" on="0"/>
        <pt x="337" y="496" on="1"/>
        <pt x="402" y="496" on="0"/>
        <pt x="496" y="421" on="0"/>
        <pt x="516" y="367" on="1"/>
        <pt x="484" y="351" on="1"/>
        <pt x="461" y="377" on="1"/>
        <pt x="429" y="414" on="0"/>
        <pt x="373" y="452" on="0"/>
        <pt x="333" y="452" on="1"/>
        <pt x="274" y="452" on="0"/>
        <pt x="180" y="370" on="0"/>
        <pt x="160" y="300" on="1"/>
        <pt x="366" y="300" on="1"/>
        <pt x="362" y="264" on="1"/>
        <pt x="152" y="264" on="1"/>
        <pt x="148" y="244" on="0"/>
        <pt x="148" y="218" on="1"/>
        <pt x="356" y="218" on="1"/>
        <pt x="352" y="182" on="1"/>
        <pt x="149" y="182" on="1"/>
        <pt x="157" y="116" on="0"/>
        <pt x="234" y="36" on="0"/>
        <pt x="301" y="36" on="1"/>
        <pt x="328" y="36" on="0"/>
        <pt x="392" y="50" on="0"/>
        <pt x="428" y="66" on="1"/>
        <pt x="484" y="90" on="1"/>
      </contour>
    </TTGlyph>
    <TTGlyph name="Euro.otab" xMin="36" yMin="-8" xMax="522" yMax="496">
      <contour>
        <pt x="505" y="65" on="1"/>
        <pt x="460" y="33" on="0"/>
        <pt x="354" y="-8" on="0"/>
        <pt x="301" y="-8" on="1"/>
        <pt x="257" y="-8" on="0"/>
        <pt x="187" y="21" on="0"/>
        <pt x="137" y="72" on="0"/>
        <pt x="107" y="141" on="0"/>
        <pt x="103" y="182" on="1"/>
        <pt x="36" y="182" on="1"/>
        <pt x="40" y="206" on="1"/>
        <pt x="102" y="214" on="1"/>
        <pt x="102" y="227" on="0"/>
        <pt x="104" y="251" on="0"/>
        <pt x="106" y="264" on="1"/>
        <pt x="46" y="264" on="1"/>
        <pt x="50" y="288" on="1"/>
        <pt x="113" y="297" on="1"/>
        <pt x="124" y="338" on="0"/>
        <pt x="167" y="411" on="0"/>
        <pt x="226" y="465" on="0"/>
        <pt x="300" y="496" on="0"/>
        <pt x="343" y="496" on="1"/>
        <pt x="408" y="496" on="0"/>
        <pt x="502" y="421" on="0"/>
        <pt x="522" y="367" on="1"/>
        <pt x="490" y="351" on="1"/>
        <pt x="467" y="377" on="1"/>
        <pt x="435" y="414" on="0"/>
        <pt x="379" y="452" on="0"/>
        <pt x="339" y="452" on="1"/>
        <pt x="280" y="452" on="0"/>
        <pt x="186" y="370" on="0"/>
        <pt x="166" y="300" on="1"/>
        <pt x="372" y="300" on="1"/>
        <pt x="368" y="264" on="1"/>
        <pt x="158" y="264" on="1"/>
        <pt x="154" y="244" on="0"/>
        <pt x="154" y="218" on="1"/>
        <pt x="362" y="218" on="1"/>
        <pt x="358" y="182" on="1"/>
        <pt x="155" y="182" on="1"/>
        <pt x="163" y="116" on="0"/>
        <pt x="240" y="36" on="0"/>
        <pt x="307" y="36" on="1"/>
        <pt x="334" y="36" on="0"/>
        <pt x="398" y="50" on="0"/>
        <pt x="434" y="66" on="1"/>
        <pt x="490" y="90" on="1"/>
      </contour>
    </TTGlyph>
    <TTGlyph name="F" xMin="53" yMin="0" xMax="510" yMax="663">
      <contour>
        <pt x="510" y="663" on="1"/>
        <pt x="504" y="620" on="1"/>
        <pt x="180" y="620" on="1"/>
        <pt x="150" y="368" on="1"/>
        <pt x="445" y="368" on="1"/>
        <pt x="439" y="325" on="1"/>
        <pt x="144" y="325" on="1"/>
        <pt x="105" y="0" on="1"/>
        <pt x="53" y="0" on="1"/>
        <pt x="133" y="663" on="1"/>
      </contour>
    </TTGlyph>
    <TTGlyph name="G" xMin="53" yMin="-10" xMax="646" yMax="673">
      <contour>
        <pt x="586" y="275" on="1"/>
        <pt x="455" y="275" on="1"/>
        <pt x="460" y="315" on="1"/>
        <pt x="627" y="315" on="1"/>
        <pt x="633" y="315" on="0"/>
        <pt x="639" y="311" on="0"/>
        <pt x="638" y="303" on="1"/>
        <pt x="601" y="0" on="1"/>
        <pt x="571" y="0" on="1"/>
        <pt x="563" y="61" on="1"/>
        <pt x="532" y="46" on="1"/>
        <pt x="476" y="19" on="0"/>
        <pt x="374" y="-10" on="0"/>
        <pt x="326" y="-10" on="1"/>
        <pt x="261" y="-10" on="0"/>
        <pt x="160" y="37" on="0"/>
        <pt x="90" y="119" on="0"/>
        <pt x="53" y="227" on="0"/>
        <pt x="53" y="289" on="1"/>
        <pt x="53" y="370" on="0"/>
        <pt x="108" y="510" on="0"/>
        <pt x="201" y="614" on="0"/>
        <pt x="326" y="673" on="0"/>
        <pt x="397" y="673" on="1"/>
        <pt x="481" y="673" on="0"/>
        <pt x="608" y="585" on="0"/>
        <pt x="646" y="504" on="1"/>
        <pt x="613" y="485" on="1"/>
        <pt x="563" y="542" on="1"/>
        <pt x="525" y="585" on="0"/>
        <pt x="446" y="624" on="0"/>
        <pt x="392" y="624" on="1"/>
        <pt x="333" y="624" on="0"/>
        <pt x="229" y="577" on="0"/>
        <pt x="151" y="489" on="0"/>
        <pt x="106" y="365" on="0"/>
        <pt x="106" y="289" on="1"/>
        <pt x="106" y="232" on="0"/>
        <pt x="137" y="139" on="0"/>
        <pt x="196" y="74" on="0"/>
        <pt x="282" y="38" on="0"/>
        <pt x="337" y="38" on="1"/>
        <pt x="385" y="38" on="0"/>
        <pt x="500" y="71" on="0"/>
        <pt x="553" y="100" on="1"/>
        <pt x="561" y="105" on="0"/>
        <pt x="565" y="112" on="0"/>
        <pt x="566" y="118" on="1"/>
      </contour>
    </TTGlyph>
    <TTGlyph name="Gbreve" xMin="53" yMin="-10" xMax="646" yMax="849">
      <component glyphName="G" x="0" y="0" flags="0x204"/>
      <component glyphName="breve.cap" x="178" y="0" flags="0x4"/>
    </TTGlyph>
    <TTGlyph name="Gcircumflex" xMin="53" yMin="-10" xMax="646" yMax="866">
      <component glyphName="G" x="0" y="0" flags="0x204"/>
      <component glyphName="circumflex.cap" x="171" y="0" flags="0x4"/>
    </TTGlyph>
    <TTGlyph name="Gcommaaccent" xMin="53" yMin="-250" xMax="646" yMax="673">
      <component glyphName="G" x="0" y="0" flags="0x204"/>
      <component glyphName="commaaccent" x="166" y="0" flags="0x4"/>
    </TTGlyph>
    <TTGlyph name="Gdotaccent" xMin="53" yMin="-10" xMax="646" yMax="816">
      <component glyphName="G" x="0" y="0" flags="0x204"/>
      <component glyphName="dotaccent.cap" x="170" y="0" flags="0x4"/>
    </TTGlyph>
    <TTGlyph name="H" xMin="53" yMin="0" xMax="634" yMax="663">
      <contour>
        <pt x="541" y="324" on="1"/>
        <pt x="144" y="324" on="1"/>
        <pt x="105" y="0" on="1"/>
        <pt x="53" y="0" on="1"/>
        <pt x="133" y="663" on="1"/>
        <pt x="185" y="663" on="1"/>
        <pt x="150" y="369" on="1"/>
        <pt x="546" y="369" on="1"/>
        <pt x="582" y="663" on="1"/>
        <pt x="634" y="663" on="1"/>
        <pt x="554" y="0" on="1"/>
        <pt x="502" y="0" on="1"/>
      </contour>
    </TTGlyph>
    <TTGlyph name="Hbar" xMin="53" yMin="0" xMax="701" yMax="663">
      <contour>
        <pt x="549" y="324" on="1"/>
        <pt x="152" y="324" on="1"/>
        <pt x="113" y="0" on="1"/>
        <pt x="61" y="0" on="1"/>
        <pt x="123" y="520" on="1"/>
        <pt x="53" y="520" on="1"/>
        <pt x="57" y="559" on="1"/>
        <pt x="128" y="559" on="1"/>
        <pt x="141" y="663" on="1"/>
        <pt x="193" y="663" on="1"/>
        <pt x="180" y="559" on="1"/>
        <pt x="577" y="559" on="1"/>
        <pt x="590" y="663" on="1"/>
        <pt x="642" y="663" on="1"/>
        <pt x="629" y="559" on="1"/>
        <pt x="701" y="559" on="1"/>
        <pt x="697" y="520" on="1"/>
        <pt x="624" y="520" on="1"/>
        <pt x="562" y="0" on="1"/>
        <pt x="510" y="0" on="1"/>
      </contour>
      <contour>
        <pt x="554" y="369" on="1"/>
        <pt x="572" y="520" on="1"/>
        <pt x="176" y="520" on="1"/>
        <pt x="158" y="369" on="1"/>
      </contour>
    </TTGlyph>
    <TTGlyph name="Hcircumflex" xMin="53" yMin="0" xMax="634" yMax="866">
      <component glyphName="H" x="0" y="0" flags="0x204"/>
      <component glyphName="circumflex.cap" x="150" y="0" flags="0x4"/>
    </TTGlyph>
    <TTGlyph name="I" xMin="55" yMin="0" xMax="187" yMax="663">
      <contour>
        <pt x="107" y="0" on="1"/>
        <pt x="55" y="0" on="1"/>
        <pt x="135" y="663" on="1"/>
        <pt x="187" y="663" on="1"/>
      </contour>
    </TTGlyph>
    <TTGlyph name="IJ" xMin="55" yMin="-10" xMax="639" yMax="663">
      <component glyphName="I" x="0" y="0" flags="0x4"/>
      <component glyphName="J" x="215" y="0" flags="0x4"/>
    </TTGlyph>
    <TTGlyph name="Iacute" xMin="55" yMin="0" xMax="324" yMax="887">
      <component glyphName="I" x="0" y="0" flags="0x204"/>
      <component glyphName="acute.cap" x="-41" y="0" flags="0x4"/>
    </TTGlyph>
    <TTGlyph name="Ibreve" xMin="45" yMin="0" xMax="322" yMax="849">
      <component glyphName="I" x="0" y="0" flags="0x204"/>
      <component glyphName="breve.cap" x="-66" y="0" flags="0x4"/>
    </TTGlyph>
    <TTGlyph name="Icircumflex" xMin="22" yMin="0" xMax="314" yMax="866">
      <component glyphName="I" x="0" y="0" flags="0x204"/>
      <component glyphName="circumflex.cap" x="-71" y="0" flags="0x4"/>
    </TTGlyph>
    <TTGlyph name="Idieresis" xMin="55" yMin="0" xMax="298" yMax="823">
      <component glyphName="I" x="0" y="0" flags="0x204"/>
      <component glyphName="dieresis.cap" x="-66" y="0" flags="0x4"/>
    </TTGlyph>
    <TTGlyph name="Idotaccent" xMin="55" yMin="0" xMax="220" yMax="816">
      <component glyphName="I" x="0" y="0" flags="0x204"/>
      <component glyphName="dotaccent.cap" x="-63" y="0" flags="0x4"/>
    </TTGlyph>
    <TTGlyph name="Igrave" xMin="48" yMin="0" xMax="258" yMax="888">
      <component glyphName="I" x="0" y="0" flags="0x204"/>
      <component glyphName="grave.cap" x="-81" y="0" flags="0x4"/>
    </TTGlyph>
    <TTGlyph name="Imacron" xMin="36" yMin="0" xMax="314" yMax="787">
      <component glyphName="I" x="0" y="0" flags="0x204"/>
      <component glyphName="macron.cap" x="-64" y="0" flags="0x4"/>
    </TTGlyph>
    <TTGlyph name="Iogonek" xMin="-34" yMin="-180" xMax="187" yMax="663">
      <contour>
        <pt x="107" y="0" on="1"/>
        <pt x="59" y="-23" on="0"/>
        <pt x="14" y="-77" on="0"/>
        <pt x="14" y="-103" on="1"/>
        <pt x="14" y="-142" on="0"/>
        <pt x="64" y="-142" on="1"/>
        <pt x="72" y="-142" on="0"/>
        <pt x="86" y="-141" on="0"/>
        <pt x="92" y="-140" on="1"/>
        <pt x="123" y="-135" on="1"/>
        <pt x="128" y="-160" on="1"/>
        <pt x="114" y="-169" on="0"/>
        <pt x="71" y="-180" on="0"/>
        <pt x="51" y="-180" on="1"/>
        <pt x="11" y="-180" on="0"/>
        <pt x="-34" y="-137" on="0"/>
        <pt x="-34" y="-108" on="1"/>
        <pt x="-34" y="-92" on="0"/>
        <pt x="-19" y="-60" on="0"/>
        <pt x="6" y="-33" on="0"/>
        <pt x="38" y="-9" on="0"/>
        <pt x="55" y="0" on="1"/>
        <pt x="135" y="663" on="1"/>
        <pt x="187" y="663" on="1"/>
      </contour>
    </TTGlyph>
    <TTGlyph name="Itilde" xMin="27" yMin="0" xMax="330" yMax="828">
      <component glyphName="I" x="0" y="0" flags="0x204"/>
      <component glyphName="tilde.cap" x="-65" y="0" flags="0x4"/>
    </TTGlyph>
    <TTGlyph name="J" xMin="-4" yMin="-10" xMax="424" yMax="663">
      <contour>
        <pt x="9" y="60" on="1"/>
        <pt x="47" y="52" on="1"/>
        <pt x="91" y="43" on="0"/>
        <pt x="147" y="35" on="0"/>
        <pt x="170" y="35" on="1"/>
        <pt x="236" y="35" on="0"/>
        <pt x="270" y="69" on="1"/>
        <pt x="290" y="89" on="0"/>
        <pt x="311" y="153" on="0"/>
        <pt x="316" y="198" on="1"/>
        <pt x="372" y="663" on="1"/>
        <pt x="424" y="663" on="1"/>
        <pt x="368" y="198" on="1"/>
        <pt x="361" y="144" on="0"/>
        <pt x="334" y="68" on="0"/>
        <pt x="308" y="42" on="1"/>
        <pt x="284" y="17" on="0"/>
        <pt x="214" y="-10" on="0"/>
        <pt x="169" y="-10" on="1"/>
        <pt x="130" y="-10" on="0"/>
        <pt x="39" y="13" on="0"/>
        <pt x="-4" y="31" on="1"/>
      </contour>
    </TTGlyph>
    <TTGlyph name="Jcircumflex" xMin="-4" yMin="-10" xMax="543" yMax="866">
      <component glyphName="J" x="0" y="0" flags="0x204"/>
      <component glyphName="circumflex.cap" x="158" y="0" flags="0x4"/>
    </TTGlyph>
    <TTGlyph name="K" xMin="53" yMin="0" xMax="601" yMax="668">
      <contour>
        <pt x="328" y="397" on="1"/>
        <pt x="553" y="0" on="1"/>
        <pt x="509" y="0" on="1"/>
        <pt x="501" y="0" on="0"/>
        <pt x="495" y="3" on="0"/>
        <pt x="491" y="9" on="1"/>
        <pt x="290" y="365" on="1"/>
        <pt x="273" y="351" on="0"/>
        <pt x="232" y="318" on="0"/>
        <pt x="190" y="286" on="0"/>
        <pt x="150" y="256" on="0"/>
        <pt x="135" y="246" on="1"/>
        <pt x="105" y="0" on="1"/>
        <pt x="53" y="0" on="1"/>
        <pt x="133" y="663" on="1"/>
        <pt x="185" y="663" on="1"/>
        <pt x="140" y="293" on="1"/>
        <pt x="571" y="668" on="1"/>
        <pt x="601" y="634" on="1"/>
      </contour>
    </TTGlyph>
    <TTGlyph name="Kcommaaccent" xMin="53" yMin="-250" xMax="601" yMax="668">
      <component glyphName="K" x="0" y="0" flags="0x204"/>
      <component glyphName="commaaccent" x="126" y="0" flags="0x4"/>
    </TTGlyph>
    <TTGlyph name="L" xMin="53" yMin="0" xMax="437" yMax="663">
      <contour>
        <pt x="133" y="663" on="1"/>
        <pt x="185" y="663" on="1"/>
        <pt x="110" y="43" on="1"/>
        <pt x="437" y="43" on="1"/>
        <pt x="432" y="0" on="1"/>
        <pt x="53" y="0" on="1"/>
      </contour>
    </TTGlyph>
    <TTGlyph name="Lacute" xMin="53" yMin="0" xMax="437" yMax="887">
      <component glyphName="L" x="0" y="0" flags="0x204"/>
      <component glyphName="acute.cap" x="-43" y="0" flags="0x4"/>
    </TTGlyph>
    <TTGlyph name="Lcaron" xMin="53" yMin="0" xMax="437" yMax="663">
      <component glyphName="L" x="0" y="0" flags="0x204"/>
      <component glyphName="commaaccent" x="199" y="721" flags="0x4"/>
    </TTGlyph>
    <TTGlyph name="Lcommaaccent" xMin="53" yMin="-250" xMax="437" yMax="663">
      <component glyphName="L" x="0" y="0" flags="0x204"/>
      <component glyphName="commaaccent" x="86" y="0" flags="0x4"/>
    </TTGlyph>
    <TTGlyph name="Ldot" xMin="53" yMin="0" xMax="437" yMax="663">
      <component glyphName="L" x="0" y="0" flags="0x204"/>
      <component glyphName="dotaccent" x="132" y="-247" flags="0x4"/>
    </TTGlyph>
    <TTGlyph name="Lslash" xMin="16" yMin="0" xMax="480" yMax="663">
      <contour>
        <pt x="186" y="317" on="1"/>
        <pt x="153" y="43" on="1"/>
        <pt x="480" y="43" on="1"/>
        <pt x="475" y="0" on="1"/>
        <pt x="96" y="0" on="1"/>
        <pt x="130" y="283" on="1"/>
        <pt x="39" y="224" on="1"/>
        <pt x="16" y="261" on="1"/>
        <pt x="136" y="338" on="1"/>
        <pt x="176" y="663" on="1"/>
        <pt x="228" y="663" on="1"/>
        <pt x="193" y="372" on="1"/>
        <pt x="373" y="489" on="1"/>
        <pt x="395" y="453" on="1"/>
      </contour>
    </TTGlyph>
    <TTGlyph name="M" xMin="53" yMin="0" xMax="762" yMax="663">
      <contour>
        <pt x="704" y="587" on="1"/>
        <pt x="696" y="577" on="0"/>
        <pt x="675" y="549" on="0"/>
        <pt x="651" y="518" on="0"/>
        <pt x="627" y="488" on="0"/>
        <pt x="618" y="476" on="1"/>
        <pt x="415" y="228" on="1"/>
        <pt x="385" y="228" on="1"/>
        <pt x="377" y="228" on="0"/>
        <pt x="371" y="232" on="0"/>
        <pt x="368" y="237" on="1"/>
        <pt x="229" y="478" on="1"/>
        <pt x="209" y="513" on="0"/>
        <pt x="183" y="562" on="0"/>
        <pt x="172" y="585" on="1"/>
        <pt x="103" y="0" on="1"/>
        <pt x="53" y="0" on="1"/>
        <pt x="133" y="663" on="1"/>
        <pt x="168" y="663" on="1"/>
        <pt x="175" y="663" on="0"/>
        <pt x="180" y="660" on="0"/>
        <pt x="183" y="655" on="1"/>
        <pt x="399" y="277" on="1"/>
        <pt x="706" y="655" on="1"/>
        <pt x="711" y="660" on="0"/>
        <pt x="716" y="663" on="0"/>
        <pt x="724" y="663" on="1"/>
        <pt x="762" y="663" on="1"/>
        <pt x="683" y="0" on="1"/>
        <pt x="633" y="0" on="1"/>
      </contour>
    </TTGlyph>
    <TTGlyph name="N" xMin="53" yMin="0" xMax="672" yMax="663">
      <contour>
        <pt x="622" y="663" on="1"/>
        <pt x="672" y="663" on="1"/>
        <pt x="592" y="0" on="1"/>
        <pt x="561" y="0" on="1"/>
        <pt x="551" y="0" on="0"/>
        <pt x="546" y="8" on="1"/>
        <pt x="257" y="447" on="1"/>
        <pt x="171" y="580" on="1"/>
        <pt x="103" y="0" on="1"/>
        <pt x="53" y="0" on="1"/>
        <pt x="133" y="663" on="1"/>
        <pt x="160" y="663" on="1"/>
        <pt x="170" y="663" on="0"/>
        <pt x="175" y="655" on="1"/>
        <pt x="464" y="216" on="1"/>
        <pt x="475" y="199" on="0"/>
        <pt x="502" y="158" on="0"/>
        <pt x="527" y="119" on="0"/>
        <pt x="548" y="87" on="0"/>
        <pt x="554" y="78" on="1"/>
      </contour>
    </TTGlyph>
    <TTGlyph name="Nacute" xMin="53" yMin="0" xMax="672" yMax="887">
      <component glyphName="N" x="0" y="0" flags="0x204"/>
      <component glyphName="acute.cap" x="202" y="0" flags="0x4"/>
    </TTGlyph>
    <TTGlyph name="Ncaron" xMin="53" yMin="0" xMax="672" yMax="877">
      <component glyphName="N" x="0" y="0" flags="0x204"/>
      <component glyphName="caron.cap" x="173" y="0" flags="0x4"/>
    </TTGlyph>
    <TTGlyph name="Ncommaaccent" xMin="53" yMin="-250" xMax="672" yMax="663">
      <component glyphName="N" x="0" y="0" flags="0x204"/>
      <component glyphName="commaaccent" x="165" y="0" flags="0x4"/>
    </TTGlyph>
    <TTGlyph name="Ntilde" xMin="53" yMin="0" xMax="672" yMax="828">
      <component glyphName="N" x="0" y="0" flags="0x204"/>
      <component glyphName="tilde.cap" x="179" y="0" flags="0x4"/>
    </TTGlyph>
    <TTGlyph name="O" xMin="53" yMin="-10" xMax="671" yMax="673">
      <contour>
        <pt x="338" y="39" on="1"/>
        <pt x="398" y="39" on="0"/>
        <pt x="501" y="89" on="0"/>
        <pt x="577" y="177" on="0"/>
        <pt x="621" y="296" on="0"/>
        <pt x="621" y="365" on="1"/>
        <pt x="621" y="426" on="0"/>
        <pt x="586" y="522" on="0"/>
        <pt x="523" y="589" on="0"/>
        <pt x="437" y="624" on="0"/>
        <pt x="386" y="624" on="1"/>
        <pt x="326" y="624" on="0"/>
        <pt x="223" y="574" on="0"/>
        <pt x="147" y="486" on="0"/>
        <pt x="103" y="367" on="0"/>
        <pt x="103" y="298" on="1"/>
        <pt x="103" y="237" on="0"/>
        <pt x="138" y="141" on="0"/>
        <pt x="201" y="74" on="0"/>
        <pt x="287" y="39" on="0"/>
      </contour>
      <contour>
        <pt x="335" y="-10" on="1"/>
        <pt x="274" y="-10" on="0"/>
        <pt x="171" y="36" on="0"/>
        <pt x="96" y="118" on="0"/>
        <pt x="53" y="229" on="0"/>
        <pt x="53" y="294" on="1"/>
        <pt x="53" y="370" on="0"/>
        <pt x="104" y="508" on="0"/>
        <pt x="194" y="612" on="0"/>
        <pt x="317" y="673" on="0"/>
        <pt x="389" y="673" on="1"/>
        <pt x="450" y="673" on="0"/>
        <pt x="553" y="627" on="0"/>
        <pt x="628" y="545" on="0"/>
        <pt x="671" y="434" on="0"/>
        <pt x="671" y="369" on="1"/>
        <pt x="671" y="293" on="0"/>
        <pt x="620" y="155" on="0"/>
        <pt x="530" y="51" on="0"/>
        <pt x="407" y="-10" on="0"/>
      </contour>
    </TTGlyph>
    <TTGlyph name="OE" xMin="53" yMin="-10" xMax="1035" yMax="673">
      <contour>
        <pt x="1035" y="663" on="1"/>
        <pt x="1029" y="620" on="1"/>
        <pt x="702" y="620" on="1"/>
        <pt x="672" y="368" on="1"/>
        <pt x="971" y="368" on="1"/>
        <pt x="965" y="325" on="1"/>
        <pt x="666" y="325" on="1"/>
        <pt x="632" y="43" on="1"/>
        <pt x="973" y="43" on="1"/>
        <pt x="968" y="0" on="1"/>
        <pt x="575" y="0" on="1"/>
        <pt x="591" y="132" on="1"/>
        <pt x="548" y="69" on="0"/>
        <pt x="416" y="-10" on="0"/>
        <pt x="335" y="-10" on="1"/>
        <pt x="274" y="-10" on="0"/>
        <pt x="171" y="36" on="0"/>
        <pt x="96" y="118" on="0"/>
        <pt x="53" y="229" on="0"/>
        <pt x="53" y="294" on="1"/>
        <pt x="53" y="370" on="0"/>
        <pt x="104" y="508" on="0"/>
        <pt x="194" y="612" on="0"/>
        <pt x="317" y="673" on="0"/>
        <pt x="389" y="673" on="1"/>
        <pt x="431" y="673" on="0"/>
        <pt x="508" y="648" on="0"/>
        <pt x="572" y="604" on="0"/>
        <pt x="621" y="542" on="0"/>
        <pt x="636" y="506" on="1"/>
        <pt x="655" y="663" on="1"/>
      </contour>
      <contour>
        <pt x="338" y="40" on="1"/>
        <pt x="398" y="40" on="0"/>
        <pt x="499" y="90" on="0"/>
        <pt x="573" y="177" on="0"/>
        <pt x="615" y="296" on="0"/>
        <pt x="615" y="365" on="1"/>
        <pt x="615" y="426" on="0"/>
        <pt x="581" y="522" on="0"/>
        <pt x="521" y="588" on="0"/>
        <pt x="437" y="623" on="0"/>
        <pt x="386" y="623" on="1"/>
        <pt x="326" y="623" on="0"/>
        <pt x="224" y="573" on="0"/>
        <pt x="149" y="486" on="0"/>
        <pt x="106" y="367" on="0"/>
        <pt x="106" y="298" on="1"/>
        <pt x="106" y="237" on="0"/>
        <pt x="141" y="141" on="0"/>
        <pt x="202" y="75" on="0"/>
        <pt x="287" y="40" on="0"/>
      </contour>
    </TTGlyph>
    <TTGlyph name="Oacute" xMin="53" yMin="-10" xMax="671" yMax="887">
      <component glyphName="O" x="0" y="0" flags="0x204"/>
      <component glyphName="acute.cap" x="178" y="0" flags="0x4"/>
    </TTGlyph>
    <TTGlyph name="Obreve" xMin="53" yMin="-10" xMax="671" yMax="849">
      <component glyphName="O" x="0" y="0" flags="0x204"/>
      <component glyphName="breve.cap" x="172" y="0" flags="0x4"/>
    </TTGlyph>
    <TTGlyph name="Ocircumflex" xMin="53" yMin="-10" xMax="671" yMax="866">
      <component glyphName="O" x="0" y="0" flags="0x204"/>
      <component glyphName="circumflex.cap" x="167" y="0" flags="0x4"/>
    </TTGlyph>
    <TTGlyph name="Odieresis" xMin="53" yMin="-10" xMax="671" yMax="823">
      <component glyphName="O" x="0" y="0" flags="0x204"/>
      <component glyphName="dieresis.cap" x="161" y="0" flags="0x4"/>
    </TTGlyph>
    <TTGlyph name="Ograve" xMin="53" yMin="-10" xMax="671" yMax="888">
      <component glyphName="O" x="0" y="0" flags="0x204"/>
      <component glyphName="grave.cap" x="187" y="0" flags="0x4"/>
    </TTGlyph>
    <TTGlyph name="Ohungarumlaut" xMin="53" yMin="-10" xMax="671" yMax="912">
      <component glyphName="O" x="0" y="0" flags="0x204"/>
      <component glyphName="hungarumlaut.cap" x="160" y="0" flags="0x4"/>
    </TTGlyph>
    <TTGlyph name="Omacron" xMin="53" yMin="-10" xMax="671" yMax="787">
      <component glyphName="O" x="0" y="0" flags="0x204"/>
      <component glyphName="macron.cap" x="167" y="0" flags="0x4"/>
    </TTGlyph>
    <TTGlyph name="Omega" xMin="60" yMin="0" xMax="641" yMax="673">
      <contour>
        <pt x="368" y="24" on="1"/>
        <pt x="370" y="33" on="0"/>
        <pt x="374" y="43" on="0"/>
        <pt x="383" y="54" on="1"/>
        <pt x="455" y="140" on="1"/>
        <pt x="485" y="175" on="0"/>
        <pt x="534" y="242" on="0"/>
        <pt x="569" y="309" on="0"/>
        <pt x="589" y="379" on="0"/>
        <pt x="589" y="417" on="1"/>
        <pt x="589" y="466" on="0"/>
        <pt x="558" y="543" on="0"/>
        <pt x="503" y="597" on="0"/>
        <pt x="425" y="625" on="0"/>
        <pt x="378" y="625" on="1"/>
        <pt x="327" y="625" on="0"/>
        <pt x="237" y="587" on="0"/>
        <pt x="170" y="518" on="0"/>
        <pt x="131" y="423" on="0"/>
        <pt x="131" y="365" on="1"/>
        <pt x="131" y="333" on="0"/>
        <pt x="140" y="280" on="0"/>
        <pt x="159" y="226" on="0"/>
        <pt x="189" y="166" on="0"/>
        <pt x="210" y="129" on="1"/>
        <pt x="254" y="52" on="1"/>
        <pt x="259" y="43" on="0"/>
        <pt x="262" y="33" on="0"/>
        <pt x="261" y="24" on="1"/>
        <pt x="258" y="0" on="1"/>
        <pt x="60" y="0" on="1"/>
        <pt x="66" y="43" on="1"/>
        <pt x="215" y="43" on="1"/>
        <pt x="178" y="101" on="1"/>
        <pt x="135" y="168" on="0"/>
        <pt x="79" y="295" on="0"/>
        <pt x="79" y="368" on="1"/>
        <pt x="79" y="427" on="0"/>
        <pt x="123" y="537" on="0"/>
        <pt x="203" y="622" on="0"/>
        <pt x="313" y="673" on="0"/>
        <pt x="379" y="673" on="1"/>
        <pt x="439" y="673" on="0"/>
        <pt x="535" y="632" on="0"/>
        <pt x="604" y="563" on="0"/>
        <pt x="641" y="471" on="0"/>
        <pt x="641" y="419" on="1"/>
        <pt x="641" y="338" on="0"/>
        <pt x="552" y="185" on="0"/>
        <pt x="472" y="99" on="1"/>
        <pt x="420" y="43" on="1"/>
        <pt x="569" y="43" on="1"/>
        <pt x="563" y="0" on="1"/>
        <pt x="365" y="0" on="1"/>
      </contour>
    </TTGlyph>
    <TTGlyph name="Oslash" xMin="50" yMin="-45" xMax="675" yMax="704">
      <contour>
        <pt x="335" y="-10" on="1"/>
        <pt x="284" y="-10" on="0"/>
        <pt x="197" y="20" on="0"/>
        <pt x="162" y="49" on="1"/>
        <pt x="85" y="-45" on="1"/>
        <pt x="50" y="-17" on="1"/>
        <pt x="130" y="81" on="1"/>
        <pt x="94" y="122" on="0"/>
        <pt x="53" y="230" on="0"/>
        <pt x="53" y="294" on="1"/>
        <pt x="53" y="370" on="0"/>
        <pt x="104" y="508" on="0"/>
        <pt x="194" y="612" on="0"/>
        <pt x="317" y="673" on="0"/>
        <pt x="389" y="673" on="1"/>
        <pt x="440" y="673" on="0"/>
        <pt x="528" y="640" on="0"/>
        <pt x="564" y="611" on="1"/>
        <pt x="640" y="704" on="1"/>
        <pt x="675" y="676" on="1"/>
        <pt x="596" y="579" on="1"/>
        <pt x="631" y="538" on="0"/>
        <pt x="671" y="432" on="0"/>
        <pt x="671" y="369" on="1"/>
        <pt x="671" y="293" on="0"/>
        <pt x="620" y="155" on="0"/>
        <pt x="530" y="51" on="0"/>
        <pt x="407" y="-10" on="0"/>
      </contour>
      <contour>
        <pt x="106" y="298" on="1"/>
        <pt x="106" y="242" on="0"/>
        <pt x="136" y="153" on="0"/>
        <pt x="162" y="121" on="1"/>
        <pt x="532" y="572" on="1"/>
        <pt x="503" y="596" on="0"/>
        <pt x="429" y="623" on="0"/>
        <pt x="386" y="623" on="1"/>
        <pt x="326" y="623" on="0"/>
        <pt x="224" y="573" on="0"/>
        <pt x="149" y="486" on="0"/>
        <pt x="106" y="367" on="0"/>
      </contour>
      <contour>
        <pt x="338" y="40" on="1"/>
        <pt x="398" y="40" on="0"/>
        <pt x="500" y="90" on="0"/>
        <pt x="575" y="177" on="0"/>
        <pt x="618" y="296" on="0"/>
        <pt x="618" y="365" on="1"/>
        <pt x="618" y="419" on="0"/>
        <pt x="588" y="507" on="0"/>
        <pt x="563" y="539" on="1"/>
        <pt x="194" y="88" on="1"/>
        <pt x="253" y="40" on="0"/>
      </contour>
    </TTGlyph>
    <TTGlyph name="Oslashacute" xMin="50" yMin="-45" xMax="675" yMax="887">
      <component glyphName="Oslash" x="0" y="0" flags="0x204"/>
      <component glyphName="acute.cap" x="181" y="0" flags="0x4"/>
    </TTGlyph>
    <TTGlyph name="Otilde" xMin="53" yMin="-10" xMax="671" yMax="828">
      <component glyphName="O" x="0" y="0" flags="0x204"/>
      <component glyphName="tilde.cap" x="164" y="0" flags="0x4"/>
    </TTGlyph>
    <TTGlyph name="P" xMin="53" yMin="0" xMax="553" yMax="663">
      <contour>
        <pt x="105" y="0" on="1"/>
        <pt x="53" y="0" on="1"/>
        <pt x="133" y="663" on="1"/>
        <pt x="349" y="663" on="1"/>
        <pt x="405" y="663" on="0"/>
        <pt x="483" y="638" on="0"/>
        <pt x="508" y="614" on="1"/>
        <pt x="531" y="591" on="0"/>
        <pt x="553" y="527" on="0"/>
        <pt x="553" y="489" on="1"/>
        <pt x="553" y="439" on="0"/>
        <pt x="518" y="335" on="0"/>
        <pt x="484" y="296" on="1"/>
        <pt x="459" y="267" on="0"/>
        <pt x="406" y="244" on="0"/>
        <pt x="361" y="244" on="1"/>
        <pt x="134" y="244" on="1"/>
      </contour>
      <contour>
        <pt x="139" y="286" on="1"/>
        <pt x="363" y="286" on="1"/>
        <pt x="400" y="286" on="0"/>
        <pt x="438" y="304" on="0"/>
        <pt x="456" y="330" on="1"/>
        <pt x="477" y="360" on="0"/>
        <pt x="502" y="442" on="0"/>
        <pt x="502" y="486" on="1"/>
        <pt x="502" y="550" on="0"/>
        <pt x="472" y="582" on="1"/>
        <pt x="452" y="603" on="0"/>
        <pt x="390" y="620" on="0"/>
        <pt x="342" y="620" on="1"/>
        <pt x="180" y="620" on="1"/>
      </contour>
    </TTGlyph>
    <TTGlyph name="Q" xMin="53" yMin="-163" xMax="671" yMax="673">
      <contour>
        <pt x="335" y="-10" on="1"/>
        <pt x="274" y="-10" on="0"/>
        <pt x="171" y="36" on="0"/>
        <pt x="96" y="118" on="0"/>
        <pt x="53" y="229" on="0"/>
        <pt x="53" y="294" on="1"/>
        <pt x="53" y="370" on="0"/>
        <pt x="104" y="508" on="0"/>
        <pt x="194" y="612" on="0"/>
        <pt x="317" y="673" on="0"/>
        <pt x="389" y="673" on="1"/>
        <pt x="450" y="673" on="0"/>
        <pt x="553" y="627" on="0"/>
        <pt x="628" y="545" on="0"/>
        <pt x="671" y="434" on="0"/>
        <pt x="671" y="369" on="1"/>
        <pt x="671" y="315" on="0"/>
        <pt x="645" y="215" on="0"/>
        <pt x="598" y="127" on="0"/>
        <pt x="531" y="56" on="0"/>
        <pt x="490" y="32" on="1"/>
        <pt x="596" y="-139" on="1"/>
        <pt x="552" y="-163" on="1"/>
        <pt x="449" y="12" on="1"/>
        <pt x="396" y="-10" on="0"/>
      </contour>
      <contour>
        <pt x="338" y="39" on="1"/>
        <pt x="398" y="39" on="0"/>
        <pt x="501" y="89" on="0"/>
        <pt x="577" y="177" on="0"/>
        <pt x="621" y="296" on="0"/>
        <pt x="621" y="365" on="1"/>
        <pt x="621" y="426" on="0"/>
        <pt x="586" y="522" on="0"/>
        <pt x="523" y="589" on="0"/>
        <pt x="437" y="624" on="0"/>
        <pt x="386" y="624" on="1"/>
        <pt x="326" y="624" on="0"/>
        <pt x="223" y="574" on="0"/>
        <pt x="147" y="486" on="0"/>
        <pt x="103" y="367" on="0"/>
        <pt x="103" y="298" on="1"/>
        <pt x="103" y="237" on="0"/>
        <pt x="138" y="141" on="0"/>
        <pt x="201" y="74" on="0"/>
        <pt x="287" y="39" on="0"/>
      </contour>
    </TTGlyph>
    <TTGlyph name="R" xMin="53" yMin="0" xMax="552" yMax="663">
      <contour>
        <pt x="487" y="0" on="1"/>
        <pt x="479" y="0" on="0"/>
        <pt x="473" y="3" on="0"/>
        <pt x="471" y="8" on="1"/>
        <pt x="368" y="250" on="1"/>
        <pt x="365" y="258" on="0"/>
        <pt x="358" y="261" on="0"/>
        <pt x="349" y="261" on="1"/>
        <pt x="136" y="261" on="1"/>
        <pt x="105" y="0" on="1"/>
        <pt x="53" y="0" on="1"/>
        <pt x="133" y="663" on="1"/>
        <pt x="355" y="663" on="1"/>
        <pt x="408" y="663" on="0"/>
        <pt x="481" y="640" on="0"/>
        <pt x="507" y="617" on="1"/>
        <pt x="552" y="574" on="0"/>
        <pt x="552" y="494" on="1"/>
        <pt x="552" y="458" on="0"/>
        <pt x="534" y="388" on="0"/>
        <pt x="498" y="327" on="0"/>
        <pt x="447" y="278" on="0"/>
        <pt x="414" y="264" on="1"/>
        <pt x="530" y="0" on="1"/>
      </contour>
      <contour>
        <pt x="360" y="303" on="1"/>
        <pt x="393" y="303" on="0"/>
        <pt x="434" y="320" on="0"/>
        <pt x="452" y="343" on="1"/>
        <pt x="476" y="373" on="0"/>
        <pt x="501" y="451" on="0"/>
        <pt x="501" y="493" on="1"/>
        <pt x="501" y="557" on="0"/>
        <pt x="469" y="588" on="1"/>
        <pt x="451" y="605" on="0"/>
        <pt x="393" y="620" on="0"/>
        <pt x="348" y="620" on="1"/>
        <pt x="180" y="620" on="1"/>
        <pt x="142" y="303" on="1"/>
      </contour>
    </TTGlyph>
    <TTGlyph name="Racute" xMin="53" yMin="0" xMax="552" yMax="887">
      <component glyphName="R" x="0" y="0" flags="0x204"/>
      <component glyphName="acute.cap" x="121" y="0" flags="0x4"/>
    </TTGlyph>
    <TTGlyph name="Rcaron" xMin="53" yMin="0" xMax="552" yMax="877">
      <component glyphName="R" x="0" y="0" flags="0x204"/>
      <component glyphName="caron.cap" x="107" y="0" flags="0x4"/>
    </TTGlyph>
    <TTGlyph name="Rcommaaccent" xMin="53" yMin="-250" xMax="552" yMax="663">
      <component glyphName="R" x="0" y="0" flags="0x204"/>
      <component glyphName="commaaccent" x="107" y="0" flags="0x4"/>
    </TTGlyph>
    <TTGlyph name="S" xMin="18" yMin="-10" xMax="490" yMax="673">
      <contour>
        <pt x="32" y="74" on="1"/>
        <pt x="91" y="58" on="1"/>
        <pt x="131" y="47" on="0"/>
        <pt x="204" y="36" on="0"/>
        <pt x="237" y="36" on="1"/>
        <pt x="274" y="36" on="0"/>
        <pt x="341" y="55" on="0"/>
        <pt x="391" y="94" on="0"/>
        <pt x="421" y="151" on="0"/>
        <pt x="421" y="189" on="1"/>
        <pt x="421" y="212" on="0"/>
        <pt x="407" y="248" on="0"/>
        <pt x="377" y="281" on="0"/>
        <pt x="328" y="312" on="0"/>
        <pt x="293" y="330" on="1"/>
        <pt x="235" y="359" on="1"/>
        <pt x="163" y="395" on="0"/>
        <pt x="91" y="466" on="0"/>
        <pt x="91" y="521" on="1"/>
        <pt x="91" y="592" on="0"/>
        <pt x="209" y="673" on="0"/>
        <pt x="310" y="673" on="1"/>
        <pt x="331" y="673" on="0"/>
        <pt x="378" y="668" on="0"/>
        <pt x="426" y="660" on="0"/>
        <pt x="471" y="649" on="0"/>
        <pt x="490" y="643" on="1"/>
        <pt x="482" y="613" on="1"/>
        <pt x="436" y="618" on="1"/>
        <pt x="401" y="622" on="0"/>
        <pt x="335" y="627" on="0"/>
        <pt x="307" y="627" on="1"/>
        <pt x="271" y="627" on="0"/>
        <pt x="209" y="616" on="0"/>
        <pt x="164" y="590" on="0"/>
        <pt x="139" y="550" on="0"/>
        <pt x="139" y="522" on="1"/>
        <pt x="139" y="503" on="0"/>
        <pt x="152" y="472" on="0"/>
        <pt x="182" y="444" on="0"/>
        <pt x="229" y="415" on="0"/>
        <pt x="262" y="399" on="1"/>
        <pt x="314" y="373" on="1"/>
        <pt x="355" y="353" on="0"/>
        <pt x="414" y="313" on="0"/>
        <pt x="452" y="271" on="0"/>
        <pt x="470" y="222" on="0"/>
        <pt x="470" y="193" on="1"/>
        <pt x="470" y="149" on="0"/>
        <pt x="437" y="75" on="0"/>
        <pt x="377" y="21" on="0"/>
        <pt x="290" y="-10" on="0"/>
        <pt x="236" y="-10" on="1"/>
        <pt x="210" y="-10" on="0"/>
        <pt x="153" y="-2" on="0"/>
        <pt x="96" y="13" on="0"/>
        <pt x="41" y="33" on="0"/>
        <pt x="18" y="45" on="1"/>
      </contour>
    </TTGlyph>
    <TTGlyph name="Sacute" xMin="18" yMin="-10" xMax="490" yMax="887">
      <component glyphName="S" x="0" y="0" flags="0x204"/>
      <component glyphName="acute.cap" x="93" y="0" flags="0x4"/>
    </TTGlyph>
    <TTGlyph name="Scaron" xMin="18" yMin="-10" xMax="490" yMax="877">
      <component glyphName="S" x="0" y="0" flags="0x204"/>
      <component glyphName="caron.cap" x="79" y="0" flags="0x4"/>
    </TTGlyph>
    <TTGlyph name="Scedilla" xMin="18" yMin="-209" xMax="490" yMax="673">
      <contour>
        <pt x="32" y="74" on="1"/>
        <pt x="91" y="58" on="1"/>
        <pt x="131" y="47" on="0"/>
        <pt x="204" y="36" on="0"/>
        <pt x="237" y="36" on="1"/>
        <pt x="274" y="36" on="0"/>
        <pt x="341" y="55" on="0"/>
        <pt x="391" y="94" on="0"/>
        <pt x="421" y="151" on="0"/>
        <pt x="421" y="189" on="1"/>
        <pt x="421" y="212" on="0"/>
        <pt x="407" y="248" on="0"/>
        <pt x="377" y="281" on="0"/>
        <pt x="328" y="312" on="0"/>
        <pt x="293" y="330" on="1"/>
        <pt x="235" y="359" on="1"/>
        <pt x="163" y="395" on="0"/>
        <pt x="91" y="466" on="0"/>
        <pt x="91" y="521" on="1"/>
        <pt x="91" y="592" on="0"/>
        <pt x="209" y="673" on="0"/>
        <pt x="310" y="673" on="1"/>
        <pt x="331" y="673" on="0"/>
        <pt x="378" y="668" on="0"/>
        <pt x="426" y="660" on="0"/>
        <pt x="471" y="649" on="0"/>
        <pt x="490" y="643" on="1"/>
        <pt x="482" y="613" on="1"/>
        <pt x="436" y="618" on="1"/>
        <pt x="401" y="622" on="0"/>
        <pt x="335" y="627" on="0"/>
        <pt x="307" y="627" on="1"/>
        <pt x="271" y="627" on="0"/>
        <pt x="209" y="616" on="0"/>
        <pt x="164" y="590" on="0"/>
        <pt x="139" y="550" on="0"/>
        <pt x="139" y="522" on="1"/>
        <pt x="139" y="503" on="0"/>
        <pt x="152" y="472" on="0"/>
        <pt x="182" y="444" on="0"/>
        <pt x="229" y="415" on="0"/>
        <pt x="262" y="399" on="1"/>
        <pt x="314" y="373" on="1"/>
        <pt x="355" y="353" on="0"/>
        <pt x="414" y="313" on="0"/>
        <pt x="452" y="271" on="0"/>
        <pt x="470" y="222" on="0"/>
        <pt x="470" y="193" on="1"/>
        <pt x="470" y="149" on="0"/>
        <pt x="438" y="76" on="0"/>
        <pt x="378" y="22" on="0"/>
        <pt x="293" y="-9" on="0"/>
        <pt x="240" y="-10" on="1"/>
        <pt x="234" y="-21" on="0"/>
        <pt x="234" y="-31" on="1"/>
        <pt x="234" y="-42" on="0"/>
        <pt x="265" y="-56" on="0"/>
        <pt x="301" y="-74" on="0"/>
        <pt x="332" y="-102" on="0"/>
        <pt x="332" y="-125" on="1"/>
        <pt x="332" y="-145" on="0"/>
        <pt x="307" y="-174" on="0"/>
        <pt x="263" y="-195" on="0"/>
        <pt x="203" y="-207" on="0"/>
        <pt x="168" y="-209" on="1"/>
        <pt x="162" y="-181" on="1"/>
        <pt x="233" y="-164" on="1"/>
        <pt x="259" y="-158" on="0"/>
        <pt x="286" y="-143" on="0"/>
        <pt x="286" y="-131" on="1"/>
        <pt x="286" y="-119" on="0"/>
        <pt x="256" y="-101" on="0"/>
        <pt x="219" y="-84" on="0"/>
        <pt x="189" y="-63" on="0"/>
        <pt x="189" y="-48" on="1"/>
        <pt x="189" y="-30" on="0"/>
        <pt x="206" y="-8" on="1"/>
        <pt x="158" y="-4" on="0"/>
        <pt x="57" y="24" on="0"/>
        <pt x="18" y="45" on="1"/>
      </contour>
    </TTGlyph>
    <TTGlyph name="Scircumflex" xMin="18" yMin="-10" xMax="490" yMax="866">
      <component glyphName="S" x="0" y="0" flags="0x204"/>
      <component glyphName="circumflex.cap" x="85" y="0" flags="0x4"/>
    </TTGlyph>
    <TTGlyph name="Scommaaccent" xMin="18" yMin="-250" xMax="490" yMax="673">
      <component glyphName="S" x="0" y="0" flags="0x204"/>
      <component glyphName="commaaccent" x="82" y="0" flags="0x4"/>
    </TTGlyph>
    <TTGlyph name="T" xMin="75" yMin="0" xMax="569" yMax="663">
      <contour>
        <pt x="293" y="620" on="1"/>
        <pt x="75" y="620" on="1"/>
        <pt x="81" y="663" on="1"/>
        <pt x="569" y="663" on="1"/>
        <pt x="563" y="620" on="1"/>
        <pt x="345" y="620" on="1"/>
        <pt x="271" y="0" on="1"/>
        <pt x="219" y="0" on="1"/>
      </contour>
    </TTGlyph>
    <TTGlyph name="Tbar" xMin="75" yMin="0" xMax="569" yMax="663">
      <contour>
        <pt x="256" y="314" on="1"/>
        <pt x="112" y="314" on="1"/>
        <pt x="116" y="353" on="1"/>
        <pt x="261" y="353" on="1"/>
        <pt x="293" y="620" on="1"/>
        <pt x="75" y="620" on="1"/>
        <pt x="81" y="663" on="1"/>
        <pt x="569" y="663" on="1"/>
        <pt x="563" y="620" on="1"/>
        <pt x="345" y="620" on="1"/>
        <pt x="313" y="353" on="1"/>
        <pt x="458" y="353" on="1"/>
        <pt x="453" y="314" on="1"/>
        <pt x="308" y="314" on="1"/>
        <pt x="271" y="0" on="1"/>
        <pt x="219" y="0" on="1"/>
      </contour>
    </TTGlyph>
    <TTGlyph name="Tcaron" xMin="75" yMin="0" xMax="569" yMax="877">
      <component glyphName="T" x="0" y="0" flags="0x204"/>
      <component glyphName="caron.cap" x="79" y="0" flags="0x4"/>
    </TTGlyph>
    <TTGlyph name="Tcommaaccent" xMin="75" yMin="-250" xMax="569" yMax="663">
      <component glyphName="T" x="0" y="0" flags="0x204"/>
      <component glyphName="commaaccent" x="74" y="0" flags="0x4"/>
    </TTGlyph>
    <TTGlyph name="Thorn" xMin="53" yMin="0" xMax="539" yMax="663">
      <contour>
        <pt x="105" y="0" on="1"/>
        <pt x="53" y="0" on="1"/>
        <pt x="133" y="663" on="1"/>
        <pt x="185" y="663" on="1"/>
        <pt x="171" y="547" on="1"/>
        <pt x="335" y="547" on="1"/>
        <pt x="391" y="547" on="0"/>
        <pt x="469" y="522" on="0"/>
        <pt x="494" y="498" on="1"/>
        <pt x="517" y="475" on="0"/>
        <pt x="539" y="411" on="0"/>
        <pt x="539" y="373" on="1"/>
        <pt x="539" y="323" on="0"/>
        <pt x="504" y="219" on="0"/>
        <pt x="470" y="180" on="1"/>
        <pt x="445" y="151" on="0"/>
        <pt x="392" y="128" on="0"/>
        <pt x="347" y="128" on="1"/>
        <pt x="120" y="128" on="1"/>
      </contour>
      <contour>
        <pt x="126" y="171" on="1"/>
        <pt x="349" y="171" on="1"/>
        <pt x="386" y="171" on="0"/>
        <pt x="424" y="188" on="0"/>
        <pt x="442" y="214" on="1"/>
        <pt x="463" y="244" on="0"/>
        <pt x="488" y="324" on="0"/>
        <pt x="488" y="368" on="1"/>
        <pt x="488" y="433" on="0"/>
        <pt x="458" y="465" on="1"/>
        <pt x="438" y="486" on="0"/>
        <pt x="376" y="502" on="0"/>
        <pt x="328" y="502" on="1"/>
        <pt x="165" y="502" on="1"/>
      </contour>
    </TTGlyph>
    <TTGlyph name="U" xMin="77" yMin="-10" xMax="625" yMax="663">
      <contour>
        <pt x="625" y="663" on="1"/>
        <pt x="578" y="271" on="1"/>
        <pt x="569" y="195" on="0"/>
        <pt x="525" y="92" on="0"/>
        <pt x="488" y="57" on="1"/>
        <pt x="453" y="24" on="0"/>
        <pt x="357" y="-10" on="0"/>
        <pt x="303" y="-10" on="1"/>
        <pt x="250" y="-10" on="0"/>
        <pt x="166" y="21" on="0"/>
        <pt x="108" y="77" on="0"/>
        <pt x="77" y="156" on="0"/>
        <pt x="77" y="204" on="1"/>
        <pt x="77" y="228" on="0"/>
        <pt x="81" y="284" on="0"/>
        <pt x="86" y="322" on="1"/>
        <pt x="127" y="663" on="1"/>
        <pt x="179" y="663" on="1"/>
        <pt x="137" y="317" on="1"/>
        <pt x="132" y="281" on="0"/>
        <pt x="128" y="226" on="0"/>
        <pt x="128" y="202" on="1"/>
        <pt x="128" y="128" on="0"/>
        <pt x="218" y="38" on="0"/>
        <pt x="306" y="38" on="1"/>
        <pt x="352" y="38" on="0"/>
        <pt x="435" y="69" on="0"/>
        <pt x="463" y="99" on="1"/>
        <pt x="514" y="155" on="0"/>
        <pt x="529" y="276" on="1"/>
        <pt x="576" y="663" on="1"/>
      </contour>
    </TTGlyph>
    <TTGlyph name="Uacute" xMin="77" yMin="-10" xMax="625" yMax="887">
      <component glyphName="U" x="0" y="0" flags="0x204"/>
      <component glyphName="acute.cap" x="170" y="0" flags="0x4"/>
    </TTGlyph>
    <TTGlyph name="Ubreve" xMin="77" yMin="-10" xMax="625" yMax="849">
      <component glyphName="U" x="0" y="0" flags="0x204"/>
      <component glyphName="breve.cap" x="150" y="0" flags="0x4"/>
    </TTGlyph>
    <TTGlyph name="Ucircumflex" xMin="77" yMin="-10" xMax="625" yMax="866">
      <component glyphName="U" x="0" y="0" flags="0x204"/>
      <component glyphName="circumflex.cap" x="147" y="0" flags="0x4"/>
    </TTGlyph>
    <TTGlyph name="Udieresis" xMin="77" yMin="-10" xMax="625" yMax="823">
      <component glyphName="U" x="0" y="0" flags="0x204"/>
      <component glyphName="dieresis.cap" x="146" y="0" flags="0x4"/>
    </TTGlyph>
    <TTGlyph name="Ugrave" xMin="77" yMin="-10" xMax="625" yMax="888">
      <component glyphName="U" x="0" y="0" flags="0x204"/>
      <component glyphName="grave.cap" x="128" y="0" flags="0x4"/>
    </TTGlyph>
    <TTGlyph name="Uhungarumlaut" xMin="77" yMin="-10" xMax="625" yMax="912">
      <component glyphName="U" x="0" y="0" flags="0x204"/>
      <component glyphName="hungarumlaut.cap" x="170" y="0" flags="0x4"/>
    </TTGlyph>
    <TTGlyph name="Umacron" xMin="77" yMin="-10" xMax="625" yMax="787">
      <component glyphName="U" x="0" y="0" flags="0x204"/>
      <component glyphName="macron.cap" x="149" y="0" flags="0x4"/>
    </TTGlyph>
    <TTGlyph name="Uogonek" xMin="77" yMin="-180" xMax="625" yMax="663">
      <contour>
        <pt x="332" y="-8" on="1"/>
        <pt x="326" y="-9" on="0"/>
        <pt x="307" y="-10" on="0"/>
        <pt x="300" y="-10" on="1"/>
        <pt x="249" y="-10" on="0"/>
        <pt x="167" y="21" on="0"/>
        <pt x="108" y="77" on="0"/>
        <pt x="77" y="156" on="0"/>
        <pt x="77" y="204" on="1"/>
        <pt x="77" y="228" on="0"/>
        <pt x="81" y="284" on="0"/>
        <pt x="86" y="322" on="1"/>
        <pt x="127" y="663" on="1"/>
        <pt x="179" y="663" on="1"/>
        <pt x="137" y="317" on="1"/>
        <pt x="132" y="281" on="0"/>
        <pt x="128" y="226" on="0"/>
        <pt x="128" y="202" on="1"/>
        <pt x="128" y="127" on="0"/>
        <pt x="220" y="38" on="0"/>
        <pt x="306" y="38" on="1"/>
        <pt x="352" y="38" on="0"/>
        <pt x="436" y="69" on="0"/>
        <pt x="464" y="99" on="1"/>
        <pt x="490" y="128" on="0"/>
        <pt x="521" y="214" on="0"/>
        <pt x="529" y="276" on="1"/>
        <pt x="576" y="663" on="1"/>
        <pt x="625" y="663" on="1"/>
        <pt x="578" y="271" on="1"/>
        <pt x="570" y="206" on="0"/>
        <pt x="536" y="112" on="0"/>
        <pt x="508" y="78" on="1"/>
        <pt x="493" y="59" on="0"/>
        <pt x="430" y="14" on="0"/>
        <pt x="385" y="-10" on="1"/>
        <pt x="337" y="-36" on="0"/>
        <pt x="292" y="-76" on="0"/>
        <pt x="292" y="-99" on="1"/>
        <pt x="292" y="-119" on="0"/>
        <pt x="318" y="-142" on="0"/>
        <pt x="342" y="-142" on="1"/>
        <pt x="352" y="-142" on="0"/>
        <pt x="385" y="-138" on="0"/>
        <pt x="401" y="-135" on="1"/>
        <pt x="406" y="-160" on="1"/>
        <pt x="392" y="-168" on="0"/>
        <pt x="348" y="-180" on="0"/>
        <pt x="329" y="-180" on="1"/>
        <pt x="290" y="-180" on="0"/>
        <pt x="244" y="-138" on="0"/>
        <pt x="244" y="-108" on="1"/>
        <pt x="244" y="-76" on="0"/>
        <pt x="294" y="-27" on="0"/>
      </contour>
    </TTGlyph>
    <TTGlyph name="Uring" xMin="77" yMin="-10" xMax="625" yMax="923">
      <component glyphName="U" x="0" y="0" flags="0x204"/>
      <component glyphName="ring.cap" x="150" y="0" flags="0x4"/>
    </TTGlyph>
    <TTGlyph name="Utilde" xMin="77" yMin="-10" xMax="625" yMax="828">
      <component glyphName="U" x="0" y="0" flags="0x204"/>
      <component glyphName="tilde.cap" x="142" y="0" flags="0x4"/>
    </TTGlyph>
    <TTGlyph name="V" xMin="68" yMin="0" xMax="642" yMax="663">
      <contour>
        <pt x="110" y="663" on="1"/>
        <pt x="117" y="663" on="0"/>
        <pt x="121" y="660" on="0"/>
        <pt x="123" y="655" on="1"/>
        <pt x="228" y="269" on="1"/>
        <pt x="236" y="239" on="0"/>
        <pt x="253" y="179" on="0"/>
        <pt x="268" y="122" on="0"/>
        <pt x="281" y="73" on="0"/>
        <pt x="286" y="55" on="1"/>
        <pt x="302" y="89" on="0"/>
        <pt x="358" y="200" on="0"/>
        <pt x="387" y="259" on="1"/>
        <pt x="585" y="655" on="1"/>
        <pt x="588" y="660" on="0"/>
        <pt x="593" y="663" on="0"/>
        <pt x="599" y="663" on="1"/>
        <pt x="642" y="663" on="1"/>
        <pt x="305" y="0" on="1"/>
        <pt x="264" y="0" on="1"/>
        <pt x="258" y="0" on="0"/>
        <pt x="254" y="3" on="0"/>
        <pt x="252" y="8" on="1"/>
        <pt x="68" y="663" on="1"/>
      </contour>
    </TTGlyph>
    <TTGlyph name="W" xMin="75" yMin="0" xMax="952" yMax="663">
      <contour>
        <pt x="526" y="663" on="1"/>
        <pt x="537" y="663" on="0"/>
        <pt x="538" y="655" on="1"/>
        <pt x="611" y="280" on="1"/>
        <pt x="654" y="59" on="1"/>
        <pt x="670" y="100" on="0"/>
        <pt x="718" y="217" on="0"/>
        <pt x="744" y="280" on="1"/>
        <pt x="896" y="655" on="1"/>
        <pt x="898" y="660" on="0"/>
        <pt x="903" y="663" on="0"/>
        <pt x="910" y="663" on="1"/>
        <pt x="952" y="663" on="1"/>
        <pt x="678" y="0" on="1"/>
        <pt x="627" y="0" on="1"/>
        <pt x="621" y="0" on="0"/>
        <pt x="617" y="4" on="0"/>
        <pt x="616" y="8" on="1"/>
        <pt x="536" y="414" on="1"/>
        <pt x="524" y="474" on="0"/>
        <pt x="507" y="575" on="0"/>
        <pt x="502" y="602" on="1"/>
        <pt x="496" y="586" on="0"/>
        <pt x="480" y="544" on="0"/>
        <pt x="462" y="496" on="0"/>
        <pt x="443" y="446" on="0"/>
        <pt x="434" y="422" on="1"/>
        <pt x="269" y="0" on="1"/>
        <pt x="220" y="0" on="1"/>
        <pt x="214" y="0" on="0"/>
        <pt x="210" y="4" on="0"/>
        <pt x="209" y="8" on="1"/>
        <pt x="75" y="663" on="1"/>
        <pt x="118" y="663" on="1"/>
        <pt x="128" y="663" on="0"/>
        <pt x="129" y="655" on="1"/>
        <pt x="208" y="258" on="1"/>
        <pt x="217" y="211" on="0"/>
        <pt x="237" y="102" on="0"/>
        <pt x="244" y="62" on="1"/>
        <pt x="258" y="101" on="0"/>
        <pt x="295" y="192" on="0"/>
        <pt x="318" y="252" on="1"/>
        <pt x="480" y="663" on="1"/>
      </contour>
    </TTGlyph>
    <TTGlyph name="Wacute" xMin="75" yMin="0" xMax="952" yMax="887">
      <component glyphName="W" x="0" y="0" flags="0x204"/>
      <component glyphName="acute.cap" x="284" y="0" flags="0x4"/>
    </TTGlyph>
    <TTGlyph name="Wcircumflex" xMin="75" yMin="0" xMax="952" yMax="866">
      <component glyphName="W" x="0" y="0" flags="0x204"/>
      <component glyphName="circumflex.cap" x="273" y="0" flags="0x4"/>
    </TTGlyph>
    <TTGlyph name="Wdieresis" xMin="75" yMin="0" xMax="952" yMax="823">
      <component glyphName="W" x="0" y="0" flags="0x204"/>
      <component glyphName="dieresis.cap" x="276" y="0" flags="0x4"/>
    </TTGlyph>
    <TTGlyph name="Wgrave" xMin="75" yMin="0" xMax="952" yMax="888">
      <component glyphName="W" x="0" y="0" flags="0x204"/>
      <component glyphName="grave.cap" x="273" y="0" flags="0x4"/>
    </TTGlyph>
    <TTGlyph name="X" xMin="1" yMin="0" xMax="584" yMax="663">
      <contour>
        <pt x="1" y="0" on="1"/>
        <pt x="279" y="353" on="1"/>
        <pt x="87" y="663" on="1"/>
        <pt x="132" y="663" on="1"/>
        <pt x="139" y="663" on="0"/>
        <pt x="144" y="660" on="0"/>
        <pt x="148" y="655" on="1"/>
        <pt x="314" y="387" on="1"/>
        <pt x="521" y="654" on="1"/>
        <pt x="526" y="660" on="0"/>
        <pt x="532" y="663" on="0"/>
        <pt x="540" y="663" on="1"/>
        <pt x="584" y="663" on="1"/>
        <pt x="337" y="348" on="1"/>
        <pt x="553" y="0" on="1"/>
        <pt x="509" y="0" on="1"/>
        <pt x="497" y="0" on="0"/>
        <pt x="491" y="10" on="1"/>
        <pt x="303" y="315" on="1"/>
        <pt x="66" y="9" on="1"/>
        <pt x="61" y="3" on="0"/>
        <pt x="54" y="0" on="0"/>
        <pt x="46" y="0" on="1"/>
      </contour>
    </TTGlyph>
    <TTGlyph name="Y" xMin="62" yMin="0" xMax="607" yMax="663">
      <contour>
        <pt x="607" y="663" on="1"/>
        <pt x="308" y="220" on="1"/>
        <pt x="281" y="0" on="1"/>
        <pt x="229" y="0" on="1"/>
        <pt x="256" y="222" on="1"/>
        <pt x="62" y="663" on="1"/>
        <pt x="106" y="663" on="1"/>
        <pt x="113" y="663" on="0"/>
        <pt x="117" y="661" on="0"/>
        <pt x="120" y="654" on="1"/>
        <pt x="203" y="462" on="1"/>
        <pt x="231" y="398" on="0"/>
        <pt x="273" y="296" on="0"/>
        <pt x="286" y="261" on="1"/>
        <pt x="313" y="303" on="0"/>
        <pt x="387" y="416" on="0"/>
        <pt x="425" y="472" on="1"/>
        <pt x="548" y="654" on="1"/>
        <pt x="553" y="660" on="0"/>
        <pt x="558" y="663" on="0"/>
        <pt x="566" y="663" on="1"/>
      </contour>
    </TTGlyph>
    <TTGlyph name="Yacute" xMin="62" yMin="0" xMax="607" yMax="887">
      <component glyphName="Y" x="0" y="0" flags="0x204"/>
      <component glyphName="acute.cap" x="120" y="0" flags="0x4"/>
    </TTGlyph>
    <TTGlyph name="Ycircumflex" xMin="62" yMin="0" xMax="607" yMax="866">
      <component glyphName="Y" x="0" y="0" flags="0x204"/>
      <component glyphName="circumflex.cap" x="96" y="0" flags="0x4"/>
    </TTGlyph>
    <TTGlyph name="Ydieresis" xMin="62" yMin="0" xMax="607" yMax="823">
      <component glyphName="Y" x="0" y="0" flags="0x204"/>
      <component glyphName="dieresis.cap" x="99" y="0" flags="0x4"/>
    </TTGlyph>
    <TTGlyph name="Ygrave" xMin="62" yMin="0" xMax="607" yMax="888">
      <component glyphName="Y" x="0" y="0" flags="0x204"/>
      <component glyphName="grave.cap" x="58" y="0" flags="0x4"/>
    </TTGlyph>
    <TTGlyph name="Z" xMin="12" yMin="0" xMax="536" yMax="663">
      <contour>
        <pt x="464" y="43" on="1"/>
        <pt x="459" y="0" on="1"/>
        <pt x="12" y="0" on="1"/>
        <pt x="15" y="21" on="1"/>
        <pt x="16" y="27" on="0"/>
        <pt x="18" y="33" on="0"/>
        <pt x="23" y="39" on="1"/>
        <pt x="339" y="455" on="1"/>
        <pt x="374" y="501" on="0"/>
        <pt x="439" y="588" on="0"/>
        <pt x="464" y="620" on="1"/>
        <pt x="86" y="620" on="1"/>
        <pt x="92" y="663" on="1"/>
        <pt x="536" y="663" on="1"/>
        <pt x="533" y="642" on="1"/>
        <pt x="532" y="633" on="0"/>
        <pt x="525" y="624" on="1"/>
        <pt x="209" y="208" on="1"/>
        <pt x="174" y="162" on="0"/>
        <pt x="109" y="75" on="0"/>
        <pt x="84" y="43" on="1"/>
      </contour>
    </TTGlyph>
    <TTGlyph name="Zacute" xMin="12" yMin="0" xMax="536" yMax="887">
      <component glyphName="Z" x="0" y="0" flags="0x204"/>
      <component glyphName="acute.cap" x="93" y="0" flags="0x4"/>
    </TTGlyph>
    <TTGlyph name="Zcaron" xMin="12" yMin="0" xMax="536" yMax="877">
      <component glyphName="Z" x="0" y="0" flags="0x204"/>
      <component glyphName="caron.cap" x="73" y="0" flags="0x4"/>
    </TTGlyph>
    <TTGlyph name="Zdotaccent" xMin="12" yMin="0" xMax="536" yMax="816">
      <component glyphName="Z" x="0" y="0" flags="0x204"/>
      <component glyphName="dotaccent.cap" x="80" y="0" flags="0x4"/>
    </TTGlyph>
    <TTGlyph name="a" xMin="38" yMin="-8" xMax="498" yMax="496">
      <contour>
        <pt x="476" y="484" on="1"/>
        <pt x="423" y="44" on="1"/>
        <pt x="498" y="32" on="1"/>
        <pt x="495" y="12" on="1"/>
        <pt x="481" y="6" on="0"/>
        <pt x="443" y="-2" on="0"/>
        <pt x="430" y="-2" on="1"/>
        <pt x="404" y="-2" on="0"/>
        <pt x="375" y="28" on="0"/>
        <pt x="375" y="55" on="1"/>
        <pt x="353" y="41" on="1"/>
        <pt x="317" y="18" on="0"/>
        <pt x="245" y="-8" on="0"/>
        <pt x="210" y="-8" on="1"/>
        <pt x="168" y="-8" on="0"/>
        <pt x="104" y="25" on="0"/>
        <pt x="60" y="82" on="0"/>
        <pt x="38" y="158" on="0"/>
        <pt x="38" y="202" on="1"/>
        <pt x="38" y="262" on="0"/>
        <pt x="77" y="369" on="0"/>
        <pt x="143" y="449" on="0"/>
        <pt x="230" y="496" on="0"/>
        <pt x="279" y="496" on="1"/>
        <pt x="341" y="496" on="0"/>
        <pt x="402" y="452" on="1"/>
        <pt x="424" y="436" on="1"/>
        <pt x="441" y="488" on="1"/>
      </contour>
      <contour>
        <pt x="368" y="90" on="1"/>
        <pt x="375" y="95" on="0"/>
        <pt x="378" y="102" on="0"/>
        <pt x="379" y="107" on="1"/>
        <pt x="414" y="389" on="1"/>
        <pt x="415" y="396" on="0"/>
        <pt x="411" y="402" on="0"/>
        <pt x="406" y="406" on="1"/>
        <pt x="379" y="426" on="0"/>
        <pt x="317" y="451" on="0"/>
        <pt x="281" y="451" on="1"/>
        <pt x="242" y="451" on="0"/>
        <pt x="172" y="417" on="0"/>
        <pt x="119" y="352" on="0"/>
        <pt x="89" y="261" on="0"/>
        <pt x="89" y="204" on="1"/>
        <pt x="89" y="169" on="0"/>
        <pt x="103" y="108" on="0"/>
        <pt x="134" y="62" on="0"/>
        <pt x="184" y="36" on="0"/>
        <pt x="219" y="36" on="1"/>
        <pt x="254" y="36" on="0"/>
        <pt x="335" y="68" on="0"/>
      </contour>
    </TTGlyph>
    <TTGlyph name="aacute" xMin="38" yMin="-8" xMax="498" yMax="699">
      <component glyphName="a" x="0" y="0" flags="0x204"/>
      <component glyphName="acute" x="94" y="0" flags="0x4"/>
    </TTGlyph>
    <TTGlyph name="abreve" xMin="38" yMin="-8" xMax="498" yMax="681">
      <component glyphName="a" x="0" y="0" flags="0x204"/>
      <component glyphName="breve" x="79" y="0" flags="0x4"/>
    </TTGlyph>
    <TTGlyph name="acaron" xMin="38" yMin="-8" xMax="498" yMax="697">
      <component glyphName="a" x="0" y="0" flags="0x204"/>
      <component glyphName="caron" x="65" y="0" flags="0x4"/>
    </TTGlyph>
    <TTGlyph name="acircumflex" xMin="38" yMin="-8" xMax="498" yMax="699">
      <component glyphName="a" x="0" y="0" flags="0x204"/>
      <component glyphName="circumflex" x="73" y="0" flags="0x4"/>
    </TTGlyph>
    <TTGlyph name="acute" xMin="107" yMin="537" xMax="340" yMax="699">
      <contour>
        <pt x="120" y="537" on="1"/>
        <pt x="107" y="559" on="1"/>
        <pt x="305" y="696" on="1"/>
        <pt x="310" y="699" on="0"/>
        <pt x="315" y="699" on="0"/>
        <pt x="318" y="694" on="1"/>
        <pt x="340" y="654" on="1"/>
      </contour>
    </TTGlyph>
    <TTGlyph name="acute.cap" xMin="132" yMin="725" xMax="365" yMax="887">
      <contour>
        <pt x="145" y="725" on="1"/>
        <pt x="132" y="747" on="1"/>
        <pt x="330" y="884" on="1"/>
        <pt x="335" y="887" on="0"/>
        <pt x="340" y="887" on="0"/>
        <pt x="343" y="882" on="1"/>
        <pt x="365" y="842" on="1"/>
      </contour>
    </TTGlyph>
    <TTGlyph name="adieresis" xMin="38" yMin="-8" xMax="498" yMax="646">
      <component glyphName="a" x="0" y="0" flags="0x204"/>
      <component glyphName="dieresis" x="74" y="0" flags="0x4"/>
    </TTGlyph>
    <TTGlyph name="ae" xMin="29" yMin="-8" xMax="808" yMax="496">
      <contour>
        <pt x="428" y="235" on="1"/>
        <pt x="427" y="230" on="0"/>
        <pt x="427" y="220" on="0"/>
        <pt x="427" y="216" on="1"/>
        <pt x="427" y="176" on="0"/>
        <pt x="447" y="110" on="0"/>
        <pt x="488" y="62" on="0"/>
        <pt x="548" y="36" on="0"/>
        <pt x="588" y="36" on="1"/>
        <pt x="617" y="36" on="0"/>
        <pt x="679" y="52" on="0"/>
        <pt x="716" y="67" on="1"/>
        <pt x="773" y="90" on="1"/>
        <pt x="787" y="66" on="1"/>
        <pt x="744" y="35" on="0"/>
        <pt x="635" y="-8" on="0"/>
        <pt x="583" y="-8" on="1"/>
        <pt x="526" y="-8" on="0"/>
        <pt x="442" y="36" on="0"/>
        <pt x="416" y="74" on="1"/>
        <pt x="382" y="54" on="1"/>
        <pt x="331" y="24" on="0"/>
        <pt x="240" y="-8" on="0"/>
        <pt x="198" y="-8" on="1"/>
        <pt x="159" y="-8" on="0"/>
        <pt x="96" y="16" on="0"/>
        <pt x="52" y="56" on="0"/>
        <pt x="29" y="111" on="0"/>
        <pt x="29" y="142" on="1"/>
        <pt x="29" y="168" on="0"/>
        <pt x="47" y="216" on="0"/>
        <pt x="86" y="252" on="0"/>
        <pt x="148" y="274" on="0"/>
        <pt x="192" y="274" on="1"/>
        <pt x="204" y="274" on="0"/>
        <pt x="248" y="273" on="0"/>
        <pt x="300" y="271" on="0"/>
        <pt x="356" y="269" on="0"/>
        <pt x="380" y="268" on="1"/>
        <pt x="386" y="297" on="0"/>
        <pt x="391" y="336" on="0"/>
        <pt x="391" y="350" on="1"/>
        <pt x="391" y="401" on="0"/>
        <pt x="332" y="452" on="0"/>
        <pt x="280" y="452" on="1"/>
        <pt x="254" y="452" on="0"/>
        <pt x="196" y="442" on="0"/>
        <pt x="164" y="433" on="1"/>
        <pt x="104" y="416" on="1"/>
        <pt x="93" y="444" on="1"/>
        <pt x="145" y="470" on="0"/>
        <pt x="238" y="496" on="0"/>
        <pt x="282" y="496" on="1"/>
        <pt x="310" y="496" on="0"/>
        <pt x="362" y="481" on="0"/>
        <pt x="402" y="454" on="0"/>
        <pt x="428" y="415" on="0"/>
        <pt x="431" y="391" on="1"/>
        <pt x="465" y="439" on="0"/>
        <pt x="564" y="496" on="0"/>
        <pt x="622" y="496" on="1"/>
        <pt x="665" y="496" on="0"/>
        <pt x="734" y="462" on="0"/>
        <pt x="782" y="405" on="0"/>
        <pt x="808" y="330" on="0"/>
        <pt x="808" y="290" on="1"/>
        <pt x="808" y="257" on="0"/>
        <pt x="796" y="235" on="0"/>
        <pt x="779" y="235" on="1"/>
      </contour>
      <contour>
        <pt x="203" y="35" on="1"/>
        <pt x="224" y="35" on="0"/>
        <pt x="273" y="46" on="0"/>
        <pt x="325" y="66" on="0"/>
        <pt x="375" y="92" on="0"/>
        <pt x="397" y="106" on="1"/>
        <pt x="386" y="129" on="0"/>
        <pt x="375" y="184" on="0"/>
        <pt x="375" y="213" on="1"/>
        <pt x="375" y="218" on="0"/>
        <pt x="375" y="229" on="0"/>
        <pt x="376" y="234" on="1"/>
        <pt x="192" y="234" on="1"/>
        <pt x="160" y="234" on="0"/>
        <pt x="115" y="222" on="0"/>
        <pt x="101" y="208" on="1"/>
        <pt x="78" y="185" on="0"/>
        <pt x="78" y="143" on="1"/>
        <pt x="78" y="92" on="0"/>
        <pt x="145" y="35" on="0"/>
      </contour>
      <contour>
        <pt x="761" y="274" on="1"/>
        <pt x="761" y="355" on="0"/>
        <pt x="686" y="451" on="0"/>
        <pt x="617" y="451" on="1"/>
        <pt x="581" y="451" on="0"/>
        <pt x="518" y="423" on="0"/>
        <pt x="470" y="374" on="0"/>
        <pt x="439" y="310" on="0"/>
        <pt x="433" y="274" on="1"/>
      </contour>
    </TTGlyph>
    <TTGlyph name="aeacute" xMin="29" yMin="-8" xMax="808" yMax="699">
      <component glyphName="ae" x="0" y="0" flags="0x204"/>
      <component glyphName="acute" x="279" y="0" flags="0x4"/>
    </TTGlyph>
    <TTGlyph name="agrave" xMin="38" yMin="-8" xMax="498" yMax="700">
      <component glyphName="a" x="0" y="0" flags="0x204"/>
      <component glyphName="grave" x="62" y="0" flags="0x4"/>
    </TTGlyph>
    <TTGlyph name="amacron" xMin="38" yMin="-8" xMax="498" yMax="617">
      <component glyphName="a" x="0" y="0" flags="0x204"/>
      <component glyphName="macron" x="64" y="0" flags="0x4"/>
    </TTGlyph>
    <TTGlyph name="ampersand" xMin="32" yMin="-10" xMax="648" yMax="673">
      <contour>
        <pt x="473" y="142" on="1"/>
        <pt x="499" y="173" on="0"/>
        <pt x="553" y="264" on="0"/>
        <pt x="575" y="308" on="1"/>
        <pt x="616" y="391" on="1"/>
        <pt x="648" y="383" on="1"/>
        <pt x="620" y="307" on="0"/>
        <pt x="541" y="162" on="0"/>
        <pt x="499" y="110" on="1"/>
        <pt x="553" y="42" on="1"/>
        <pt x="641" y="31" on="1"/>
        <pt x="639" y="11" on="1"/>
        <pt x="624" y="5" on="0"/>
        <pt x="587" y="-4" on="0"/>
        <pt x="575" y="-4" on="1"/>
        <pt x="549" y="-4" on="0"/>
        <pt x="517" y="16" on="0"/>
        <pt x="497" y="41" on="1"/>
        <pt x="467" y="79" on="1"/>
        <pt x="421" y="36" on="0"/>
        <pt x="313" y="-10" on="0"/>
        <pt x="254" y="-10" on="1"/>
        <pt x="208" y="-10" on="0"/>
        <pt x="127" y="21" on="0"/>
        <pt x="67" y="74" on="0"/>
        <pt x="32" y="146" on="0"/>
        <pt x="32" y="188" on="1"/>
        <pt x="32" y="224" on="0"/>
        <pt x="60" y="287" on="0"/>
        <pt x="109" y="342" on="0"/>
        <pt x="174" y="390" on="0"/>
        <pt x="211" y="411" on="1"/>
        <pt x="194" y="436" on="0"/>
        <pt x="175" y="487" on="0"/>
        <pt x="175" y="514" on="1"/>
        <pt x="175" y="547" on="0"/>
        <pt x="203" y="605" on="0"/>
        <pt x="250" y="648" on="0"/>
        <pt x="312" y="673" on="0"/>
        <pt x="347" y="673" on="1"/>
        <pt x="377" y="673" on="0"/>
        <pt x="431" y="654" on="0"/>
        <pt x="471" y="619" on="0"/>
        <pt x="494" y="571" on="0"/>
        <pt x="494" y="542" on="1"/>
        <pt x="494" y="486" on="0"/>
        <pt x="415" y="385" on="0"/>
        <pt x="331" y="327" on="1"/>
      </contour>
      <contour>
        <pt x="230" y="384" on="1"/>
        <pt x="220" y="377" on="1"/>
        <pt x="188" y="355" on="0"/>
        <pt x="137" y="314" on="0"/>
        <pt x="101" y="270" on="0"/>
        <pt x="82" y="221" on="0"/>
        <pt x="82" y="191" on="1"/>
        <pt x="82" y="159" on="0"/>
        <pt x="106" y="103" on="0"/>
        <pt x="151" y="60" on="0"/>
        <pt x="217" y="35" on="0"/>
        <pt x="258" y="35" on="1"/>
        <pt x="311" y="35" on="0"/>
        <pt x="404" y="75" on="0"/>
        <pt x="442" y="110" on="1"/>
      </contour>
      <contour>
        <pt x="358" y="392" on="1"/>
        <pt x="412" y="438" on="0"/>
        <pt x="451" y="506" on="0"/>
        <pt x="451" y="538" on="1"/>
        <pt x="451" y="579" on="0"/>
        <pt x="393" y="629" on="0"/>
        <pt x="345" y="629" on="1"/>
        <pt x="291" y="629" on="0"/>
        <pt x="221" y="567" on="0"/>
        <pt x="221" y="519" on="1"/>
        <pt x="221" y="503" on="0"/>
        <pt x="228" y="473" on="0"/>
        <pt x="245" y="440" on="0"/>
        <pt x="273" y="401" on="0"/>
        <pt x="294" y="374" on="1"/>
        <pt x="311" y="352" on="1"/>
      </contour>
    </TTGlyph>
    <TTGlyph name="aogonek" xMin="38" yMin="-180" xMax="498" yMax="496">
      <contour>
        <pt x="313" y="-104" on="1"/>
        <pt x="313" y="-86" on="0"/>
        <pt x="329" y="-54" on="0"/>
        <pt x="356" y="-26" on="0"/>
        <pt x="389" y="-5" on="0"/>
        <pt x="407" y="2" on="1"/>
        <pt x="375" y="15" on="0"/>
        <pt x="375" y="55" on="1"/>
        <pt x="353" y="41" on="1"/>
        <pt x="317" y="18" on="0"/>
        <pt x="245" y="-8" on="0"/>
        <pt x="210" y="-8" on="1"/>
        <pt x="168" y="-8" on="0"/>
        <pt x="104" y="25" on="0"/>
        <pt x="60" y="82" on="0"/>
        <pt x="38" y="158" on="0"/>
        <pt x="38" y="202" on="1"/>
        <pt x="38" y="262" on="0"/>
        <pt x="77" y="369" on="0"/>
        <pt x="143" y="449" on="0"/>
        <pt x="230" y="496" on="0"/>
        <pt x="279" y="496" on="1"/>
        <pt x="341" y="496" on="0"/>
        <pt x="402" y="452" on="1"/>
        <pt x="424" y="436" on="1"/>
        <pt x="441" y="488" on="1"/>
        <pt x="476" y="484" on="1"/>
        <pt x="423" y="44" on="1"/>
        <pt x="498" y="32" on="1"/>
        <pt x="495" y="12" on="1"/>
        <pt x="430" y="-10" on="0"/>
        <pt x="360" y="-68" on="0"/>
        <pt x="360" y="-100" on="1"/>
        <pt x="360" y="-120" on="0"/>
        <pt x="387" y="-142" on="0"/>
        <pt x="410" y="-142" on="1"/>
        <pt x="419" y="-142" on="0"/>
        <pt x="452" y="-138" on="0"/>
        <pt x="469" y="-135" on="1"/>
        <pt x="474" y="-160" on="1"/>
        <pt x="460" y="-168" on="0"/>
        <pt x="418" y="-180" on="0"/>
        <pt x="398" y="-180" on="1"/>
        <pt x="356" y="-180" on="0"/>
        <pt x="313" y="-134" on="0"/>
      </contour>
      <contour>
        <pt x="368" y="90" on="1"/>
        <pt x="375" y="95" on="0"/>
        <pt x="378" y="102" on="0"/>
        <pt x="379" y="107" on="1"/>
        <pt x="414" y="389" on="1"/>
        <pt x="415" y="396" on="0"/>
        <pt x="411" y="402" on="0"/>
        <pt x="406" y="406" on="1"/>
        <pt x="379" y="426" on="0"/>
        <pt x="317" y="451" on="0"/>
        <pt x="281" y="451" on="1"/>
        <pt x="242" y="451" on="0"/>
        <pt x="172" y="417" on="0"/>
        <pt x="119" y="352" on="0"/>
        <pt x="89" y="261" on="0"/>
        <pt x="89" y="204" on="1"/>
        <pt x="89" y="169" on="0"/>
        <pt x="103" y="108" on="0"/>
        <pt x="134" y="62" on="0"/>
        <pt x="184" y="36" on="0"/>
        <pt x="219" y="36" on="1"/>
        <pt x="254" y="36" on="0"/>
        <pt x="335" y="68" on="0"/>
      </contour>
    </TTGlyph>
    <TTGlyph name="apple" xMin="78" yMin="0" xMax="466" yMax="650">
      <contour>
        <pt x="208" y="357" on="1"/>
        <pt x="208" y="370" on="0"/>
        <pt x="227" y="388" on="0"/>
        <pt x="239" y="388" on="1"/>
        <pt x="252" y="388" on="0"/>
        <pt x="269" y="370" on="0"/>
        <pt x="269" y="357" on="1"/>
        <pt x="269" y="344" on="0"/>
        <pt x="252" y="327" on="0"/>
        <pt x="239" y="327" on="1"/>
        <pt x="227" y="327" on="0"/>
        <pt x="208" y="344" on="0"/>
      </contour>
      <contour>
        <pt x="405" y="357" on="1"/>
        <pt x="405" y="370" on="0"/>
        <pt x="424" y="388" on="0"/>
        <pt x="436" y="388" on="1"/>
        <pt x="449" y="388" on="0"/>
        <pt x="466" y="370" on="0"/>
        <pt x="466" y="357" on="1"/>
        <pt x="466" y="344" on="0"/>
        <pt x="449" y="327" on="0"/>
        <pt x="436" y="327" on="1"/>
        <pt x="424" y="327" on="0"/>
        <pt x="405" y="344" on="0"/>
      </contour>
      <contour>
        <pt x="78" y="161" on="1"/>
        <pt x="78" y="174" on="0"/>
        <pt x="95" y="191" on="0"/>
        <pt x="108" y="191" on="1"/>
        <pt x="120" y="191" on="0"/>
        <pt x="139" y="174" on="0"/>
        <pt x="139" y="161" on="1"/>
        <pt x="139" y="148" on="0"/>
        <pt x="120" y="130" on="0"/>
        <pt x="108" y="130" on="1"/>
        <pt x="95" y="130" on="0"/>
        <pt x="78" y="148" on="0"/>
      </contour>
      <contour>
        <pt x="78" y="357" on="1"/>
        <pt x="78" y="370" on="0"/>
        <pt x="95" y="388" on="0"/>
        <pt x="108" y="388" on="1"/>
        <pt x="120" y="388" on="0"/>
        <pt x="139" y="370" on="0"/>
        <pt x="139" y="357" on="1"/>
        <pt x="139" y="344" on="0"/>
        <pt x="120" y="327" on="0"/>
        <pt x="108" y="327" on="1"/>
        <pt x="95" y="327" on="0"/>
        <pt x="78" y="344" on="0"/>
      </contour>
      <contour>
        <pt x="275" y="357" on="1"/>
        <pt x="275" y="370" on="0"/>
        <pt x="292" y="388" on="0"/>
        <pt x="305" y="388" on="1"/>
        <pt x="317" y="388" on="0"/>
        <pt x="336" y="370" on="0"/>
        <pt x="336" y="357" on="1"/>
        <pt x="336" y="344" on="0"/>
        <pt x="317" y="327" on="0"/>
        <pt x="305" y="327" on="1"/>
        <pt x="292" y="327" on="0"/>
        <pt x="275" y="344" on="0"/>
      </contour>
      <contour>
        <pt x="340" y="620" on="1"/>
        <pt x="340" y="632" on="0"/>
        <pt x="357" y="650" on="0"/>
        <pt x="371" y="650" on="1"/>
        <pt x="382" y="650" on="0"/>
        <pt x="401" y="632" on="0"/>
        <pt x="401" y="620" on="1"/>
        <pt x="401" y="606" on="0"/>
        <pt x="382" y="589" on="0"/>
        <pt x="371" y="589" on="1"/>
        <pt x="357" y="589" on="0"/>
        <pt x="340" y="606" on="0"/>
      </contour>
      <contour>
        <pt x="78" y="620" on="1"/>
        <pt x="78" y="632" on="0"/>
        <pt x="95" y="650" on="0"/>
        <pt x="108" y="650" on="1"/>
        <pt x="120" y="650" on="0"/>
        <pt x="139" y="632" on="0"/>
        <pt x="139" y="620" on="1"/>
        <pt x="139" y="606" on="0"/>
        <pt x="120" y="589" on="0"/>
        <pt x="108" y="589" on="1"/>
        <pt x="95" y="589" on="0"/>
        <pt x="78" y="606" on="0"/>
      </contour>
      <contour>
        <pt x="275" y="620" on="1"/>
        <pt x="275" y="632" on="0"/>
        <pt x="292" y="650" on="0"/>
        <pt x="305" y="650" on="1"/>
        <pt x="317" y="650" on="0"/>
        <pt x="336" y="632" on="0"/>
        <pt x="336" y="620" on="1"/>
        <pt x="336" y="606" on="0"/>
        <pt x="317" y="589" on="0"/>
        <pt x="305" y="589" on="1"/>
        <pt x="292" y="589" on="0"/>
        <pt x="275" y="606" on="0"/>
      </contour>
      <contour>
        <pt x="405" y="620" on="1"/>
        <pt x="405" y="632" on="0"/>
        <pt x="424" y="650" on="0"/>
        <pt x="436" y="650" on="1"/>
        <pt x="449" y="650" on="0"/>
        <pt x="466" y="632" on="0"/>
        <pt x="466" y="620" on="1"/>
        <pt x="466" y="606" on="0"/>
        <pt x="449" y="589" on="0"/>
        <pt x="436" y="589" on="1"/>
        <pt x="424" y="589" on="0"/>
        <pt x="405" y="606" on="0"/>
      </contour>
      <contour>
        <pt x="208" y="620" on="1"/>
        <pt x="208" y="632" on="0"/>
        <pt x="227" y="650" on="0"/>
        <pt x="239" y="650" on="1"/>
        <pt x="252" y="650" on="0"/>
        <pt x="269" y="632" on="0"/>
        <pt x="269" y="620" on="1"/>
        <pt x="269" y="606" on="0"/>
        <pt x="252" y="589" on="0"/>
        <pt x="239" y="589" on="1"/>
        <pt x="227" y="589" on="0"/>
        <pt x="208" y="606" on="0"/>
      </contour>
      <contour>
        <pt x="340" y="357" on="1"/>
        <pt x="340" y="370" on="0"/>
        <pt x="357" y="388" on="0"/>
        <pt x="371" y="388" on="1"/>
        <pt x="382" y="388" on="0"/>
        <pt x="401" y="370" on="0"/>
        <pt x="401" y="357" on="1"/>
        <pt x="401" y="344" on="0"/>
        <pt x="382" y="327" on="0"/>
        <pt x="371" y="327" on="1"/>
        <pt x="357" y="327" on="0"/>
        <pt x="340" y="344" on="0"/>
      </contour>
      <contour>
        <pt x="208" y="30" on="1"/>
        <pt x="208" y="42" on="0"/>
        <pt x="227" y="61" on="0"/>
        <pt x="239" y="61" on="1"/>
        <pt x="252" y="61" on="0"/>
        <pt x="269" y="42" on="0"/>
        <pt x="269" y="30" on="1"/>
        <pt x="269" y="17" on="0"/>
        <pt x="252" y="0" on="0"/>
        <pt x="239" y="0" on="1"/>
        <pt x="227" y="0" on="0"/>
        <pt x="208" y="17" on="0"/>
      </contour>
      <contour>
        <pt x="78" y="30" on="1"/>
        <pt x="78" y="42" on="0"/>
        <pt x="95" y="61" on="0"/>
        <pt x="108" y="61" on="1"/>
        <pt x="120" y="61" on="0"/>
        <pt x="139" y="42" on="0"/>
        <pt x="139" y="30" on="1"/>
        <pt x="139" y="17" on="0"/>
        <pt x="120" y="0" on="0"/>
        <pt x="108" y="0" on="1"/>
        <pt x="95" y="0" on="0"/>
        <pt x="78" y="17" on="0"/>
      </contour>
      <contour>
        <pt x="208" y="95" on="1"/>
        <pt x="208" y="109" on="0"/>
        <pt x="227" y="125" on="0"/>
        <pt x="239" y="125" on="1"/>
        <pt x="252" y="125" on="0"/>
        <pt x="269" y="109" on="0"/>
        <pt x="269" y="95" on="1"/>
        <pt x="269" y="82" on="0"/>
        <pt x="252" y="65" on="0"/>
        <pt x="239" y="65" on="1"/>
        <pt x="227" y="65" on="0"/>
        <pt x="208" y="82" on="0"/>
      </contour>
      <contour>
        <pt x="78" y="95" on="1"/>
        <pt x="78" y="109" on="0"/>
        <pt x="95" y="125" on="0"/>
        <pt x="108" y="125" on="1"/>
        <pt x="120" y="125" on="0"/>
        <pt x="139" y="109" on="0"/>
        <pt x="139" y="95" on="1"/>
        <pt x="139" y="82" on="0"/>
        <pt x="120" y="65" on="0"/>
        <pt x="108" y="65" on="1"/>
        <pt x="95" y="65" on="0"/>
        <pt x="78" y="82" on="0"/>
      </contour>
      <contour>
        <pt x="144" y="620" on="1"/>
        <pt x="144" y="632" on="0"/>
        <pt x="162" y="650" on="0"/>
        <pt x="174" y="650" on="1"/>
        <pt x="187" y="650" on="0"/>
        <pt x="204" y="632" on="0"/>
        <pt x="204" y="620" on="1"/>
        <pt x="204" y="606" on="0"/>
        <pt x="187" y="589" on="0"/>
        <pt x="174" y="589" on="1"/>
        <pt x="162" y="589" on="0"/>
        <pt x="144" y="606" on="0"/>
      </contour>
      <contour>
        <pt x="78" y="489" on="1"/>
        <pt x="78" y="501" on="0"/>
        <pt x="95" y="518" on="0"/>
        <pt x="108" y="518" on="1"/>
        <pt x="120" y="518" on="0"/>
        <pt x="139" y="501" on="0"/>
        <pt x="139" y="489" on="1"/>
        <pt x="139" y="476" on="0"/>
        <pt x="120" y="458" on="0"/>
        <pt x="108" y="458" on="1"/>
        <pt x="95" y="458" on="0"/>
        <pt x="78" y="476" on="0"/>
      </contour>
      <contour>
        <pt x="275" y="489" on="1"/>
        <pt x="275" y="501" on="0"/>
        <pt x="292" y="518" on="0"/>
        <pt x="305" y="518" on="1"/>
        <pt x="317" y="518" on="0"/>
        <pt x="336" y="501" on="0"/>
        <pt x="336" y="489" on="1"/>
        <pt x="336" y="476" on="0"/>
        <pt x="317" y="458" on="0"/>
        <pt x="305" y="458" on="1"/>
        <pt x="292" y="458" on="0"/>
        <pt x="275" y="476" on="0"/>
      </contour>
      <contour>
        <pt x="208" y="489" on="1"/>
        <pt x="208" y="501" on="0"/>
        <pt x="227" y="518" on="0"/>
        <pt x="239" y="518" on="1"/>
        <pt x="252" y="518" on="0"/>
        <pt x="269" y="501" on="0"/>
        <pt x="269" y="489" on="1"/>
        <pt x="269" y="476" on="0"/>
        <pt x="252" y="458" on="0"/>
        <pt x="239" y="458" on="1"/>
        <pt x="227" y="458" on="0"/>
        <pt x="208" y="476" on="0"/>
      </contour>
      <contour>
        <pt x="405" y="489" on="1"/>
        <pt x="405" y="501" on="0"/>
        <pt x="424" y="518" on="0"/>
        <pt x="436" y="518" on="1"/>
        <pt x="449" y="518" on="0"/>
        <pt x="466" y="501" on="0"/>
        <pt x="466" y="489" on="1"/>
        <pt x="466" y="476" on="0"/>
        <pt x="449" y="458" on="0"/>
        <pt x="436" y="458" on="1"/>
        <pt x="424" y="458" on="0"/>
        <pt x="405" y="476" on="0"/>
      </contour>
      <contour>
        <pt x="340" y="489" on="1"/>
        <pt x="340" y="501" on="0"/>
        <pt x="357" y="518" on="0"/>
        <pt x="371" y="518" on="1"/>
        <pt x="382" y="518" on="0"/>
        <pt x="401" y="501" on="0"/>
        <pt x="401" y="489" on="1"/>
        <pt x="401" y="476" on="0"/>
        <pt x="382" y="458" on="0"/>
        <pt x="371" y="458" on="1"/>
        <pt x="357" y="458" on="0"/>
        <pt x="340" y="476" on="0"/>
      </contour>
      <contour>
        <pt x="144" y="30" on="1"/>
        <pt x="144" y="42" on="0"/>
        <pt x="162" y="61" on="0"/>
        <pt x="174" y="61" on="1"/>
        <pt x="187" y="61" on="0"/>
        <pt x="204" y="42" on="0"/>
        <pt x="204" y="30" on="1"/>
        <pt x="204" y="17" on="0"/>
        <pt x="187" y="0" on="0"/>
        <pt x="174" y="0" on="1"/>
        <pt x="162" y="0" on="0"/>
        <pt x="144" y="17" on="0"/>
      </contour>
      <contour>
        <pt x="78" y="292" on="1"/>
        <pt x="78" y="304" on="0"/>
        <pt x="95" y="322" on="0"/>
        <pt x="108" y="322" on="1"/>
        <pt x="120" y="322" on="0"/>
        <pt x="139" y="304" on="0"/>
        <pt x="139" y="292" on="1"/>
        <pt x="139" y="279" on="0"/>
        <pt x="120" y="262" on="0"/>
        <pt x="108" y="262" on="1"/>
        <pt x="95" y="262" on="0"/>
        <pt x="78" y="279" on="0"/>
      </contour>
      <contour>
        <pt x="78" y="554" on="1"/>
        <pt x="78" y="566" on="0"/>
        <pt x="95" y="584" on="0"/>
        <pt x="108" y="584" on="1"/>
        <pt x="120" y="584" on="0"/>
        <pt x="139" y="566" on="0"/>
        <pt x="139" y="554" on="1"/>
        <pt x="139" y="541" on="0"/>
        <pt x="120" y="524" on="0"/>
        <pt x="108" y="524" on="1"/>
        <pt x="95" y="524" on="0"/>
        <pt x="78" y="541" on="0"/>
      </contour>
      <contour>
        <pt x="405" y="292" on="1"/>
        <pt x="405" y="304" on="0"/>
        <pt x="424" y="322" on="0"/>
        <pt x="436" y="322" on="1"/>
        <pt x="449" y="322" on="0"/>
        <pt x="466" y="304" on="0"/>
        <pt x="466" y="292" on="1"/>
        <pt x="466" y="279" on="0"/>
        <pt x="449" y="262" on="0"/>
        <pt x="436" y="262" on="1"/>
        <pt x="424" y="262" on="0"/>
        <pt x="405" y="279" on="0"/>
      </contour>
      <contour>
        <pt x="78" y="423" on="1"/>
        <pt x="78" y="436" on="0"/>
        <pt x="95" y="453" on="0"/>
        <pt x="108" y="453" on="1"/>
        <pt x="120" y="453" on="0"/>
        <pt x="139" y="436" on="0"/>
        <pt x="139" y="423" on="1"/>
        <pt x="139" y="410" on="0"/>
        <pt x="120" y="394" on="0"/>
        <pt x="108" y="394" on="1"/>
        <pt x="95" y="394" on="0"/>
        <pt x="78" y="410" on="0"/>
      </contour>
      <contour>
        <pt x="208" y="423" on="1"/>
        <pt x="208" y="436" on="0"/>
        <pt x="227" y="453" on="0"/>
        <pt x="239" y="453" on="1"/>
        <pt x="252" y="453" on="0"/>
        <pt x="269" y="436" on="0"/>
        <pt x="269" y="423" on="1"/>
        <pt x="269" y="410" on="0"/>
        <pt x="252" y="394" on="0"/>
        <pt x="239" y="394" on="1"/>
        <pt x="227" y="394" on="0"/>
        <pt x="208" y="410" on="0"/>
      </contour>
      <contour>
        <pt x="208" y="227" on="1"/>
        <pt x="208" y="239" on="0"/>
        <pt x="227" y="256" on="0"/>
        <pt x="239" y="256" on="1"/>
        <pt x="252" y="256" on="0"/>
        <pt x="269" y="239" on="0"/>
        <pt x="269" y="227" on="1"/>
        <pt x="269" y="214" on="0"/>
        <pt x="252" y="197" on="0"/>
        <pt x="239" y="197" on="1"/>
        <pt x="227" y="197" on="0"/>
        <pt x="208" y="214" on="0"/>
      </contour>
      <contour>
        <pt x="405" y="227" on="1"/>
        <pt x="405" y="239" on="0"/>
        <pt x="424" y="256" on="0"/>
        <pt x="436" y="256" on="1"/>
        <pt x="449" y="256" on="0"/>
        <pt x="466" y="239" on="0"/>
        <pt x="466" y="227" on="1"/>
        <pt x="466" y="214" on="0"/>
        <pt x="449" y="197" on="0"/>
        <pt x="436" y="197" on="1"/>
        <pt x="424" y="197" on="0"/>
        <pt x="405" y="214" on="0"/>
      </contour>
      <contour>
        <pt x="78" y="227" on="1"/>
        <pt x="78" y="239" on="0"/>
        <pt x="95" y="256" on="0"/>
        <pt x="108" y="256" on="1"/>
        <pt x="120" y="256" on="0"/>
        <pt x="139" y="239" on="0"/>
        <pt x="139" y="227" on="1"/>
        <pt x="139" y="214" on="0"/>
        <pt x="120" y="197" on="0"/>
        <pt x="108" y="197" on="1"/>
        <pt x="95" y="197" on="0"/>
        <pt x="78" y="214" on="0"/>
      </contour>
      <contour>
        <pt x="275" y="227" on="1"/>
        <pt x="275" y="239" on="0"/>
        <pt x="292" y="256" on="0"/>
        <pt x="305" y="256" on="1"/>
        <pt x="317" y="256" on="0"/>
        <pt x="336" y="239" on="0"/>
        <pt x="336" y="227" on="1"/>
        <pt x="336" y="214" on="0"/>
        <pt x="317" y="197" on="0"/>
        <pt x="305" y="197" on="1"/>
        <pt x="292" y="197" on="0"/>
        <pt x="275" y="214" on="0"/>
      </contour>
      <contour>
        <pt x="340" y="227" on="1"/>
        <pt x="340" y="239" on="0"/>
        <pt x="357" y="256" on="0"/>
        <pt x="371" y="256" on="1"/>
        <pt x="382" y="256" on="0"/>
        <pt x="401" y="239" on="0"/>
        <pt x="401" y="227" on="1"/>
        <pt x="401" y="214" on="0"/>
        <pt x="382" y="197" on="0"/>
        <pt x="371" y="197" on="1"/>
        <pt x="357" y="197" on="0"/>
        <pt x="340" y="214" on="0"/>
      </contour>
    </TTGlyph>
    <TTGlyph name="approxequal" xMin="51" yMin="120" xMax="442" yMax="369">
      <contour>
        <pt x="332" y="279" on="1"/>
        <pt x="311" y="279" on="0"/>
        <pt x="271" y="293" on="0"/>
        <pt x="234" y="309" on="0"/>
        <pt x="197" y="323" on="0"/>
        <pt x="179" y="323" on="1"/>
        <pt x="150" y="323" on="0"/>
        <pt x="114" y="300" on="0"/>
        <pt x="94" y="276" on="1"/>
        <pt x="69" y="287" on="1"/>
        <pt x="92" y="325" on="0"/>
        <pt x="149" y="367" on="0"/>
        <pt x="180" y="367" on="1"/>
        <pt x="201" y="367" on="0"/>
        <pt x="240" y="353" on="0"/>
        <pt x="278" y="336" on="0"/>
        <pt x="314" y="322" on="0"/>
        <pt x="332" y="322" on="1"/>
        <pt x="361" y="322" on="0"/>
        <pt x="398" y="345" on="0"/>
        <pt x="418" y="369" on="1"/>
        <pt x="442" y="358" on="1"/>
        <pt x="419" y="320" on="0"/>
        <pt x="363" y="279" on="0"/>
      </contour>
      <contour>
        <pt x="314" y="123" on="1"/>
        <pt x="293" y="123" on="0"/>
        <pt x="253" y="137" on="0"/>
        <pt x="216" y="153" on="0"/>
        <pt x="179" y="167" on="0"/>
        <pt x="161" y="167" on="1"/>
        <pt x="132" y="167" on="0"/>
        <pt x="96" y="144" on="0"/>
        <pt x="76" y="120" on="1"/>
        <pt x="51" y="131" on="1"/>
        <pt x="74" y="169" on="0"/>
        <pt x="131" y="211" on="0"/>
        <pt x="162" y="211" on="1"/>
        <pt x="183" y="211" on="0"/>
        <pt x="222" y="197" on="0"/>
        <pt x="260" y="180" on="0"/>
        <pt x="296" y="166" on="0"/>
        <pt x="314" y="166" on="1"/>
        <pt x="343" y="166" on="0"/>
        <pt x="380" y="189" on="0"/>
        <pt x="400" y="213" on="1"/>
        <pt x="424" y="202" on="1"/>
        <pt x="401" y="164" on="0"/>
        <pt x="345" y="123" on="0"/>
      </contour>
    </TTGlyph>
    <TTGlyph name="aring" xMin="38" yMin="-8" xMax="498" yMax="743">
      <component glyphName="a" x="0" y="0" flags="0x204"/>
      <component glyphName="ring" x="79" y="0" flags="0x4"/>
    </TTGlyph>
    <TTGlyph name="aringacute" xMin="38" yMin="-8" xMax="498" yMax="893">
      <component glyphName="a" x="0" y="0" flags="0x204"/>
      <component glyphName="ring" x="76" y="-24" flags="0x4"/>
      <component glyphName="acute" x="106" y="194" flags="0x4"/>
    </TTGlyph>
    <TTGlyph name="arrowdown" xMin="175" yMin="-70" xMax="594" yMax="558">
      <contour>
        <pt x="175" y="121" on="1"/>
        <pt x="199" y="145" on="1"/>
        <pt x="360" y="-6" on="1"/>
        <pt x="360" y="558" on="1"/>
        <pt x="406" y="558" on="1"/>
        <pt x="406" y="-7" on="1"/>
        <pt x="570" y="145" on="1"/>
        <pt x="594" y="121" on="1"/>
        <pt x="403" y="-70" on="1"/>
        <pt x="375" y="-70" on="1"/>
        <pt x="365" y="-70" on="0"/>
        <pt x="360" y="-65" on="1"/>
      </contour>
    </TTGlyph>
    <TTGlyph name="arrowdown.cap" xMin="175" yMin="14" xMax="594" yMax="642">
      <contour>
        <pt x="175" y="205" on="1"/>
        <pt x="199" y="229" on="1"/>
        <pt x="360" y="78" on="1"/>
        <pt x="360" y="642" on="1"/>
        <pt x="406" y="642" on="1"/>
        <pt x="406" y="77" on="1"/>
        <pt x="570" y="229" on="1"/>
        <pt x="594" y="205" on="1"/>
        <pt x="403" y="14" on="1"/>
        <pt x="375" y="14" on="1"/>
        <pt x="365" y="14" on="0"/>
        <pt x="360" y="19" on="1"/>
      </contour>
    </TTGlyph>
    <TTGlyph name="arrowleft" xMin="71" yMin="36" xMax="699" yMax="455">
      <contour>
        <pt x="263" y="455" on="1"/>
        <pt x="287" y="431" on="1"/>
        <pt x="135" y="268" on="1"/>
        <pt x="699" y="268" on="1"/>
        <pt x="699" y="225" on="1"/>
        <pt x="135" y="225" on="1"/>
        <pt x="287" y="60" on="1"/>
        <pt x="263" y="36" on="1"/>
        <pt x="71" y="226" on="1"/>
        <pt x="71" y="255" on="1"/>
        <pt x="71" y="264" on="0"/>
        <pt x="76" y="269" on="1"/>
      </contour>
    </TTGlyph>
    <TTGlyph name="arrowleft.cap" xMin="71" yMin="120" xMax="699" yMax="539">
      <contour>
        <pt x="263" y="539" on="1"/>
        <pt x="287" y="515" on="1"/>
        <pt x="135" y="352" on="1"/>
        <pt x="699" y="352" on="1"/>
        <pt x="699" y="309" on="1"/>
        <pt x="135" y="309" on="1"/>
        <pt x="287" y="144" on="1"/>
        <pt x="263" y="120" on="1"/>
        <pt x="71" y="310" on="1"/>
        <pt x="71" y="339" on="1"/>
        <pt x="71" y="348" on="0"/>
        <pt x="76" y="353" on="1"/>
      </contour>
    </TTGlyph>
    <TTGlyph name="arrowright" xMin="71" yMin="38" xMax="699" yMax="457">
      <contour>
        <pt x="507" y="38" on="1"/>
        <pt x="483" y="62" on="1"/>
        <pt x="635" y="225" on="1"/>
        <pt x="71" y="225" on="1"/>
        <pt x="71" y="268" on="1"/>
        <pt x="635" y="268" on="1"/>
        <pt x="483" y="433" on="1"/>
        <pt x="507" y="457" on="1"/>
        <pt x="699" y="267" on="1"/>
        <pt x="699" y="238" on="1"/>
        <pt x="699" y="229" on="0"/>
        <pt x="694" y="224" on="1"/>
      </contour>
    </TTGlyph>
    <TTGlyph name="arrowright.cap" xMin="71" yMin="122" xMax="699" yMax="541">
      <contour>
        <pt x="507" y="122" on="1"/>
        <pt x="483" y="146" on="1"/>
        <pt x="635" y="309" on="1"/>
        <pt x="71" y="309" on="1"/>
        <pt x="71" y="352" on="1"/>
        <pt x="635" y="352" on="1"/>
        <pt x="483" y="517" on="1"/>
        <pt x="507" y="541" on="1"/>
        <pt x="699" y="351" on="1"/>
        <pt x="699" y="322" on="1"/>
        <pt x="699" y="313" on="0"/>
        <pt x="694" y="308" on="1"/>
      </contour>
    </TTGlyph>
    <TTGlyph name="arrowup" xMin="175" yMin="-70" xMax="594" yMax="558">
      <contour>
        <pt x="594" y="367" on="1"/>
        <pt x="570" y="343" on="1"/>
        <pt x="409" y="494" on="1"/>
        <pt x="409" y="-70" on="1"/>
        <pt x="363" y="-70" on="1"/>
        <pt x="363" y="495" on="1"/>
        <pt x="199" y="343" on="1"/>
        <pt x="175" y="367" on="1"/>
        <pt x="366" y="558" on="1"/>
        <pt x="394" y="558" on="1"/>
        <pt x="404" y="558" on="0"/>
        <pt x="409" y="553" on="1"/>
      </contour>
    </TTGlyph>
    <TTGlyph name="arrowup.cap" xMin="175" yMin="14" xMax="594" yMax="642">
      <contour>
        <pt x="594" y="451" on="1"/>
        <pt x="570" y="427" on="1"/>
        <pt x="409" y="578" on="1"/>
        <pt x="409" y="14" on="1"/>
        <pt x="363" y="14" on="1"/>
        <pt x="363" y="579" on="1"/>
        <pt x="199" y="427" on="1"/>
        <pt x="175" y="451" on="1"/>
        <pt x="366" y="642" on="1"/>
        <pt x="394" y="642" on="1"/>
        <pt x="404" y="642" on="0"/>
        <pt x="409" y="637" on="1"/>
      </contour>
    </TTGlyph>
    <TTGlyph name="asciicircum" xMin="94" yMin="436" xMax="452" yMax="673">
      <contour>
        <pt x="452" y="459" on="1"/>
        <pt x="414" y="436" on="1"/>
        <pt x="293" y="629" on="1"/>
        <pt x="124" y="436" on="1"/>
        <pt x="94" y="462" on="1"/>
        <pt x="277" y="673" on="1"/>
        <pt x="318" y="673" on="1"/>
      </contour>
    </TTGlyph>
    <TTGlyph name="asciitilde" xMin="81" yMin="287" xMax="454" yMax="381">
      <contour>
        <pt x="345" y="290" on="1"/>
        <pt x="323" y="290" on="0"/>
        <pt x="283" y="304" on="0"/>
        <pt x="245" y="320" on="0"/>
        <pt x="209" y="334" on="0"/>
        <pt x="191" y="334" on="1"/>
        <pt x="162" y="334" on="0"/>
        <pt x="125" y="311" on="0"/>
        <pt x="105" y="287" on="1"/>
        <pt x="81" y="299" on="1"/>
        <pt x="104" y="337" on="0"/>
        <pt x="159" y="378" on="0"/>
        <pt x="191" y="378" on="1"/>
        <pt x="212" y="378" on="0"/>
        <pt x="252" y="364" on="0"/>
        <pt x="289" y="347" on="0"/>
        <pt x="326" y="333" on="0"/>
        <pt x="344" y="333" on="1"/>
        <pt x="373" y="333" on="0"/>
        <pt x="411" y="357" on="0"/>
        <pt x="431" y="381" on="1"/>
        <pt x="454" y="369" on="1"/>
        <pt x="432" y="331" on="0"/>
        <pt x="378" y="290" on="0"/>
      </contour>
    </TTGlyph>
    <TTGlyph name="asterisk" xMin="76" yMin="335" xMax="389" yMax="663">
      <contour>
        <pt x="308" y="341" on="1"/>
        <pt x="301" y="337" on="0"/>
        <pt x="294" y="340" on="0"/>
        <pt x="290" y="346" on="1"/>
        <pt x="227" y="466" on="1"/>
        <pt x="127" y="335" on="1"/>
        <pt x="98" y="355" on="1"/>
        <pt x="88" y="362" on="0"/>
        <pt x="98" y="372" on="1"/>
        <pt x="204" y="480" on="1"/>
        <pt x="76" y="526" on="1"/>
        <pt x="93" y="563" on="1"/>
        <pt x="95" y="568" on="0"/>
        <pt x="102" y="572" on="0"/>
        <pt x="110" y="568" on="1"/>
        <pt x="218" y="504" on="1"/>
        <pt x="225" y="663" on="1"/>
        <pt x="263" y="663" on="1"/>
        <pt x="275" y="663" on="0"/>
        <pt x="272" y="650" on="1"/>
        <pt x="244" y="503" on="1"/>
        <pt x="378" y="567" on="1"/>
        <pt x="387" y="535" on="1"/>
        <pt x="389" y="527" on="0"/>
        <pt x="385" y="521" on="0"/>
        <pt x="377" y="518" on="1"/>
        <pt x="253" y="480" on="1"/>
        <pt x="340" y="361" on="1"/>
      </contour>
    </TTGlyph>
    <TTGlyph name="at" xMin="30" yMin="-98" xMax="692" yMax="583">
      <contour>
        <pt x="502" y="402" on="1"/>
        <pt x="476" y="190" on="1"/>
        <pt x="473" y="163" on="0"/>
        <pt x="473" y="151" on="1"/>
        <pt x="473" y="134" on="0"/>
        <pt x="493" y="113" on="0"/>
        <pt x="516" y="113" on="1"/>
        <pt x="547" y="113" on="0"/>
        <pt x="596" y="145" on="0"/>
        <pt x="629" y="199" on="0"/>
        <pt x="646" y="271" on="0"/>
        <pt x="646" y="311" on="1"/>
        <pt x="646" y="364" on="0"/>
        <pt x="611" y="449" on="0"/>
        <pt x="546" y="508" on="0"/>
        <pt x="454" y="539" on="0"/>
        <pt x="398" y="539" on="1"/>
        <pt x="332" y="539" on="0"/>
        <pt x="216" y="487" on="0"/>
        <pt x="131" y="396" on="0"/>
        <pt x="81" y="272" on="0"/>
        <pt x="81" y="200" on="1"/>
        <pt x="81" y="141" on="0"/>
        <pt x="119" y="46" on="0"/>
        <pt x="187" y="-20" on="0"/>
        <pt x="282" y="-55" on="0"/>
        <pt x="340" y="-55" on="1"/>
        <pt x="385" y="-55" on="0"/>
        <pt x="477" y="-32" on="0"/>
        <pt x="535" y="-9" on="1"/>
        <pt x="604" y="18" on="1"/>
        <pt x="618" y="-3" on="1"/>
        <pt x="589" y="-23" on="0"/>
        <pt x="521" y="-57" on="0"/>
        <pt x="447" y="-83" on="0"/>
        <pt x="370" y="-98" on="0"/>
        <pt x="331" y="-98" on="1"/>
        <pt x="268" y="-98" on="0"/>
        <pt x="158" y="-54" on="0"/>
        <pt x="77" y="24" on="0"/>
        <pt x="30" y="133" on="0"/>
        <pt x="30" y="198" on="1"/>
        <pt x="30" y="273" on="0"/>
        <pt x="85" y="412" on="0"/>
        <pt x="184" y="519" on="0"/>
        <pt x="321" y="583" on="0"/>
        <pt x="402" y="583" on="1"/>
        <pt x="467" y="583" on="0"/>
        <pt x="574" y="541" on="0"/>
        <pt x="650" y="468" on="0"/>
        <pt x="692" y="371" on="0"/>
        <pt x="692" y="316" on="1"/>
        <pt x="692" y="268" on="0"/>
        <pt x="666" y="181" on="0"/>
        <pt x="619" y="115" on="0"/>
        <pt x="552" y="75" on="0"/>
        <pt x="512" y="75" on="1"/>
        <pt x="484" y="75" on="0"/>
        <pt x="443" y="100" on="0"/>
        <pt x="435" y="117" on="1"/>
        <pt x="373" y="73" on="0"/>
        <pt x="325" y="73" on="1"/>
        <pt x="302" y="73" on="0"/>
        <pt x="260" y="92" on="0"/>
        <pt x="228" y="129" on="0"/>
        <pt x="210" y="182" on="0"/>
        <pt x="210" y="215" on="1"/>
        <pt x="210" y="257" on="0"/>
        <pt x="237" y="328" on="0"/>
        <pt x="282" y="380" on="0"/>
        <pt x="338" y="409" on="0"/>
        <pt x="367" y="409" on="1"/>
        <pt x="393" y="409" on="0"/>
        <pt x="435" y="389" on="0"/>
        <pt x="458" y="367" on="1"/>
        <pt x="473" y="406" on="1"/>
      </contour>
      <contour>
        <pt x="451" y="325" on="1"/>
        <pt x="452" y="335" on="0"/>
        <pt x="445" y="341" on="1"/>
        <pt x="412" y="367" on="0"/>
        <pt x="370" y="367" on="1"/>
        <pt x="341" y="367" on="0"/>
        <pt x="298" y="341" on="0"/>
        <pt x="269" y="299" on="0"/>
        <pt x="255" y="244" on="0"/>
        <pt x="255" y="214" on="1"/>
        <pt x="255" y="163" on="0"/>
        <pt x="300" y="115" on="0"/>
        <pt x="335" y="115" on="1"/>
        <pt x="358" y="115" on="0"/>
        <pt x="405" y="134" on="0"/>
        <pt x="422" y="145" on="1"/>
        <pt x="430" y="150" on="0"/>
        <pt x="431" y="160" on="1"/>
      </contour>
    </TTGlyph>
    <TTGlyph name="at.cap" xMin="42" yMin="-8" xMax="704" yMax="673">
      <contour>
        <pt x="514" y="492" on="1"/>
        <pt x="488" y="280" on="1"/>
        <pt x="485" y="253" on="0"/>
        <pt x="485" y="241" on="1"/>
        <pt x="485" y="224" on="0"/>
        <pt x="505" y="203" on="0"/>
        <pt x="528" y="203" on="1"/>
        <pt x="559" y="203" on="0"/>
        <pt x="608" y="235" on="0"/>
        <pt x="641" y="289" on="0"/>
        <pt x="658" y="361" on="0"/>
        <pt x="658" y="401" on="1"/>
        <pt x="658" y="454" on="0"/>
        <pt x="623" y="539" on="0"/>
        <pt x="558" y="598" on="0"/>
        <pt x="466" y="629" on="0"/>
        <pt x="410" y="629" on="1"/>
        <pt x="344" y="629" on="0"/>
        <pt x="228" y="577" on="0"/>
        <pt x="143" y="486" on="0"/>
        <pt x="93" y="362" on="0"/>
        <pt x="93" y="290" on="1"/>
        <pt x="93" y="231" on="0"/>
        <pt x="131" y="136" on="0"/>
        <pt x="199" y="70" on="0"/>
        <pt x="294" y="35" on="0"/>
        <pt x="352" y="35" on="1"/>
        <pt x="397" y="35" on="0"/>
        <pt x="489" y="58" on="0"/>
        <pt x="547" y="81" on="1"/>
        <pt x="616" y="108" on="1"/>
        <pt x="630" y="87" on="1"/>
        <pt x="601" y="67" on="0"/>
        <pt x="533" y="33" on="0"/>
        <pt x="459" y="7" on="0"/>
        <pt x="382" y="-8" on="0"/>
        <pt x="343" y="-8" on="1"/>
        <pt x="280" y="-8" on="0"/>
        <pt x="170" y="36" on="0"/>
        <pt x="89" y="114" on="0"/>
        <pt x="42" y="223" on="0"/>
        <pt x="42" y="288" on="1"/>
        <pt x="42" y="363" on="0"/>
        <pt x="97" y="502" on="0"/>
        <pt x="196" y="609" on="0"/>
        <pt x="333" y="673" on="0"/>
        <pt x="414" y="673" on="1"/>
        <pt x="479" y="673" on="0"/>
        <pt x="586" y="631" on="0"/>
        <pt x="662" y="558" on="0"/>
        <pt x="704" y="461" on="0"/>
        <pt x="704" y="406" on="1"/>
        <pt x="704" y="358" on="0"/>
        <pt x="678" y="271" on="0"/>
        <pt x="631" y="205" on="0"/>
        <pt x="564" y="165" on="0"/>
        <pt x="524" y="165" on="1"/>
        <pt x="496" y="165" on="0"/>
        <pt x="455" y="190" on="0"/>
        <pt x="447" y="207" on="1"/>
        <pt x="385" y="163" on="0"/>
        <pt x="337" y="163" on="1"/>
        <pt x="314" y="163" on="0"/>
        <pt x="272" y="182" on="0"/>
        <pt x="240" y="219" on="0"/>
        <pt x="222" y="272" on="0"/>
        <pt x="222" y="305" on="1"/>
        <pt x="222" y="347" on="0"/>
        <pt x="249" y="418" on="0"/>
        <pt x="294" y="470" on="0"/>
        <pt x="350" y="499" on="0"/>
        <pt x="379" y="499" on="1"/>
        <pt x="405" y="499" on="0"/>
        <pt x="447" y="479" on="0"/>
        <pt x="470" y="457" on="1"/>
        <pt x="485" y="496" on="1"/>
      </contour>
      <contour>
        <pt x="463" y="415" on="1"/>
        <pt x="464" y="425" on="0"/>
        <pt x="457" y="431" on="1"/>
        <pt x="424" y="457" on="0"/>
        <pt x="382" y="457" on="1"/>
        <pt x="353" y="457" on="0"/>
        <pt x="310" y="431" on="0"/>
        <pt x="281" y="389" on="0"/>
        <pt x="267" y="334" on="0"/>
        <pt x="267" y="304" on="1"/>
        <pt x="267" y="253" on="0"/>
        <pt x="312" y="205" on="0"/>
        <pt x="347" y="205" on="1"/>
        <pt x="370" y="205" on="0"/>
        <pt x="417" y="224" on="0"/>
        <pt x="434" y="235" on="1"/>
        <pt x="442" y="240" on="0"/>
        <pt x="443" y="250" on="1"/>
      </contour>
    </TTGlyph>
    <TTGlyph name="atilde" xMin="38" yMin="-8" xMax="498" yMax="661">
      <component glyphName="a" x="0" y="0" flags="0x204"/>
      <component glyphName="tilde" x="80" y="0" flags="0x4"/>
    </TTGlyph>
    <TTGlyph name="b" xMin="42" yMin="-8" xMax="485" yMax="709">
      <contour>
        <pt x="145" y="434" on="1"/>
        <pt x="165" y="447" on="1"/>
        <pt x="242" y="496" on="0"/>
        <pt x="309" y="496" on="1"/>
        <pt x="352" y="496" on="0"/>
        <pt x="417" y="463" on="0"/>
        <pt x="462" y="406" on="0"/>
        <pt x="485" y="329" on="0"/>
        <pt x="485" y="286" on="1"/>
        <pt x="485" y="226" on="0"/>
        <pt x="447" y="119" on="0"/>
        <pt x="382" y="39" on="0"/>
        <pt x="295" y="-8" on="0"/>
        <pt x="246" y="-8" on="1"/>
        <pt x="214" y="-8" on="0"/>
        <pt x="148" y="15" on="0"/>
        <pt x="117" y="36" on="1"/>
        <pt x="94" y="52" on="1"/>
        <pt x="77" y="0" on="1"/>
        <pt x="42" y="4" on="1"/>
        <pt x="127" y="709" on="1"/>
        <pt x="178" y="709" on="1"/>
      </contour>
      <contour>
        <pt x="150" y="398" on="1"/>
        <pt x="143" y="393" on="0"/>
        <pt x="139" y="387" on="0"/>
        <pt x="138" y="381" on="1"/>
        <pt x="104" y="99" on="1"/>
        <pt x="103" y="88" on="0"/>
        <pt x="112" y="81" on="1"/>
        <pt x="139" y="61" on="0"/>
        <pt x="208" y="37" on="0"/>
        <pt x="244" y="37" on="1"/>
        <pt x="282" y="37" on="0"/>
        <pt x="351" y="71" on="0"/>
        <pt x="403" y="136" on="0"/>
        <pt x="434" y="227" on="0"/>
        <pt x="434" y="284" on="1"/>
        <pt x="434" y="319" on="0"/>
        <pt x="419" y="380" on="0"/>
        <pt x="387" y="426" on="0"/>
        <pt x="337" y="452" on="0"/>
        <pt x="302" y="452" on="1"/>
        <pt x="267" y="452" on="0"/>
        <pt x="183" y="420" on="0"/>
      </contour>
    </TTGlyph>
    <TTGlyph name="backslash" xMin="35" yMin="0" xMax="327" yMax="663">
      <contour>
        <pt x="278" y="0" on="1"/>
        <pt x="35" y="663" on="1"/>
        <pt x="85" y="663" on="1"/>
        <pt x="327" y="0" on="1"/>
      </contour>
    </TTGlyph>
    <TTGlyph name="bar" xMin="31" yMin="-229" xMax="188" yMax="709">
      <contour>
        <pt x="143" y="709" on="1"/>
        <pt x="188" y="709" on="1"/>
        <pt x="76" y="-229" on="1"/>
        <pt x="31" y="-229" on="1"/>
      </contour>
    </TTGlyph>
    <TTGlyph name="braceleft" xMin="48" yMin="-237" xMax="358" yMax="673">
      <contour>
        <pt x="52" y="233" on="1"/>
        <pt x="85" y="240" on="0"/>
        <pt x="131" y="261" on="0"/>
        <pt x="159" y="294" on="0"/>
        <pt x="171" y="341" on="0"/>
        <pt x="171" y="374" on="1"/>
        <pt x="171" y="393" on="0"/>
        <pt x="169" y="438" on="0"/>
        <pt x="166" y="485" on="0"/>
        <pt x="164" y="531" on="0"/>
        <pt x="164" y="550" on="1"/>
        <pt x="164" y="608" on="0"/>
        <pt x="220" y="673" on="0"/>
        <pt x="276" y="673" on="1"/>
        <pt x="297" y="673" on="0"/>
        <pt x="342" y="665" on="0"/>
        <pt x="358" y="660" on="1"/>
        <pt x="355" y="638" on="1"/>
        <pt x="284" y="631" on="1"/>
        <pt x="262" y="629" on="0"/>
        <pt x="234" y="618" on="0"/>
        <pt x="217" y="599" on="0"/>
        <pt x="211" y="570" on="0"/>
        <pt x="211" y="549" on="1"/>
        <pt x="211" y="504" on="0"/>
        <pt x="218" y="406" on="0"/>
        <pt x="218" y="374" on="1"/>
        <pt x="218" y="317" on="0"/>
        <pt x="169" y="241" on="0"/>
        <pt x="115" y="218" on="1"/>
        <pt x="150" y="203" on="0"/>
        <pt x="188" y="156" on="0"/>
        <pt x="188" y="117" on="1"/>
        <pt x="188" y="97" on="0"/>
        <pt x="176" y="48" on="0"/>
        <pt x="167" y="14" on="1"/>
        <pt x="148" y="-54" on="1"/>
        <pt x="136" y="-96" on="0"/>
        <pt x="125" y="-140" on="0"/>
        <pt x="125" y="-156" on="1"/>
        <pt x="125" y="-175" on="0"/>
        <pt x="147" y="-191" on="0"/>
        <pt x="170" y="-193" on="1"/>
        <pt x="255" y="-202" on="1"/>
        <pt x="252" y="-224" on="1"/>
        <pt x="234" y="-229" on="0"/>
        <pt x="185" y="-237" on="0"/>
        <pt x="165" y="-237" on="1"/>
        <pt x="123" y="-237" on="0"/>
        <pt x="78" y="-193" on="0"/>
        <pt x="78" y="-158" on="1"/>
        <pt x="78" y="-140" on="0"/>
        <pt x="91" y="-87" on="0"/>
        <pt x="103" y="-47" on="1"/>
        <pt x="124" y="24" on="1"/>
        <pt x="132" y="51" on="0"/>
        <pt x="142" y="98" on="0"/>
        <pt x="142" y="117" on="1"/>
        <pt x="142" y="155" on="0"/>
        <pt x="99" y="191" on="0"/>
        <pt x="48" y="202" on="1"/>
      </contour>
    </TTGlyph>
    <TTGlyph name="braceleft.cap" xMin="66" yMin="-125" xMax="376" yMax="785">
      <contour>
        <pt x="70" y="345" on="1"/>
        <pt x="103" y="352" on="0"/>
        <pt x="149" y="373" on="0"/>
        <pt x="177" y="406" on="0"/>
        <pt x="189" y="453" on="0"/>
        <pt x="189" y="486" on="1"/>
        <pt x="189" y="505" on="0"/>
        <pt x="187" y="550" on="0"/>
        <pt x="184" y="597" on="0"/>
        <pt x="182" y="643" on="0"/>
        <pt x="182" y="662" on="1"/>
        <pt x="182" y="720" on="0"/>
        <pt x="238" y="785" on="0"/>
        <pt x="294" y="785" on="1"/>
        <pt x="315" y="785" on="0"/>
        <pt x="360" y="777" on="0"/>
        <pt x="376" y="772" on="1"/>
        <pt x="373" y="750" on="1"/>
        <pt x="302" y="743" on="1"/>
        <pt x="280" y="741" on="0"/>
        <pt x="252" y="730" on="0"/>
        <pt x="235" y="711" on="0"/>
        <pt x="229" y="682" on="0"/>
        <pt x="229" y="661" on="1"/>
        <pt x="229" y="616" on="0"/>
        <pt x="236" y="518" on="0"/>
        <pt x="236" y="486" on="1"/>
        <pt x="236" y="429" on="0"/>
        <pt x="187" y="353" on="0"/>
        <pt x="133" y="330" on="1"/>
        <pt x="168" y="315" on="0"/>
        <pt x="206" y="268" on="0"/>
        <pt x="206" y="229" on="1"/>
        <pt x="206" y="209" on="0"/>
        <pt x="194" y="160" on="0"/>
        <pt x="185" y="126" on="1"/>
        <pt x="166" y="58" on="1"/>
        <pt x="154" y="16" on="0"/>
        <pt x="143" y="-28" on="0"/>
        <pt x="143" y="-44" on="1"/>
        <pt x="143" y="-63" on="0"/>
        <pt x="165" y="-79" on="0"/>
        <pt x="188" y="-81" on="1"/>
        <pt x="273" y="-90" on="1"/>
        <pt x="270" y="-112" on="1"/>
        <pt x="252" y="-117" on="0"/>
        <pt x="203" y="-125" on="0"/>
        <pt x="183" y="-125" on="1"/>
        <pt x="141" y="-125" on="0"/>
        <pt x="96" y="-81" on="0"/>
        <pt x="96" y="-46" on="1"/>
        <pt x="96" y="-28" on="0"/>
        <pt x="109" y="25" on="0"/>
        <pt x="121" y="65" on="1"/>
        <pt x="142" y="136" on="1"/>
        <pt x="150" y="163" on="0"/>
        <pt x="160" y="210" on="0"/>
        <pt x="160" y="229" on="1"/>
        <pt x="160" y="267" on="0"/>
        <pt x="117" y="303" on="0"/>
        <pt x="66" y="314" on="1"/>
      </contour>
    </TTGlyph>
    <TTGlyph name="braceright" xMin="-59" yMin="-237" xMax="251" yMax="673">
      <contour>
        <pt x="247" y="203" on="1"/>
        <pt x="214" y="196" on="0"/>
        <pt x="168" y="175" on="0"/>
        <pt x="140" y="142" on="0"/>
        <pt x="128" y="95" on="0"/>
        <pt x="128" y="62" on="1"/>
        <pt x="128" y="43" on="0"/>
        <pt x="130" y="-2" on="0"/>
        <pt x="133" y="-49" on="0"/>
        <pt x="135" y="-95" on="0"/>
        <pt x="135" y="-114" on="1"/>
        <pt x="135" y="-172" on="0"/>
        <pt x="79" y="-237" on="0"/>
        <pt x="23" y="-237" on="1"/>
        <pt x="2" y="-237" on="0"/>
        <pt x="-43" y="-229" on="0"/>
        <pt x="-59" y="-224" on="1"/>
        <pt x="-56" y="-202" on="1"/>
        <pt x="15" y="-195" on="1"/>
        <pt x="58" y="-191" on="0"/>
        <pt x="88" y="-154" on="0"/>
        <pt x="88" y="-113" on="1"/>
        <pt x="88" y="-68" on="0"/>
        <pt x="81" y="30" on="0"/>
        <pt x="81" y="62" on="1"/>
        <pt x="81" y="119" on="0"/>
        <pt x="130" y="195" on="0"/>
        <pt x="184" y="218" on="1"/>
        <pt x="149" y="233" on="0"/>
        <pt x="111" y="280" on="0"/>
        <pt x="111" y="319" on="1"/>
        <pt x="111" y="339" on="0"/>
        <pt x="123" y="388" on="0"/>
        <pt x="132" y="422" on="1"/>
        <pt x="151" y="490" on="1"/>
        <pt x="163" y="532" on="0"/>
        <pt x="174" y="576" on="0"/>
        <pt x="174" y="592" on="1"/>
        <pt x="174" y="611" on="0"/>
        <pt x="152" y="627" on="0"/>
        <pt x="129" y="629" on="1"/>
        <pt x="44" y="638" on="1"/>
        <pt x="47" y="660" on="1"/>
        <pt x="65" y="665" on="0"/>
        <pt x="114" y="673" on="0"/>
        <pt x="134" y="673" on="1"/>
        <pt x="176" y="673" on="0"/>
        <pt x="221" y="629" on="0"/>
        <pt x="221" y="594" on="1"/>
        <pt x="221" y="576" on="0"/>
        <pt x="208" y="523" on="0"/>
        <pt x="196" y="483" on="1"/>
        <pt x="175" y="412" on="1"/>
        <pt x="167" y="385" on="0"/>
        <pt x="157" y="338" on="0"/>
        <pt x="157" y="319" on="1"/>
        <pt x="157" y="281" on="0"/>
        <pt x="200" y="245" on="0"/>
        <pt x="251" y="234" on="1"/>
      </contour>
    </TTGlyph>
    <TTGlyph name="braceright.cap" xMin="-52" yMin="-125" xMax="258" yMax="785">
      <contour>
        <pt x="254" y="315" on="1"/>
        <pt x="221" y="308" on="0"/>
        <pt x="175" y="287" on="0"/>
        <pt x="147" y="254" on="0"/>
        <pt x="135" y="207" on="0"/>
        <pt x="135" y="174" on="1"/>
        <pt x="135" y="155" on="0"/>
        <pt x="137" y="110" on="0"/>
        <pt x="140" y="63" on="0"/>
        <pt x="142" y="17" on="0"/>
        <pt x="142" y="-2" on="1"/>
        <pt x="142" y="-60" on="0"/>
        <pt x="86" y="-125" on="0"/>
        <pt x="30" y="-125" on="1"/>
        <pt x="9" y="-125" on="0"/>
        <pt x="-36" y="-117" on="0"/>
        <pt x="-52" y="-112" on="1"/>
        <pt x="-49" y="-90" on="1"/>
        <pt x="22" y="-83" on="1"/>
        <pt x="65" y="-79" on="0"/>
        <pt x="95" y="-42" on="0"/>
        <pt x="95" y="-1" on="1"/>
        <pt x="95" y="44" on="0"/>
        <pt x="88" y="142" on="0"/>
        <pt x="88" y="174" on="1"/>
        <pt x="88" y="231" on="0"/>
        <pt x="137" y="307" on="0"/>
        <pt x="191" y="330" on="1"/>
        <pt x="156" y="345" on="0"/>
        <pt x="118" y="392" on="0"/>
        <pt x="118" y="431" on="1"/>
        <pt x="118" y="451" on="0"/>
        <pt x="130" y="500" on="0"/>
        <pt x="139" y="534" on="1"/>
        <pt x="158" y="602" on="1"/>
        <pt x="170" y="644" on="0"/>
        <pt x="181" y="688" on="0"/>
        <pt x="181" y="704" on="1"/>
        <pt x="181" y="723" on="0"/>
        <pt x="159" y="739" on="0"/>
        <pt x="136" y="741" on="1"/>
        <pt x="51" y="750" on="1"/>
        <pt x="54" y="772" on="1"/>
        <pt x="72" y="777" on="0"/>
        <pt x="121" y="785" on="0"/>
        <pt x="141" y="785" on="1"/>
        <pt x="183" y="785" on="0"/>
        <pt x="228" y="741" on="0"/>
        <pt x="228" y="706" on="1"/>
        <pt x="228" y="688" on="0"/>
        <pt x="215" y="635" on="0"/>
        <pt x="203" y="595" on="1"/>
        <pt x="182" y="524" on="1"/>
        <pt x="174" y="497" on="0"/>
        <pt x="164" y="450" on="0"/>
        <pt x="164" y="431" on="1"/>
        <pt x="164" y="393" on="0"/>
        <pt x="207" y="357" on="0"/>
        <pt x="258" y="346" on="1"/>
      </contour>
    </TTGlyph>
    <TTGlyph name="bracketleft" xMin="32" yMin="-229" xMax="324" yMax="663">
      <contour>
        <pt x="140" y="663" on="1"/>
        <pt x="324" y="663" on="1"/>
        <pt x="319" y="620" on="1"/>
        <pt x="185" y="620" on="1"/>
        <pt x="88" y="-186" on="1"/>
        <pt x="222" y="-186" on="1"/>
        <pt x="216" y="-229" on="1"/>
        <pt x="32" y="-229" on="1"/>
      </contour>
    </TTGlyph>
    <TTGlyph name="bracketleft.cap" xMin="56" yMin="-114" xMax="348" yMax="778">
      <contour>
        <pt x="164" y="778" on="1"/>
        <pt x="348" y="778" on="1"/>
        <pt x="343" y="735" on="1"/>
        <pt x="209" y="735" on="1"/>
        <pt x="112" y="-71" on="1"/>
        <pt x="246" y="-71" on="1"/>
        <pt x="240" y="-114" on="1"/>
        <pt x="56" y="-114" on="1"/>
      </contour>
    </TTGlyph>
    <TTGlyph name="bracketright" xMin="-60" yMin="-229" xMax="232" yMax="663">
      <contour>
        <pt x="124" y="-229" on="1"/>
        <pt x="-60" y="-229" on="1"/>
        <pt x="-55" y="-186" on="1"/>
        <pt x="79" y="-186" on="1"/>
        <pt x="176" y="620" on="1"/>
        <pt x="42" y="620" on="1"/>
        <pt x="48" y="663" on="1"/>
        <pt x="232" y="663" on="1"/>
      </contour>
    </TTGlyph>
    <TTGlyph name="bracketright.cap" xMin="-57" yMin="-114" xMax="235" yMax="778">
      <contour>
        <pt x="127" y="-114" on="1"/>
        <pt x="-57" y="-114" on="1"/>
        <pt x="-52" y="-71" on="1"/>
        <pt x="82" y="-71" on="1"/>
        <pt x="179" y="735" on="1"/>
        <pt x="45" y="735" on="1"/>
        <pt x="51" y="778" on="1"/>
        <pt x="235" y="778" on="1"/>
      </contour>
    </TTGlyph>
    <TTGlyph name="breve" xMin="91" yMin="551" xMax="368" yMax="681">
      <contour>
        <pt x="213" y="551" on="1"/>
        <pt x="190" y="551" on="0"/>
        <pt x="148" y="567" on="0"/>
        <pt x="115" y="599" on="0"/>
        <pt x="94" y="646" on="0"/>
        <pt x="91" y="677" on="1"/>
        <pt x="118" y="681" on="1"/>
        <pt x="129" y="643" on="0"/>
        <pt x="181" y="597" on="0"/>
        <pt x="219" y="597" on="1"/>
        <pt x="257" y="597" on="0"/>
        <pt x="323" y="643" on="0"/>
        <pt x="342" y="681" on="1"/>
        <pt x="368" y="677" on="1"/>
        <pt x="348" y="615" on="0"/>
        <pt x="264" y="551" on="0"/>
      </contour>
    </TTGlyph>
    <TTGlyph name="breve.cap" xMin="111" yMin="719" xMax="388" yMax="849">
      <contour>
        <pt x="233" y="719" on="1"/>
        <pt x="210" y="719" on="0"/>
        <pt x="168" y="735" on="0"/>
        <pt x="135" y="767" on="0"/>
        <pt x="114" y="814" on="0"/>
        <pt x="111" y="845" on="1"/>
        <pt x="138" y="849" on="1"/>
        <pt x="149" y="811" on="0"/>
        <pt x="201" y="765" on="0"/>
        <pt x="239" y="765" on="1"/>
        <pt x="277" y="765" on="0"/>
        <pt x="343" y="811" on="0"/>
        <pt x="362" y="849" on="1"/>
        <pt x="388" y="845" on="1"/>
        <pt x="368" y="783" on="0"/>
        <pt x="284" y="719" on="0"/>
      </contour>
    </TTGlyph>
    <TTGlyph name="brokenbar" xMin="32" yMin="-229" xMax="189" yMax="709">
      <contour>
        <pt x="144" y="709" on="1"/>
        <pt x="189" y="709" on="1"/>
        <pt x="139" y="291" on="1"/>
        <pt x="94" y="291" on="1"/>
      </contour>
      <contour>
        <pt x="82" y="189" on="1"/>
        <pt x="127" y="189" on="1"/>
        <pt x="77" y="-229" on="1"/>
        <pt x="32" y="-229" on="1"/>
      </contour>
    </TTGlyph>
    <TTGlyph name="bullet" xMin="78" yMin="194" xMax="263" yMax="365">
      <contour>
        <pt x="243" y="194" on="1"/>
        <pt x="78" y="194" on="1"/>
        <pt x="98" y="365" on="1"/>
        <pt x="244" y="365" on="1"/>
        <pt x="256" y="365" on="0"/>
        <pt x="263" y="358" on="0"/>
        <pt x="261" y="347" on="1"/>
      </contour>
    </TTGlyph>
    <TTGlyph name="bullet.cap" xMin="84" yMin="244" xMax="269" yMax="415">
      <contour>
        <pt x="249" y="244" on="1"/>
        <pt x="84" y="244" on="1"/>
        <pt x="104" y="415" on="1"/>
        <pt x="250" y="415" on="1"/>
        <pt x="262" y="415" on="0"/>
        <pt x="269" y="408" on="0"/>
        <pt x="267" y="397" on="1"/>
      </contour>
    </TTGlyph>
    <TTGlyph name="c" xMin="37" yMin="-8" xMax="457" yMax="496">
      <contour>
        <pt x="440" y="65" on="1"/>
        <pt x="395" y="33" on="0"/>
        <pt x="289" y="-8" on="0"/>
        <pt x="236" y="-8" on="1"/>
        <pt x="188" y="-8" on="0"/>
        <pt x="114" y="26" on="0"/>
        <pt x="63" y="85" on="0"/>
        <pt x="37" y="165" on="0"/>
        <pt x="37" y="211" on="1"/>
        <pt x="37" y="265" on="0"/>
        <pt x="72" y="368" on="0"/>
        <pt x="136" y="448" on="0"/>
        <pt x="225" y="496" on="0"/>
        <pt x="278" y="496" on="1"/>
        <pt x="343" y="496" on="0"/>
        <pt x="437" y="421" on="0"/>
        <pt x="457" y="367" on="1"/>
        <pt x="425" y="351" on="1"/>
        <pt x="402" y="377" on="1"/>
        <pt x="370" y="414" on="0"/>
        <pt x="314" y="452" on="0"/>
        <pt x="274" y="452" on="1"/>
        <pt x="236" y="452" on="0"/>
        <pt x="169" y="417" on="0"/>
        <pt x="119" y="354" on="0"/>
        <pt x="89" y="265" on="0"/>
        <pt x="89" y="211" on="1"/>
        <pt x="89" y="133" on="0"/>
        <pt x="168" y="36" on="0"/>
        <pt x="242" y="36" on="1"/>
        <pt x="269" y="36" on="0"/>
        <pt x="333" y="50" on="0"/>
        <pt x="369" y="66" on="1"/>
        <pt x="425" y="90" on="1"/>
      </contour>
    </TTGlyph>
    <TTGlyph name="cacute" xMin="37" yMin="-8" xMax="457" yMax="699">
      <component glyphName="c" x="0" y="0" flags="0x204"/>
      <component glyphName="acute" x="74" y="0" flags="0x4"/>
    </TTGlyph>
    <TTGlyph name="caron" xMin="93" yMin="541" xMax="385" yMax="697">
      <contour>
        <pt x="93" y="679" on="1"/>
        <pt x="113" y="697" on="1"/>
        <pt x="227" y="589" on="1"/>
        <pt x="230" y="589" on="1"/>
        <pt x="370" y="697" on="1"/>
        <pt x="385" y="679" on="1"/>
        <pt x="249" y="549" on="1"/>
        <pt x="241" y="541" on="0"/>
        <pt x="230" y="541" on="1"/>
        <pt x="217" y="541" on="1"/>
        <pt x="209" y="541" on="0"/>
        <pt x="203" y="544" on="0"/>
        <pt x="199" y="549" on="1"/>
      </contour>
    </TTGlyph>
    <TTGlyph name="caron.cap" xMin="116" yMin="721" xMax="408" yMax="877">
      <contour>
        <pt x="116" y="859" on="1"/>
        <pt x="136" y="877" on="1"/>
        <pt x="250" y="769" on="1"/>
        <pt x="253" y="769" on="1"/>
        <pt x="393" y="877" on="1"/>
        <pt x="408" y="859" on="1"/>
        <pt x="272" y="729" on="1"/>
        <pt x="264" y="721" on="0"/>
        <pt x="253" y="721" on="1"/>
        <pt x="240" y="721" on="1"/>
        <pt x="232" y="721" on="0"/>
        <pt x="226" y="724" on="0"/>
        <pt x="222" y="729" on="1"/>
      </contour>
    </TTGlyph>
    <TTGlyph name="ccaron" xMin="37" yMin="-8" xMax="457" yMax="697">
      <component glyphName="c" x="0" y="0" flags="0x204"/>
      <component glyphName="caron" x="65" y="0" flags="0x4"/>
    </TTGlyph>
    <TTGlyph name="ccedilla" xMin="37" yMin="-209" xMax="457" yMax="496">
      <contour>
        <pt x="440" y="65" on="1"/>
        <pt x="397" y="34" on="0"/>
        <pt x="294" y="-6" on="0"/>
        <pt x="243" y="-8" on="1"/>
        <pt x="236" y="-22" on="0"/>
        <pt x="236" y="-31" on="1"/>
        <pt x="236" y="-42" on="0"/>
        <pt x="267" y="-56" on="0"/>
        <pt x="303" y="-74" on="0"/>
        <pt x="334" y="-102" on="0"/>
        <pt x="334" y="-125" on="1"/>
        <pt x="334" y="-145" on="0"/>
        <pt x="309" y="-174" on="0"/>
        <pt x="265" y="-195" on="0"/>
        <pt x="205" y="-207" on="0"/>
        <pt x="170" y="-209" on="1"/>
        <pt x="164" y="-181" on="1"/>
        <pt x="235" y="-164" on="1"/>
        <pt x="261" y="-158" on="0"/>
        <pt x="288" y="-143" on="0"/>
        <pt x="288" y="-131" on="1"/>
        <pt x="288" y="-119" on="0"/>
        <pt x="258" y="-101" on="0"/>
        <pt x="221" y="-84" on="0"/>
        <pt x="191" y="-63" on="0"/>
        <pt x="191" y="-48" on="1"/>
        <pt x="191" y="-30" on="0"/>
        <pt x="210" y="-6" on="1"/>
        <pt x="168" y="-2" on="0"/>
        <pt x="104" y="35" on="0"/>
        <pt x="60" y="93" on="0"/>
        <pt x="37" y="168" on="0"/>
        <pt x="37" y="211" on="1"/>
        <pt x="37" y="265" on="0"/>
        <pt x="72" y="368" on="0"/>
        <pt x="136" y="448" on="0"/>
        <pt x="225" y="496" on="0"/>
        <pt x="278" y="496" on="1"/>
        <pt x="343" y="496" on="0"/>
        <pt x="437" y="421" on="0"/>
        <pt x="457" y="367" on="1"/>
        <pt x="425" y="351" on="1"/>
        <pt x="402" y="377" on="1"/>
        <pt x="370" y="414" on="0"/>
        <pt x="314" y="452" on="0"/>
        <pt x="274" y="452" on="1"/>
        <pt x="236" y="452" on="0"/>
        <pt x="169" y="417" on="0"/>
        <pt x="119" y="354" on="0"/>
        <pt x="89" y="265" on="0"/>
        <pt x="89" y="211" on="1"/>
        <pt x="89" y="133" on="0"/>
        <pt x="168" y="36" on="0"/>
        <pt x="242" y="36" on="1"/>
        <pt x="269" y="36" on="0"/>
        <pt x="333" y="50" on="0"/>
        <pt x="369" y="66" on="1"/>
        <pt x="425" y="90" on="1"/>
      </contour>
    </TTGlyph>
    <TTGlyph name="ccircumflex" xMin="37" yMin="-8" xMax="457" yMax="699">
      <component glyphName="c" x="0" y="0" flags="0x204"/>
      <component glyphName="circumflex" x="68" y="0" flags="0x4"/>
    </TTGlyph>
    <TTGlyph name="cdotaccent" xMin="37" yMin="-8" xMax="457" yMax="648">
      <component glyphName="c" x="0" y="0" flags="0x204"/>
      <component glyphName="dotaccent" x="69" y="0" flags="0x4"/>
    </TTGlyph>
    <TTGlyph name="cedilla" xMin="84" yMin="-209" xMax="254" yMax="29">
      <contour>
        <pt x="182" y="20" on="1"/>
        <pt x="174" y="9" on="0"/>
        <pt x="156" y="-20" on="0"/>
        <pt x="156" y="-31" on="1"/>
        <pt x="156" y="-42" on="0"/>
        <pt x="187" y="-56" on="0"/>
        <pt x="223" y="-74" on="0"/>
        <pt x="254" y="-102" on="0"/>
        <pt x="254" y="-125" on="1"/>
        <pt x="254" y="-145" on="0"/>
        <pt x="229" y="-174" on="0"/>
        <pt x="185" y="-195" on="0"/>
        <pt x="125" y="-207" on="0"/>
        <pt x="90" y="-209" on="1"/>
        <pt x="84" y="-181" on="1"/>
        <pt x="155" y="-164" on="1"/>
        <pt x="181" y="-158" on="0"/>
        <pt x="208" y="-143" on="0"/>
        <pt x="208" y="-131" on="1"/>
        <pt x="208" y="-119" on="0"/>
        <pt x="178" y="-101" on="0"/>
        <pt x="141" y="-84" on="0"/>
        <pt x="111" y="-63" on="0"/>
        <pt x="111" y="-48" on="1"/>
        <pt x="111" y="-31" on="0"/>
        <pt x="142" y="9" on="0"/>
        <pt x="164" y="29" on="1"/>
      </contour>
    </TTGlyph>
    <TTGlyph name="cent" xMin="82" yMin="-104" xMax="502" yMax="588">
      <contour>
        <pt x="485" y="65" on="1"/>
        <pt x="443" y="35" on="0"/>
        <pt x="343" y="-6" on="0"/>
        <pt x="292" y="-8" on="1"/>
        <pt x="272" y="-104" on="1"/>
        <pt x="240" y="-104" on="1"/>
        <pt x="252" y="-6" on="1"/>
        <pt x="211" y="-1" on="0"/>
        <pt x="148" y="36" on="0"/>
        <pt x="104" y="94" on="0"/>
        <pt x="82" y="169" on="0"/>
        <pt x="82" y="211" on="1"/>
        <pt x="82" y="264" on="0"/>
        <pt x="116" y="364" on="0"/>
        <pt x="177" y="443" on="0"/>
        <pt x="262" y="493" on="0"/>
        <pt x="313" y="495" on="1"/>
        <pt x="333" y="588" on="1"/>
        <pt x="365" y="588" on="1"/>
        <pt x="353" y="493" on="1"/>
        <pt x="407" y="485" on="0"/>
        <pt x="485" y="415" on="0"/>
        <pt x="502" y="367" on="1"/>
        <pt x="470" y="351" on="1"/>
        <pt x="447" y="377" on="1"/>
        <pt x="421" y="406" on="0"/>
        <pt x="375" y="443" on="0"/>
        <pt x="347" y="449" on="1"/>
        <pt x="297" y="36" on="1"/>
        <pt x="348" y="37" on="0"/>
        <pt x="414" y="66" on="1"/>
        <pt x="470" y="90" on="1"/>
      </contour>
      <contour>
        <pt x="134" y="211" on="1"/>
        <pt x="134" y="141" on="0"/>
        <pt x="197" y="48" on="0"/>
        <pt x="257" y="38" on="1"/>
        <pt x="307" y="451" on="1"/>
        <pt x="271" y="448" on="0"/>
        <pt x="208" y="412" on="0"/>
        <pt x="161" y="349" on="0"/>
        <pt x="134" y="263" on="0"/>
      </contour>
    </TTGlyph>
    <TTGlyph name="cent.lprop" xMin="50" yMin="-104" xMax="470" yMax="588">
      <component glyphName="cent" x="-32" y="0" flags="0x4"/>
    </TTGlyph>
    <TTGlyph name="cent.oprop" xMin="44" yMin="-104" xMax="418" yMax="536">
      <component glyphName="cent.otab" x="-58" y="0" flags="0x4"/>
    </TTGlyph>
    <TTGlyph name="cent.otab" xMin="102" yMin="-104" xMax="476" yMax="536">
      <contour>
        <pt x="461" y="57" on="1"/>
        <pt x="424" y="31" on="0"/>
        <pt x="338" y="-5" on="0"/>
        <pt x="293" y="-7" on="1"/>
        <pt x="275" y="-104" on="1"/>
        <pt x="245" y="-104" on="1"/>
        <pt x="257" y="-7" on="1"/>
        <pt x="220" y="-3" on="0"/>
        <pt x="162" y="30" on="0"/>
        <pt x="123" y="81" on="0"/>
        <pt x="102" y="149" on="0"/>
        <pt x="102" y="187" on="1"/>
        <pt x="102" y="234" on="0"/>
        <pt x="132" y="324" on="0"/>
        <pt x="187" y="395" on="0"/>
        <pt x="264" y="439" on="0"/>
        <pt x="310" y="441" on="1"/>
        <pt x="328" y="536" on="1"/>
        <pt x="359" y="536" on="1"/>
        <pt x="347" y="438" on="1"/>
        <pt x="393" y="429" on="0"/>
        <pt x="461" y="366" on="0"/>
        <pt x="476" y="326" on="1"/>
        <pt x="444" y="310" on="1"/>
        <pt x="425" y="332" on="1"/>
        <pt x="402" y="358" on="0"/>
        <pt x="365" y="388" on="0"/>
        <pt x="342" y="394" on="1"/>
        <pt x="299" y="35" on="1"/>
        <pt x="322" y="37" on="0"/>
        <pt x="371" y="51" on="0"/>
        <pt x="396" y="62" on="1"/>
        <pt x="445" y="83" on="1"/>
      </contour>
      <contour>
        <pt x="151" y="187" on="1"/>
        <pt x="151" y="125" on="0"/>
        <pt x="208" y="44" on="0"/>
        <pt x="262" y="36" on="1"/>
        <pt x="305" y="398" on="1"/>
        <pt x="273" y="396" on="0"/>
        <pt x="217" y="364" on="0"/>
        <pt x="175" y="309" on="0"/>
        <pt x="151" y="233" on="0"/>
      </contour>
    </TTGlyph>
    <TTGlyph name="circumflex" xMin="78" yMin="543" xMax="370" yMax="699">
      <contour>
        <pt x="370" y="561" on="1"/>
        <pt x="350" y="543" on="1"/>
        <pt x="236" y="651" on="1"/>
        <pt x="233" y="651" on="1"/>
        <pt x="93" y="543" on="1"/>
        <pt x="78" y="561" on="1"/>
        <pt x="214" y="691" on="1"/>
        <pt x="222" y="699" on="0"/>
        <pt x="233" y="699" on="1"/>
        <pt x="246" y="699" on="1"/>
        <pt x="254" y="699" on="0"/>
        <pt x="260" y="696" on="0"/>
        <pt x="264" y="691" on="1"/>
      </contour>
    </TTGlyph>
    <TTGlyph name="circumflex.cap" xMin="93" yMin="710" xMax="385" yMax="866">
      <contour>
        <pt x="385" y="728" on="1"/>
        <pt x="365" y="710" on="1"/>
        <pt x="251" y="818" on="1"/>
        <pt x="248" y="818" on="1"/>
        <pt x="108" y="710" on="1"/>
        <pt x="93" y="728" on="1"/>
        <pt x="229" y="858" on="1"/>
        <pt x="237" y="866" on="0"/>
        <pt x="248" y="866" on="1"/>
        <pt x="261" y="866" on="1"/>
        <pt x="269" y="866" on="0"/>
        <pt x="275" y="863" on="0"/>
        <pt x="279" y="858" on="1"/>
      </contour>
    </TTGlyph>
    <TTGlyph name="colon" xMin="30" yMin="0" xMax="143" yMax="403">
      <contour>
        <pt x="37" y="70" on="1"/>
        <pt x="92" y="70" on="1"/>
        <pt x="104" y="70" on="0"/>
        <pt x="103" y="59" on="1"/>
        <pt x="97" y="0" on="1"/>
        <pt x="30" y="0" on="1"/>
      </contour>
      <contour>
        <pt x="76" y="403" on="1"/>
        <pt x="131" y="403" on="1"/>
        <pt x="143" y="403" on="0"/>
        <pt x="142" y="392" on="1"/>
        <pt x="136" y="333" on="1"/>
        <pt x="69" y="333" on="1"/>
      </contour>
    </TTGlyph>
    <TTGlyph name="comma" xMin="-19" yMin="-138" xMax="105" yMax="70">
      <contour>
        <pt x="93" y="70" on="1"/>
        <pt x="101" y="70" on="0"/>
        <pt x="105" y="65" on="0"/>
        <pt x="104" y="59" on="1"/>
        <pt x="101" y="30" on="1"/>
        <pt x="99" y="9" on="0"/>
        <pt x="89" y="-24" on="0"/>
        <pt x="67" y="-60" on="0"/>
        <pt x="29" y="-105" on="0"/>
        <pt x="-1" y="-138" on="1"/>
        <pt x="-19" y="-127" on="1"/>
        <pt x="48" y="-16" on="1"/>
        <pt x="50" y="-12" on="0"/>
        <pt x="51" y="-8" on="0"/>
        <pt x="48" y="-5" on="1"/>
        <pt x="39" y="4" on="1"/>
        <pt x="34" y="9" on="0"/>
        <pt x="31" y="15" on="0"/>
        <pt x="32" y="23" on="1"/>
        <pt x="37" y="70" on="1"/>
      </contour>
    </TTGlyph>
    <TTGlyph name="commaaccent" xMin="78" yMin="-250" xMax="189" yMax="-58">
      <contour>
        <pt x="78" y="-245" on="1"/>
        <pt x="136" y="-58" on="1"/>
        <pt x="176" y="-58" on="1"/>
        <pt x="189" y="-58" on="0"/>
        <pt x="189" y="-71" on="1"/>
        <pt x="189" y="-81" on="0"/>
        <pt x="179" y="-107" on="0"/>
        <pt x="166" y="-130" on="1"/>
        <pt x="100" y="-250" on="1"/>
      </contour>
    </TTGlyph>
    <TTGlyph name="copyright" xMin="40" yMin="-10" xMax="696" yMax="673">
      <contour>
        <pt x="480" y="233" on="1"/>
        <pt x="453" y="213" on="0"/>
        <pt x="384" y="185" on="0"/>
        <pt x="353" y="185" on="1"/>
        <pt x="324" y="185" on="0"/>
        <pt x="278" y="206" on="0"/>
        <pt x="247" y="242" on="0"/>
        <pt x="231" y="291" on="0"/>
        <pt x="231" y="319" on="1"/>
        <pt x="231" y="350" on="0"/>
        <pt x="253" y="409" on="0"/>
        <pt x="292" y="455" on="0"/>
        <pt x="346" y="483" on="0"/>
        <pt x="377" y="483" on="1"/>
        <pt x="418" y="483" on="0"/>
        <pt x="477" y="435" on="0"/>
        <pt x="490" y="402" on="1"/>
        <pt x="468" y="388" on="1"/>
        <pt x="445" y="411" on="1"/>
        <pt x="427" y="429" on="0"/>
        <pt x="395" y="447" on="0"/>
        <pt x="374" y="447" on="1"/>
        <pt x="350" y="447" on="0"/>
        <pt x="312" y="426" on="0"/>
        <pt x="285" y="390" on="0"/>
        <pt x="271" y="344" on="0"/>
        <pt x="271" y="320" on="1"/>
        <pt x="271" y="275" on="0"/>
        <pt x="316" y="222" on="0"/>
        <pt x="355" y="222" on="1"/>
        <pt x="372" y="222" on="0"/>
        <pt x="410" y="231" on="0"/>
        <pt x="436" y="241" on="1"/>
        <pt x="468" y="253" on="1"/>
      </contour>
      <contour>
        <pt x="331" y="-10" on="1"/>
        <pt x="268" y="-10" on="0"/>
        <pt x="161" y="39" on="0"/>
        <pt x="83" y="123" on="0"/>
        <pt x="40" y="235" on="0"/>
        <pt x="40" y="298" on="1"/>
        <pt x="40" y="371" on="0"/>
        <pt x="95" y="507" on="0"/>
        <pt x="193" y="611" on="0"/>
        <pt x="327" y="673" on="0"/>
        <pt x="405" y="673" on="1"/>
        <pt x="468" y="673" on="0"/>
        <pt x="575" y="624" on="0"/>
        <pt x="653" y="540" on="0"/>
        <pt x="696" y="428" on="0"/>
        <pt x="696" y="365" on="1"/>
        <pt x="696" y="291" on="0"/>
        <pt x="640" y="156" on="0"/>
        <pt x="543" y="52" on="0"/>
        <pt x="409" y="-10" on="0"/>
      </contour>
      <contour>
        <pt x="401" y="630" on="1"/>
        <pt x="328" y="630" on="0"/>
        <pt x="211" y="574" on="0"/>
        <pt x="129" y="481" on="0"/>
        <pt x="85" y="361" on="0"/>
        <pt x="85" y="298" on="1"/>
        <pt x="85" y="241" on="0"/>
        <pt x="121" y="144" on="0"/>
        <pt x="187" y="72" on="0"/>
        <pt x="279" y="32" on="0"/>
        <pt x="335" y="32" on="1"/>
        <pt x="407" y="32" on="0"/>
        <pt x="524" y="88" on="0"/>
        <pt x="607" y="181" on="0"/>
        <pt x="651" y="301" on="0"/>
        <pt x="651" y="364" on="1"/>
        <pt x="651" y="421" on="0"/>
        <pt x="614" y="518" on="0"/>
        <pt x="548" y="590" on="0"/>
        <pt x="456" y="630" on="0"/>
      </contour>
    </TTGlyph>
    <TTGlyph name="currency" xMin="50" yMin="110" xMax="553" yMax="551">
      <contour>
        <pt x="285" y="168" on="1"/>
        <pt x="319" y="168" on="0"/>
        <pt x="377" y="199" on="0"/>
        <pt x="417" y="250" on="0"/>
        <pt x="440" y="317" on="0"/>
        <pt x="440" y="354" on="1"/>
        <pt x="440" y="420" on="0"/>
        <pt x="374" y="493" on="0"/>
        <pt x="318" y="493" on="1"/>
        <pt x="283" y="493" on="0"/>
        <pt x="226" y="462" on="0"/>
        <pt x="186" y="411" on="0"/>
        <pt x="163" y="344" on="0"/>
        <pt x="163" y="307" on="1"/>
        <pt x="163" y="241" on="0"/>
        <pt x="229" y="168" on="0"/>
      </contour>
      <contour>
        <pt x="280" y="124" on="1"/>
        <pt x="242" y="124" on="0"/>
        <pt x="179" y="153" on="0"/>
        <pt x="157" y="180" on="1"/>
        <pt x="79" y="110" on="1"/>
        <pt x="50" y="140" on="1"/>
        <pt x="135" y="214" on="1"/>
        <pt x="116" y="254" on="0"/>
        <pt x="116" y="302" on="1"/>
        <pt x="116" y="344" on="0"/>
        <pt x="141" y="421" on="0"/>
        <pt x="163" y="452" on="1"/>
        <pt x="98" y="522" on="1"/>
        <pt x="132" y="551" on="1"/>
        <pt x="192" y="484" on="1"/>
        <pt x="218" y="509" on="0"/>
        <pt x="285" y="537" on="0"/>
        <pt x="323" y="537" on="1"/>
        <pt x="361" y="537" on="0"/>
        <pt x="424" y="508" on="0"/>
        <pt x="446" y="481" on="1"/>
        <pt x="524" y="551" on="1"/>
        <pt x="553" y="521" on="1"/>
        <pt x="468" y="447" on="1"/>
        <pt x="487" y="407" on="0"/>
        <pt x="487" y="359" on="1"/>
        <pt x="487" y="317" on="0"/>
        <pt x="462" y="240" on="0"/>
        <pt x="440" y="209" on="1"/>
        <pt x="505" y="139" on="1"/>
        <pt x="471" y="110" on="1"/>
        <pt x="411" y="177" on="1"/>
        <pt x="385" y="152" on="0"/>
        <pt x="318" y="124" on="0"/>
      </contour>
    </TTGlyph>
    <TTGlyph name="d" xMin="38" yMin="-8" xMax="504" yMax="709">
      <contour>
        <pt x="477" y="484" on="1"/>
        <pt x="469" y="420" on="0"/>
        <pt x="451" y="268" on="0"/>
        <pt x="443" y="201" on="1"/>
        <pt x="433" y="123" on="0"/>
        <pt x="424" y="44" on="1"/>
        <pt x="502" y="32" on="1"/>
        <pt x="499" y="12" on="1"/>
        <pt x="485" y="6" on="0"/>
        <pt x="447" y="-2" on="0"/>
        <pt x="434" y="-2" on="1"/>
        <pt x="408" y="-2" on="0"/>
        <pt x="376" y="28" on="0"/>
        <pt x="376" y="55" on="1"/>
        <pt x="354" y="41" on="1"/>
        <pt x="319" y="18" on="0"/>
        <pt x="245" y="-8" on="0"/>
        <pt x="210" y="-8" on="1"/>
        <pt x="168" y="-8" on="0"/>
        <pt x="104" y="25" on="0"/>
        <pt x="60" y="82" on="0"/>
        <pt x="38" y="158" on="0"/>
        <pt x="38" y="202" on="1"/>
        <pt x="38" y="262" on="0"/>
        <pt x="77" y="369" on="0"/>
        <pt x="143" y="449" on="0"/>
        <pt x="231" y="496" on="0"/>
        <pt x="280" y="496" on="1"/>
        <pt x="342" y="496" on="0"/>
        <pt x="403" y="452" on="1"/>
        <pt x="421" y="439" on="1"/>
        <pt x="453" y="709" on="1"/>
        <pt x="504" y="709" on="1"/>
      </contour>
      <contour>
        <pt x="369" y="90" on="1"/>
        <pt x="376" y="95" on="0"/>
        <pt x="379" y="102" on="0"/>
        <pt x="380" y="107" on="1"/>
        <pt x="415" y="389" on="1"/>
        <pt x="416" y="396" on="0"/>
        <pt x="412" y="402" on="0"/>
        <pt x="407" y="406" on="1"/>
        <pt x="380" y="426" on="0"/>
        <pt x="318" y="451" on="0"/>
        <pt x="282" y="451" on="1"/>
        <pt x="243" y="451" on="0"/>
        <pt x="172" y="417" on="0"/>
        <pt x="120" y="352" on="0"/>
        <pt x="89" y="261" on="0"/>
        <pt x="89" y="204" on="1"/>
        <pt x="89" y="169" on="0"/>
        <pt x="103" y="108" on="0"/>
        <pt x="134" y="62" on="0"/>
        <pt x="184" y="36" on="0"/>
        <pt x="219" y="36" on="1"/>
        <pt x="254" y="36" on="0"/>
        <pt x="336" y="68" on="0"/>
      </contour>
    </TTGlyph>
    <TTGlyph name="dagger" xMin="45" yMin="-229" xMax="493" yMax="663">
      <contour>
        <pt x="193" y="-79" on="1"/>
        <pt x="195" y="-56" on="0"/>
        <pt x="200" y="0" on="0"/>
        <pt x="202" y="19" on="1"/>
        <pt x="220" y="165" on="1"/>
        <pt x="222" y="183" on="0"/>
        <pt x="229" y="231" on="0"/>
        <pt x="235" y="266" on="1"/>
        <pt x="251" y="364" on="1"/>
        <pt x="226" y="362" on="0"/>
        <pt x="172" y="359" on="0"/>
        <pt x="121" y="356" on="0"/>
        <pt x="76" y="355" on="0"/>
        <pt x="60" y="355" on="1"/>
        <pt x="45" y="355" on="1"/>
        <pt x="51" y="400" on="1"/>
        <pt x="65" y="400" on="1"/>
        <pt x="80" y="400" on="0"/>
        <pt x="124" y="398" on="0"/>
        <pt x="175" y="396" on="0"/>
        <pt x="229" y="392" on="0"/>
        <pt x="255" y="391" on="1"/>
        <pt x="261" y="478" on="1"/>
        <pt x="263" y="506" on="0"/>
        <pt x="268" y="568" on="0"/>
        <pt x="270" y="589" on="1"/>
        <pt x="279" y="663" on="1"/>
        <pt x="328" y="663" on="1"/>
        <pt x="319" y="589" on="1"/>
        <pt x="316" y="564" on="0"/>
        <pt x="308" y="512" on="0"/>
        <pt x="302" y="478" on="1"/>
        <pt x="287" y="391" on="1"/>
        <pt x="314" y="393" on="0"/>
        <pt x="369" y="396" on="0"/>
        <pt x="420" y="399" on="0"/>
        <pt x="463" y="400" on="0"/>
        <pt x="478" y="400" on="1"/>
        <pt x="493" y="400" on="1"/>
        <pt x="487" y="355" on="1"/>
        <pt x="473" y="355" on="1"/>
        <pt x="457" y="355" on="0"/>
        <pt x="413" y="357" on="0"/>
        <pt x="362" y="359" on="0"/>
        <pt x="308" y="362" on="0"/>
        <pt x="283" y="364" on="1"/>
        <pt x="277" y="270" on="1"/>
        <pt x="277" y="263" on="0"/>
        <pt x="275" y="238" on="0"/>
        <pt x="272" y="209" on="0"/>
        <pt x="268" y="179" on="0"/>
        <pt x="267" y="167" on="1"/>
        <pt x="250" y="28" on="1"/>
        <pt x="247" y="1" on="0"/>
        <pt x="238" y="-55" on="0"/>
        <pt x="233" y="-85" on="1"/>
        <pt x="209" y="-229" on="1"/>
        <pt x="183" y="-229" on="1"/>
      </contour>
    </TTGlyph>
    <TTGlyph name="daggerdbl" xMin="7" yMin="-229" xMax="493" yMax="663">
      <contour>
        <pt x="271" y="197" on="1"/>
        <pt x="269" y="182" on="0"/>
        <pt x="263" y="148" on="0"/>
        <pt x="256" y="113" on="0"/>
        <pt x="250" y="82" on="0"/>
        <pt x="247" y="70" on="1"/>
        <pt x="272" y="72" on="0"/>
        <pt x="326" y="75" on="0"/>
        <pt x="379" y="78" on="0"/>
        <pt x="424" y="79" on="0"/>
        <pt x="440" y="79" on="1"/>
        <pt x="455" y="79" on="1"/>
        <pt x="449" y="34" on="1"/>
        <pt x="435" y="34" on="1"/>
        <pt x="420" y="34" on="0"/>
        <pt x="376" y="36" on="0"/>
        <pt x="325" y="38" on="0"/>
        <pt x="270" y="41" on="0"/>
        <pt x="245" y="43" on="1"/>
        <pt x="239" y="-44" on="1"/>
        <pt x="237" y="-72" on="0"/>
        <pt x="232" y="-134" on="0"/>
        <pt x="230" y="-155" on="1"/>
        <pt x="221" y="-229" on="1"/>
        <pt x="172" y="-229" on="1"/>
        <pt x="181" y="-155" on="1"/>
        <pt x="184" y="-130" on="0"/>
        <pt x="192" y="-78" on="0"/>
        <pt x="198" y="-44" on="1"/>
        <pt x="213" y="43" on="1"/>
        <pt x="186" y="41" on="0"/>
        <pt x="131" y="38" on="0"/>
        <pt x="80" y="35" on="0"/>
        <pt x="37" y="34" on="0"/>
        <pt x="22" y="34" on="1"/>
        <pt x="7" y="34" on="1"/>
        <pt x="13" y="79" on="1"/>
        <pt x="27" y="79" on="1"/>
        <pt x="43" y="79" on="0"/>
        <pt x="87" y="77" on="0"/>
        <pt x="137" y="75" on="0"/>
        <pt x="191" y="71" on="0"/>
        <pt x="216" y="70" on="1"/>
        <pt x="218" y="116" on="0"/>
        <pt x="222" y="192" on="0"/>
        <pt x="226" y="221" on="1"/>
        <pt x="228" y="237" on="1"/>
        <pt x="230" y="252" on="0"/>
        <pt x="236" y="287" on="0"/>
        <pt x="242" y="321" on="0"/>
        <pt x="248" y="352" on="0"/>
        <pt x="251" y="364" on="1"/>
        <pt x="226" y="362" on="0"/>
        <pt x="172" y="359" on="0"/>
        <pt x="121" y="356" on="0"/>
        <pt x="76" y="355" on="0"/>
        <pt x="60" y="355" on="1"/>
        <pt x="45" y="355" on="1"/>
        <pt x="51" y="400" on="1"/>
        <pt x="65" y="400" on="1"/>
        <pt x="80" y="400" on="0"/>
        <pt x="124" y="398" on="0"/>
        <pt x="175" y="396" on="0"/>
        <pt x="229" y="392" on="0"/>
        <pt x="255" y="391" on="1"/>
        <pt x="261" y="478" on="1"/>
        <pt x="263" y="506" on="0"/>
        <pt x="268" y="568" on="0"/>
        <pt x="270" y="589" on="1"/>
        <pt x="279" y="663" on="1"/>
        <pt x="328" y="663" on="1"/>
        <pt x="319" y="589" on="1"/>
        <pt x="316" y="564" on="0"/>
        <pt x="308" y="512" on="0"/>
        <pt x="302" y="478" on="1"/>
        <pt x="287" y="391" on="1"/>
        <pt x="314" y="393" on="0"/>
        <pt x="369" y="396" on="0"/>
        <pt x="420" y="399" on="0"/>
        <pt x="463" y="400" on="0"/>
        <pt x="478" y="400" on="1"/>
        <pt x="493" y="400" on="1"/>
        <pt x="487" y="355" on="1"/>
        <pt x="473" y="355" on="1"/>
        <pt x="457" y="355" on="0"/>
        <pt x="413" y="357" on="0"/>
        <pt x="362" y="359" on="0"/>
        <pt x="308" y="362" on="0"/>
        <pt x="283" y="364" on="1"/>
        <pt x="281" y="318" on="0"/>
        <pt x="277" y="242" on="0"/>
        <pt x="273" y="213" on="1"/>
        <pt x="271" y="197" on="1"/>
      </contour>
    </TTGlyph>
    <TTGlyph name="dcaron" xMin="38" yMin="-8" xMax="640" yMax="709">
      <component glyphName="d" x="0" y="0" flags="0x4"/>
      <component glyphName="commaaccent" x="451" y="767" flags="0x4"/>
    </TTGlyph>
    <TTGlyph name="dcroat" xMin="38" yMin="-8" xMax="573" yMax="709">
      <contour>
        <pt x="477" y="484" on="1"/>
        <pt x="469" y="420" on="0"/>
        <pt x="451" y="268" on="0"/>
        <pt x="443" y="201" on="1"/>
        <pt x="433" y="123" on="0"/>
        <pt x="424" y="44" on="1"/>
        <pt x="502" y="32" on="1"/>
        <pt x="499" y="12" on="1"/>
        <pt x="485" y="6" on="0"/>
        <pt x="447" y="-2" on="0"/>
        <pt x="434" y="-2" on="1"/>
        <pt x="408" y="-2" on="0"/>
        <pt x="376" y="28" on="0"/>
        <pt x="376" y="55" on="1"/>
        <pt x="354" y="41" on="1"/>
        <pt x="319" y="18" on="0"/>
        <pt x="245" y="-8" on="0"/>
        <pt x="210" y="-8" on="1"/>
        <pt x="168" y="-8" on="0"/>
        <pt x="104" y="25" on="0"/>
        <pt x="60" y="82" on="0"/>
        <pt x="38" y="158" on="0"/>
        <pt x="38" y="202" on="1"/>
        <pt x="38" y="262" on="0"/>
        <pt x="77" y="369" on="0"/>
        <pt x="143" y="449" on="0"/>
        <pt x="231" y="496" on="0"/>
        <pt x="280" y="496" on="1"/>
        <pt x="342" y="496" on="0"/>
        <pt x="403" y="452" on="1"/>
        <pt x="421" y="439" on="1"/>
        <pt x="438" y="588" on="1"/>
        <pt x="231" y="588" on="1"/>
        <pt x="235" y="626" on="1"/>
        <pt x="443" y="626" on="1"/>
        <pt x="453" y="709" on="1"/>
        <pt x="504" y="709" on="1"/>
        <pt x="494" y="625" on="1"/>
        <pt x="573" y="611" on="1"/>
        <pt x="571" y="588" on="1"/>
        <pt x="489" y="588" on="1"/>
      </contour>
      <contour>
        <pt x="369" y="90" on="1"/>
        <pt x="376" y="95" on="0"/>
        <pt x="379" y="102" on="0"/>
        <pt x="380" y="107" on="1"/>
        <pt x="415" y="389" on="1"/>
        <pt x="416" y="396" on="0"/>
        <pt x="412" y="402" on="0"/>
        <pt x="407" y="406" on="1"/>
        <pt x="380" y="426" on="0"/>
        <pt x="318" y="451" on="0"/>
        <pt x="282" y="451" on="1"/>
        <pt x="243" y="451" on="0"/>
        <pt x="172" y="417" on="0"/>
        <pt x="120" y="352" on="0"/>
        <pt x="89" y="261" on="0"/>
        <pt x="89" y="204" on="1"/>
        <pt x="89" y="169" on="0"/>
        <pt x="103" y="108" on="0"/>
        <pt x="134" y="62" on="0"/>
        <pt x="184" y="36" on="0"/>
        <pt x="219" y="36" on="1"/>
        <pt x="254" y="36" on="0"/>
        <pt x="336" y="68" on="0"/>
      </contour>
    </TTGlyph>
    <TTGlyph name="degree" xMin="80" yMin="347" xMax="388" yMax="673">
      <contour>
        <pt x="388" y="522" on="1"/>
        <pt x="388" y="489" on="0"/>
        <pt x="363" y="426" on="0"/>
        <pt x="318" y="377" on="0"/>
        <pt x="258" y="347" on="0"/>
        <pt x="222" y="347" on="1"/>
        <pt x="191" y="347" on="0"/>
        <pt x="139" y="370" on="0"/>
        <pt x="101" y="410" on="0"/>
        <pt x="80" y="466" on="0"/>
        <pt x="80" y="498" on="1"/>
        <pt x="80" y="531" on="0"/>
        <pt x="105" y="594" on="0"/>
        <pt x="150" y="643" on="0"/>
        <pt x="210" y="673" on="0"/>
        <pt x="246" y="673" on="1"/>
        <pt x="277" y="673" on="0"/>
        <pt x="329" y="650" on="0"/>
        <pt x="367" y="609" on="0"/>
        <pt x="388" y="554" on="0"/>
      </contour>
      <contour>
        <pt x="342" y="522" on="1"/>
        <pt x="342" y="570" on="0"/>
        <pt x="290" y="630" on="0"/>
        <pt x="245" y="630" on="1"/>
        <pt x="216" y="630" on="0"/>
        <pt x="172" y="608" on="0"/>
        <pt x="142" y="571" on="0"/>
        <pt x="126" y="523" on="0"/>
        <pt x="126" y="498" on="1"/>
        <pt x="126" y="450" on="0"/>
        <pt x="178" y="390" on="0"/>
        <pt x="223" y="390" on="1"/>
        <pt x="251" y="390" on="0"/>
        <pt x="296" y="412" on="0"/>
        <pt x="326" y="449" on="0"/>
        <pt x="342" y="496" on="0"/>
      </contour>
    </TTGlyph>
    <TTGlyph name="dieresis" xMin="103" yMin="572" xMax="343" yMax="646">
      <contour>
        <pt x="112" y="646" on="1"/>
        <pt x="167" y="646" on="1"/>
        <pt x="179" y="646" on="0"/>
        <pt x="178" y="635" on="1"/>
        <pt x="170" y="572" on="1"/>
        <pt x="103" y="572" on="1"/>
      </contour>
      <contour>
        <pt x="276" y="646" on="1"/>
        <pt x="331" y="646" on="1"/>
        <pt x="343" y="646" on="0"/>
        <pt x="342" y="635" on="1"/>
        <pt x="334" y="572" on="1"/>
        <pt x="267" y="572" on="1"/>
      </contour>
    </TTGlyph>
    <TTGlyph name="dieresis.cap" xMin="124" yMin="749" xMax="364" yMax="823">
      <contour>
        <pt x="133" y="823" on="1"/>
        <pt x="188" y="823" on="1"/>
        <pt x="200" y="823" on="0"/>
        <pt x="199" y="812" on="1"/>
        <pt x="191" y="749" on="1"/>
        <pt x="124" y="749" on="1"/>
      </contour>
      <contour>
        <pt x="297" y="823" on="1"/>
        <pt x="352" y="823" on="1"/>
        <pt x="364" y="823" on="0"/>
        <pt x="363" y="812" on="1"/>
        <pt x="355" y="749" on="1"/>
        <pt x="288" y="749" on="1"/>
      </contour>
    </TTGlyph>
    <TTGlyph name="divide" xMin="71" yMin="56" xMax="423" yMax="436">
      <contour>
        <pt x="423" y="266" on="1"/>
        <pt x="419" y="225" on="1"/>
        <pt x="71" y="225" on="1"/>
        <pt x="75" y="266" on="1"/>
      </contour>
      <contour>
        <pt x="237" y="436" on="1"/>
        <pt x="291" y="436" on="1"/>
        <pt x="302" y="436" on="0"/>
        <pt x="301" y="426" on="1"/>
        <pt x="294" y="365" on="1"/>
        <pt x="229" y="365" on="1"/>
      </contour>
      <contour>
        <pt x="200" y="127" on="1"/>
        <pt x="254" y="127" on="1"/>
        <pt x="265" y="127" on="0"/>
        <pt x="264" y="117" on="1"/>
        <pt x="257" y="56" on="1"/>
        <pt x="192" y="56" on="1"/>
      </contour>
    </TTGlyph>
    <TTGlyph name="dollar" xMin="39" yMin="-104" xMax="511" yMax="766">
      <contour>
        <pt x="53" y="74" on="1"/>
        <pt x="112" y="58" on="1"/>
        <pt x="148" y="48" on="0"/>
        <pt x="214" y="37" on="0"/>
        <pt x="245" y="36" on="1"/>
        <pt x="282" y="346" on="1"/>
        <pt x="256" y="359" on="1"/>
        <pt x="184" y="395" on="0"/>
        <pt x="112" y="466" on="0"/>
        <pt x="112" y="521" on="1"/>
        <pt x="112" y="590" on="0"/>
        <pt x="225" y="671" on="0"/>
        <pt x="322" y="673" on="1"/>
        <pt x="341" y="766" on="1"/>
        <pt x="375" y="766" on="1"/>
        <pt x="363" y="672" on="1"/>
        <pt x="401" y="669" on="0"/>
        <pt x="480" y="654" on="0"/>
        <pt x="511" y="643" on="1"/>
        <pt x="503" y="613" on="1"/>
        <pt x="457" y="618" on="1"/>
        <pt x="431" y="620" on="0"/>
        <pt x="381" y="625" on="0"/>
        <pt x="358" y="626" on="1"/>
        <pt x="327" y="376" on="1"/>
        <pt x="371" y="355" on="0"/>
        <pt x="433" y="314" on="0"/>
        <pt x="473" y="271" on="0"/>
        <pt x="491" y="222" on="0"/>
        <pt x="491" y="193" on="1"/>
        <pt x="491" y="151" on="0"/>
        <pt x="462" y="80" on="0"/>
        <pt x="408" y="27" on="0"/>
        <pt x="330" y="-6" on="0"/>
        <pt x="281" y="-9" on="1"/>
        <pt x="262" y="-104" on="1"/>
        <pt x="228" y="-104" on="1"/>
        <pt x="239" y="-9" on="1"/>
        <pt x="190" y="-7" on="0"/>
        <pt x="81" y="22" on="0"/>
        <pt x="39" y="45" on="1"/>
      </contour>
      <contour>
        <pt x="442" y="189" on="1"/>
        <pt x="442" y="211" on="0"/>
        <pt x="429" y="247" on="0"/>
        <pt x="401" y="279" on="0"/>
        <pt x="354" y="309" on="0"/>
        <pt x="321" y="326" on="1"/>
        <pt x="286" y="37" on="1"/>
        <pt x="318" y="40" on="0"/>
        <pt x="375" y="63" on="0"/>
        <pt x="417" y="101" on="0"/>
        <pt x="442" y="155" on="0"/>
      </contour>
      <contour>
        <pt x="160" y="522" on="1"/>
        <pt x="160" y="503" on="0"/>
        <pt x="174" y="472" on="0"/>
        <pt x="204" y="443" on="0"/>
        <pt x="253" y="414" on="0"/>
        <pt x="288" y="396" on="1"/>
        <pt x="316" y="627" on="1"/>
        <pt x="282" y="626" on="0"/>
        <pt x="225" y="613" on="0"/>
        <pt x="183" y="588" on="0"/>
        <pt x="160" y="549" on="0"/>
      </contour>
    </TTGlyph>
    <TTGlyph name="dollar.lprop" xMin="29" yMin="-104" xMax="501" yMax="766">
      <component glyphName="dollar" x="-10" y="0" flags="0x4"/>
    </TTGlyph>
    <TTGlyph name="dollar.oprop" xMin="46" yMin="-104" xMax="410" yMax="599">
      <component glyphName="dollar.otab" x="-53" y="0" flags="0x4"/>
    </TTGlyph>
    <TTGlyph name="dollar.otab" xMin="99" yMin="-104" xMax="463" yMax="599">
      <contour>
        <pt x="152" y="49" on="1"/>
        <pt x="178" y="43" on="0"/>
        <pt x="234" y="35" on="0"/>
        <pt x="254" y="34" on="1"/>
        <pt x="279" y="242" on="1"/>
        <pt x="259" y="251" on="1"/>
        <pt x="204" y="276" on="0"/>
        <pt x="145" y="329" on="0"/>
        <pt x="145" y="372" on="1"/>
        <pt x="145" y="399" on="0"/>
        <pt x="170" y="444" on="0"/>
        <pt x="214" y="477" on="0"/>
        <pt x="274" y="495" on="0"/>
        <pt x="310" y="496" on="1"/>
        <pt x="328" y="599" on="1"/>
        <pt x="359" y="599" on="1"/>
        <pt x="346" y="494" on="1"/>
        <pt x="376" y="492" on="0"/>
        <pt x="437" y="478" on="0"/>
        <pt x="463" y="468" on="1"/>
        <pt x="454" y="439" on="1"/>
        <pt x="421" y="444" on="1"/>
        <pt x="401" y="446" on="0"/>
        <pt x="361" y="451" on="0"/>
        <pt x="341" y="452" on="1"/>
        <pt x="319" y="273" on="1"/>
        <pt x="328" y="269" on="1"/>
        <pt x="387" y="243" on="0"/>
        <pt x="449" y="185" on="0"/>
        <pt x="449" y="140" on="1"/>
        <pt x="449" y="111" on="0"/>
        <pt x="425" y="60" on="0"/>
        <pt x="382" y="21" on="0"/>
        <pt x="322" y="-4" on="0"/>
        <pt x="286" y="-7" on="1"/>
        <pt x="269" y="-104" on="1"/>
        <pt x="238" y="-104" on="1"/>
        <pt x="249" y="-7" on="1"/>
        <pt x="211" y="-5" on="0"/>
        <pt x="128" y="17" on="0"/>
        <pt x="99" y="32" on="1"/>
        <pt x="111" y="58" on="1"/>
      </contour>
      <contour>
        <pt x="291" y="35" on="1"/>
        <pt x="337" y="41" on="0"/>
        <pt x="368" y="66" on="1"/>
        <pt x="383" y="79" on="0"/>
        <pt x="401" y="113" on="0"/>
        <pt x="401" y="135" on="1"/>
        <pt x="401" y="166" on="0"/>
        <pt x="361" y="204" on="0"/>
        <pt x="314" y="226" on="1"/>
      </contour>
      <contour>
        <pt x="305" y="453" on="1"/>
        <pt x="249" y="451" on="0"/>
        <pt x="191" y="410" on="0"/>
        <pt x="191" y="375" on="1"/>
        <pt x="191" y="361" on="0"/>
        <pt x="202" y="338" on="0"/>
        <pt x="224" y="319" on="0"/>
        <pt x="260" y="299" on="0"/>
        <pt x="285" y="288" on="1"/>
      </contour>
    </TTGlyph>
    <TTGlyph name="dotaccent" xMin="182" yMin="570" xMax="267" yMax="648">
      <contour>
        <pt x="191" y="648" on="1"/>
        <pt x="255" y="648" on="1"/>
        <pt x="267" y="648" on="0"/>
        <pt x="266" y="637" on="1"/>
        <pt x="258" y="570" on="1"/>
        <pt x="182" y="570" on="1"/>
      </contour>
    </TTGlyph>
    <TTGlyph name="dotaccent.cap" xMin="198" yMin="738" xMax="283" yMax="816">
      <contour>
        <pt x="207" y="816" on="1"/>
        <pt x="271" y="816" on="1"/>
        <pt x="283" y="816" on="0"/>
        <pt x="282" y="805" on="1"/>
        <pt x="274" y="738" on="1"/>
        <pt x="198" y="738" on="1"/>
      </contour>
    </TTGlyph>
    <TTGlyph name="dotlessi" xMin="46" yMin="0" xMax="155" yMax="488">
      <contour>
        <pt x="104" y="488" on="1"/>
        <pt x="155" y="488" on="1"/>
        <pt x="97" y="0" on="1"/>
        <pt x="46" y="0" on="1"/>
      </contour>
    </TTGlyph>
    <TTGlyph name="e" xMin="37" yMin="-8" xMax="470" yMax="496">
      <contour>
        <pt x="90" y="235" on="1"/>
        <pt x="89" y="230" on="0"/>
        <pt x="89" y="220" on="0"/>
        <pt x="89" y="216" on="1"/>
        <pt x="89" y="176" on="0"/>
        <pt x="109" y="110" on="0"/>
        <pt x="150" y="62" on="0"/>
        <pt x="210" y="36" on="0"/>
        <pt x="250" y="36" on="1"/>
        <pt x="279" y="36" on="0"/>
        <pt x="341" y="52" on="0"/>
        <pt x="378" y="67" on="1"/>
        <pt x="435" y="90" on="1"/>
        <pt x="449" y="66" on="1"/>
        <pt x="406" y="35" on="0"/>
        <pt x="297" y="-8" on="0"/>
        <pt x="245" y="-8" on="1"/>
        <pt x="196" y="-8" on="0"/>
        <pt x="119" y="27" on="0"/>
        <pt x="65" y="87" on="0"/>
        <pt x="37" y="167" on="0"/>
        <pt x="37" y="213" on="1"/>
        <pt x="37" y="270" on="0"/>
        <pt x="76" y="373" on="0"/>
        <pt x="143" y="451" on="0"/>
        <pt x="233" y="496" on="0"/>
        <pt x="284" y="496" on="1"/>
        <pt x="327" y="496" on="0"/>
        <pt x="396" y="462" on="0"/>
        <pt x="444" y="405" on="0"/>
        <pt x="470" y="330" on="0"/>
        <pt x="470" y="290" on="1"/>
        <pt x="470" y="257" on="0"/>
        <pt x="458" y="235" on="0"/>
        <pt x="441" y="235" on="1"/>
      </contour>
      <contour>
        <pt x="423" y="274" on="1"/>
        <pt x="423" y="355" on="0"/>
        <pt x="348" y="451" on="0"/>
        <pt x="279" y="451" on="1"/>
        <pt x="243" y="451" on="0"/>
        <pt x="180" y="423" on="0"/>
        <pt x="132" y="374" on="0"/>
        <pt x="101" y="310" on="0"/>
        <pt x="95" y="274" on="1"/>
      </contour>
    </TTGlyph>
    <TTGlyph name="eacute" xMin="37" yMin="-8" xMax="470" yMax="699">
      <component glyphName="e" x="0" y="0" flags="0x204"/>
      <component glyphName="acute" x="88" y="0" flags="0x4"/>
    </TTGlyph>
    <TTGlyph name="ebreve" xMin="37" yMin="-8" xMax="470" yMax="681">
      <component glyphName="e" x="0" y="0" flags="0x204"/>
      <component glyphName="breve" x="84" y="0" flags="0x4"/>
    </TTGlyph>
    <TTGlyph name="ecaron" xMin="37" yMin="-8" xMax="470" yMax="697">
      <component glyphName="e" x="0" y="0" flags="0x204"/>
      <component glyphName="caron" x="68" y="0" flags="0x4"/>
    </TTGlyph>
    <TTGlyph name="ecircumflex" xMin="37" yMin="-8" xMax="470" yMax="699">
      <component glyphName="e" x="0" y="0" flags="0x204"/>
      <component glyphName="circumflex" x="73" y="0" flags="0x4"/>
    </TTGlyph>
    <TTGlyph name="edieresis" xMin="37" yMin="-8" xMax="470" yMax="646">
      <component glyphName="e" x="0" y="0" flags="0x204"/>
      <component glyphName="dieresis" x="78" y="0" flags="0x4"/>
    </TTGlyph>
    <TTGlyph name="edotaccent" xMin="37" yMin="-8" xMax="470" yMax="648">
      <component glyphName="e" x="0" y="0" flags="0x204"/>
      <component glyphName="dotaccent" x="31" y="0" flags="0x4"/>
    </TTGlyph>
    <TTGlyph name="egrave" xMin="37" yMin="-8" xMax="470" yMax="700">
      <component glyphName="e" x="0" y="0" flags="0x204"/>
      <component glyphName="grave" x="65" y="0" flags="0x4"/>
    </TTGlyph>
    <TTGlyph name="eight" xMin="48" yMin="-10" xMax="523" yMax="673">
      <contour>
        <pt x="280" y="-10" on="1"/>
        <pt x="231" y="-10" on="0"/>
        <pt x="147" y="20" on="0"/>
        <pt x="84" y="72" on="0"/>
        <pt x="48" y="144" on="0"/>
        <pt x="48" y="185" on="1"/>
        <pt x="48" y="218" on="0"/>
        <pt x="73" y="277" on="0"/>
        <pt x="114" y="329" on="0"/>
        <pt x="168" y="371" on="0"/>
        <pt x="198" y="387" on="1"/>
        <pt x="167" y="408" on="0"/>
        <pt x="125" y="470" on="0"/>
        <pt x="125" y="507" on="1"/>
        <pt x="125" y="541" on="0"/>
        <pt x="156" y="602" on="0"/>
        <pt x="211" y="647" on="0"/>
        <pt x="287" y="673" on="0"/>
        <pt x="331" y="673" on="1"/>
        <pt x="373" y="673" on="0"/>
        <pt x="444" y="648" on="0"/>
        <pt x="495" y="605" on="0"/>
        <pt x="523" y="546" on="0"/>
        <pt x="523" y="513" on="1"/>
        <pt x="523" y="466" on="0"/>
        <pt x="466" y="377" on="0"/>
        <pt x="403" y="329" on="1"/>
        <pt x="458" y="298" on="0"/>
        <pt x="518" y="228" on="0"/>
        <pt x="518" y="183" on="1"/>
        <pt x="518" y="140" on="0"/>
        <pt x="478" y="69" on="0"/>
        <pt x="412" y="18" on="0"/>
        <pt x="326" y="-10" on="0"/>
      </contour>
      <contour>
        <pt x="247" y="360" on="1"/>
        <pt x="239" y="364" on="0"/>
        <pt x="230" y="365" on="0"/>
        <pt x="222" y="360" on="1"/>
        <pt x="169" y="330" on="0"/>
        <pt x="97" y="243" on="0"/>
        <pt x="97" y="185" on="1"/>
        <pt x="97" y="153" on="0"/>
        <pt x="125" y="98" on="0"/>
        <pt x="175" y="58" on="0"/>
        <pt x="242" y="35" on="0"/>
        <pt x="281" y="35" on="1"/>
        <pt x="321" y="35" on="0"/>
        <pt x="390" y="57" on="0"/>
        <pt x="440" y="95" on="0"/>
        <pt x="468" y="148" on="0"/>
        <pt x="468" y="180" on="1"/>
        <pt x="468" y="214" on="0"/>
        <pt x="416" y="275" on="0"/>
        <pt x="356" y="305" on="1"/>
      </contour>
      <contour>
        <pt x="356" y="354" on="1"/>
        <pt x="362" y="351" on="0"/>
        <pt x="371" y="349" on="0"/>
        <pt x="377" y="354" on="1"/>
        <pt x="419" y="388" on="0"/>
        <pt x="477" y="469" on="0"/>
        <pt x="477" y="512" on="1"/>
        <pt x="477" y="540" on="0"/>
        <pt x="454" y="584" on="0"/>
        <pt x="414" y="613" on="0"/>
        <pt x="360" y="628" on="0"/>
        <pt x="329" y="628" on="1"/>
        <pt x="299" y="628" on="0"/>
        <pt x="242" y="612" on="0"/>
        <pt x="198" y="582" on="0"/>
        <pt x="172" y="539" on="0"/>
        <pt x="172" y="512" on="1"/>
        <pt x="172" y="469" on="0"/>
        <pt x="238" y="413" on="0"/>
        <pt x="294" y="385" on="1"/>
      </contour>
    </TTGlyph>
    <TTGlyph name="eight.lprop" xMin="47" yMin="-10" xMax="522" yMax="673">
      <contour>
        <pt x="279" y="-10" on="1"/>
        <pt x="230" y="-10" on="0"/>
        <pt x="146" y="20" on="0"/>
        <pt x="83" y="72" on="0"/>
        <pt x="47" y="144" on="0"/>
        <pt x="47" y="185" on="1"/>
        <pt x="47" y="218" on="0"/>
        <pt x="72" y="277" on="0"/>
        <pt x="113" y="329" on="0"/>
        <pt x="167" y="371" on="0"/>
        <pt x="197" y="387" on="1"/>
        <pt x="166" y="408" on="0"/>
        <pt x="124" y="470" on="0"/>
        <pt x="124" y="507" on="1"/>
        <pt x="124" y="541" on="0"/>
        <pt x="155" y="602" on="0"/>
        <pt x="210" y="647" on="0"/>
        <pt x="286" y="673" on="0"/>
        <pt x="330" y="673" on="1"/>
        <pt x="372" y="673" on="0"/>
        <pt x="443" y="648" on="0"/>
        <pt x="494" y="605" on="0"/>
        <pt x="522" y="546" on="0"/>
        <pt x="522" y="513" on="1"/>
        <pt x="522" y="466" on="0"/>
        <pt x="465" y="377" on="0"/>
        <pt x="402" y="329" on="1"/>
        <pt x="457" y="298" on="0"/>
        <pt x="517" y="228" on="0"/>
        <pt x="517" y="183" on="1"/>
        <pt x="517" y="140" on="0"/>
        <pt x="477" y="69" on="0"/>
        <pt x="411" y="18" on="0"/>
        <pt x="325" y="-10" on="0"/>
      </contour>
      <contour>
        <pt x="246" y="360" on="1"/>
        <pt x="238" y="364" on="0"/>
        <pt x="229" y="365" on="0"/>
        <pt x="221" y="360" on="1"/>
        <pt x="168" y="330" on="0"/>
        <pt x="96" y="243" on="0"/>
        <pt x="96" y="185" on="1"/>
        <pt x="96" y="153" on="0"/>
        <pt x="124" y="98" on="0"/>
        <pt x="174" y="58" on="0"/>
        <pt x="241" y="35" on="0"/>
        <pt x="280" y="35" on="1"/>
        <pt x="320" y="35" on="0"/>
        <pt x="389" y="57" on="0"/>
        <pt x="439" y="95" on="0"/>
        <pt x="467" y="148" on="0"/>
        <pt x="467" y="180" on="1"/>
        <pt x="467" y="214" on="0"/>
        <pt x="415" y="275" on="0"/>
        <pt x="355" y="305" on="1"/>
      </contour>
      <contour>
        <pt x="355" y="354" on="1"/>
        <pt x="361" y="351" on="0"/>
        <pt x="370" y="349" on="0"/>
        <pt x="376" y="354" on="1"/>
        <pt x="418" y="388" on="0"/>
        <pt x="476" y="469" on="0"/>
        <pt x="476" y="512" on="1"/>
        <pt x="476" y="540" on="0"/>
        <pt x="453" y="584" on="0"/>
        <pt x="413" y="613" on="0"/>
        <pt x="359" y="628" on="0"/>
        <pt x="328" y="628" on="1"/>
        <pt x="298" y="628" on="0"/>
        <pt x="241" y="612" on="0"/>
        <pt x="197" y="582" on="0"/>
        <pt x="171" y="539" on="0"/>
        <pt x="171" y="512" on="1"/>
        <pt x="171" y="469" on="0"/>
        <pt x="237" y="413" on="0"/>
        <pt x="293" y="385" on="1"/>
      </contour>
    </TTGlyph>
</ttFont>
